<?xml version="1.0" encoding="UTF-8" standalone="no"?>
<svg
   xmlns:dc="http://purl.org/dc/elements/1.1/"
   xmlns:cc="http://creativecommons.org/ns#"
   xmlns:rdf="http://www.w3.org/1999/02/22-rdf-syntax-ns#"
   xmlns:svg="http://www.w3.org/2000/svg"
   xmlns="http://www.w3.org/2000/svg"
   xmlns:sodipodi="http://sodipodi.sourceforge.net/DTD/sodipodi-0.dtd"
   xmlns:inkscape="http://www.inkscape.org/namespaces/inkscape"
   id="b6aa0626-c548-43ac-b721-fcff4f949bc4"
   data-name="Layer 1"
   width="868.9803"
   height="474.6702"
   viewBox="0 0 868.9803 474.6702"
   version="1.1"
   sodipodi:docname="undraw_Chat_bot_re_e2gj.svg"
   inkscape:version="1.0.2 (e86c870879, 2021-01-15)">
  <metadata
     id="metadata81">
    <rdf:RDF>
      <cc:Work
         rdf:about="">
        <dc:format>image/svg+xml</dc:format>
        <dc:type
           rdf:resource="http://purl.org/dc/dcmitype/StillImage" />
        <dc:title></dc:title>
      </cc:Work>
    </rdf:RDF>
  </metadata>
  <defs
     id="defs79" />
  <sodipodi:namedview
     pagecolor="#ffffff"
     bordercolor="#666666"
     borderopacity="1"
     objecttolerance="10"
     gridtolerance="10"
     guidetolerance="10"
     inkscape:pageopacity="0"
     inkscape:pageshadow="2"
     inkscape:window-width="1600"
     inkscape:window-height="778"
     id="namedview77"
     showgrid="false"
     showborder="false"
     inkscape:showpageshadow="false"
     inkscape:zoom="0.70737049"
     inkscape:cx="543.04437"
     inkscape:cy="237.3351"
     inkscape:window-x="0"
     inkscape:window-y="0"
     inkscape:window-maximized="1"
     inkscape:current-layer="b6aa0626-c548-43ac-b721-fcff4f949bc4" />
  <g
     id="g1351">
    <rect
       x="327.99594"
       y="100.98308"
       width="492.18639"
       height="277.64361"
       fill="#fff"
       id="rect30" />
    <circle
       cx="573.66845"
       cy="88.36291"
       r="5.04805"
       fill="#fff"
       id="circle32" />
    <path
       d="M749.06641,554.88582a12.08948,12.08948,0,0,1-.55394,1.14324,14.6271,14.6271,0,0,1-4.433,4.987,14.56389,14.56389,0,0,1-22.94594-11.9105V546.755h1.99475A50.94173,50.94173,0,0,0,749.06641,554.88582Z"
       transform="translate(-165.50985 -212.6649)"
       fill="#3f3d56"
       id="path38"
       style="fill:#fe9216;fill-opacity:1" />
    <path
       d="M777.5304,547.44323v1.66232a14.55908,14.55908,0,0,1-27.34415,6.97014,12.16026,12.16026,0,0,1-.57729-1.17239c.42578.01168.84557.01752,1.27164.01752A51.01779,51.01779,0,0,0,777.5304,547.44323Z"
       transform="translate(-165.50985 -212.6649)"
       fill="#3f3d56"
       id="path40"
       style="fill:#fe9216;fill-opacity:1" />
    <path
       d="M797.15156,371.65583c-.43746-.06415-.88061-.105-1.32405-.13414a48.98222,48.98222,0,0,1,.97431,36.57714c.44315-.05247.88061-.12246,1.31807-.20413a18.37443,18.37443,0,0,0-.96833-36.23887Z"
       transform="translate(-165.50985 -212.6649)"
       fill="#3f3d56"
       id="path42"
       style="fill:#7cc51c;fill-opacity:1" />
    <path
       d="M705.9334,371.52169c-.44344.02915-.88659.07-1.32405.13414a18.37448,18.37448,0,0,0-.96832,36.23887c.43745.08167.87491.15166,1.31806.20413a48.98583,48.98583,0,0,1,.97431-36.57714Z"
       transform="translate(-165.50985 -212.6649)"
       fill="#3f3d56"
       id="path44"
       style="fill:#7cc51c;fill-opacity:1" />
    <path
       d="M797.15156,371.65583a50.15582,50.15582,0,1,0,3.89068,19.36473A50.22821,50.22821,0,0,0,797.15156,371.65583Zm-.34974,36.443a48.98222,48.98222,0,1,1,3.07387-17.07827A49.06652,49.06652,0,0,1,796.80182,408.09883Z"
       transform="translate(-165.50985 -212.6649)"
       fill="#3f3d56"
       id="path46" />
    <path
       d="M776.5447,379.6467H725.2165a10.20731,10.20731,0,0,0,0,20.41462h51.3282a10.20731,10.20731,0,0,0,0-20.41462Z"
       transform="translate(-165.50985 -212.6649)"
       fill="#3f3d56"
       id="path48"
       style="fill:#fe9216;fill-opacity:1" />
    <path
       d="M796.80182,478.18517q-.28025-.51623-.57758-1.01489c-.00569-.01168-.01167-.01752-.01737-.02916a52.4736,52.4736,0,1,0-47.6944,78.88794c.55394.02915,1.11386.04663,1.67378.04663.23354.01168.46081.01168.69435.01168a52.10841,52.10841,0,0,0,26.6498-7.2851A52.84318,52.84318,0,0,0,797.91,526.9003c.00569-.01167.01168-.01751.01737-.02919.17515-.35.34433-.70574.5135-1.06737a52.41937,52.41937,0,0,0-1.639-47.61857Zm.50154,47.29774q-.25376.54251-.52489,1.06741a51.68613,51.68613,0,0,1-19.24807,20.89291,51.01779,51.01779,0,0,1-26.6498,7.47759c-.42607,0-.84586-.00584-1.27164-.01752q-.27128,0-.54255-.01748a51.32636,51.32636,0,1,1,45.97391-77.41807c.0057.01164.01168.01748.01737.02916.20421.33247.40243.67074.58926,1.00905a51.263,51.263,0,0,1,1.65641,46.97695Z"
       transform="translate(-165.50985 -212.6649)"
       fill="#3f3d56"
       id="path50" />
    <path
       d="M791.22568,479.73667A6.06692,6.06692,0,0,0,787.726,478.611H764.78578a6.02524,6.02524,0,1,0,0,12.05048H787.726a5.95878,5.95878,0,0,0,1.21895-.1225,6.61944,6.61944,0,0,0,1.16655-.36747,6.02282,6.02282,0,0,0,1.11415-10.43479Z"
       transform="translate(-165.50985 -212.6649)"
       fill="#3f3d56"
       id="path52" />
    <circle
       cx="600.80328"
       cy="271.97097"
       r="3.05895"
       fill="#f1f1f1"
       id="circle54" />
    <circle
       cx="610.74487"
       cy="271.97097"
       r="3.05895"
       fill="#f1f1f1"
       id="circle56" />
    <circle
       cx="620.68647"
       cy="271.97097"
       r="3.05895"
       fill="#6c63ff"
       id="circle58"
       style="fill:#fe9216;fill-opacity:1" />
    <path
       d="M901.40674,383.8181c-7.955,4.7708-22.128,10.74873-36.61127,4.60532l-9.36232-3.9713,18.76142-21.03134a89.60221,89.60221,0,1,1,27.21217,20.39732Z"
       transform="translate(-165.50985 -212.6649)"
       fill="#fff"
       id="path60" />
    <path
       d="M901.45553,384.95169c-7.64392,4.4878-22.20508,10.68994-37.05054,4.39209l-10.647-4.51611,19.09448-21.4043a90.60242,90.60242,0,1,1,128.58,6.91406h0a90.19848,90.19848,0,0,1-99.97692,14.61426Zm104.74011-141.24951A88.60227,88.60227,0,1,0,874.93526,362.74906l.60425.6665-18.43115,20.66113L865.186,387.503c14.33753,6.082,28.52527-.23584,35.70643-4.54248l.46423-.27881.48706.23682a88.6021,88.6021,0,0,0,104.35193-139.21631Z"
       transform="translate(-165.50985 -212.6649)"
       fill="#6c63ff"
       id="path62"
       style="fill:#7cc51c;fill-opacity:1" />
    <path
       d="M1016.20873,302.66717a82.46016,82.46016,0,0,0-75.16848-82.13206c2.40185-.2104,4.83137-.32424,7.28779-.32424a82.4563,82.4563,0,0,1,0,164.91257c-2.45272,0-4.87807-.11531-7.27628-.32526A82.4602,82.4602,0,0,0,1016.20873,302.66717Z"
       transform="translate(-165.50985 -212.6649)"
       opacity="0.1"
       style="isolation:isolate;opacity:0.10387775"
       id="path64" />
    <rect
       x="727.77167"
       y="73.559372"
       width="58.919659"
       height="5.47153"
       fill="#6c63ff"
       id="rect66"
       style="fill:#fe9216;fill-opacity:1" />
    <rect
       x="727.77166"
       y="92.48718"
       width="102.69201"
       height="5.47153"
       fill="#6c63ff"
       id="rect68"
       style="fill:#fe9216;fill-opacity:1" />
    <rect
       x="727.77166"
       y="111.41497"
       width="102.59147"
       height="5.47153"
       fill="#6c63ff"
       id="rect70"
       style="fill:#fe9216;fill-opacity:1" />
  </g>
</svg>
