<?xml version="1.0" encoding="UTF-8" standalone="no"?>
<svg
   xmlns:dc="http://purl.org/dc/elements/1.1/"
   xmlns:cc="http://creativecommons.org/ns#"
   xmlns:rdf="http://www.w3.org/1999/02/22-rdf-syntax-ns#"
   xmlns:svg="http://www.w3.org/2000/svg"
   xmlns="http://www.w3.org/2000/svg"
   xmlns:sodipodi="http://sodipodi.sourceforge.net/DTD/sodipodi-0.dtd"
   xmlns:inkscape="http://www.inkscape.org/namespaces/inkscape"
   id="b6aa0626-c548-43ac-b721-fcff4f949bc4"
   data-name="Layer 1"
   width="868.9803"
   height="474.6702"
   viewBox="0 0 868.9803 474.6702"
   version="1.1"
   sodipodi:docname="bot1.svg"
   inkscape:version="1.0.2 (e86c870879, 2021-01-15)">
  <metadata
     id="metadata81">
    <rdf:RDF>
      <cc:Work
         rdf:about="">
        <dc:format>image/svg+xml</dc:format>
        <dc:type
           rdf:resource="http://purl.org/dc/dcmitype/StillImage" />
        <dc:title />
      </cc:Work>
    </rdf:RDF>
  </metadata>
  <defs
     id="defs79" />
  <sodipodi:namedview
     pagecolor="#ffffff"
     bordercolor="#666666"
     borderopacity="1"
     objecttolerance="10"
     gridtolerance="10"
     guidetolerance="10"
     inkscape:pageopacity="0"
     inkscape:pageshadow="2"
     inkscape:window-width="1600"
     inkscape:window-height="778"
     id="namedview77"
     showgrid="false"
     showborder="false"
     inkscape:showpageshadow="false"
     inkscape:zoom="0.70737049"
     inkscape:cx="-34.358149"
     inkscape:cy="237.3351"
     inkscape:window-x="0"
     inkscape:window-y="0"
     inkscape:window-maximized="1"
     inkscape:current-layer="b6aa0626-c548-43ac-b721-fcff4f949bc4"
     inkscape:document-rotation="0" />
  <g
     id="g1372"
     transform="matrix(0.82233244,0,0,0.88218193,-395.23079,19.18079)">
    <rect
       x="470.32544"
       y="100.98308"
       width="213.5466"
       height="246.28851"
       fill="#ffffff"
       id="rect30"
       style="stroke-width:0.620383" />
    <circle
       cx="573.66846"
       cy="88.362907"
       r="5.0480499"
       fill="#ffffff"
       id="circle32" />
    <path
       d="m 749.06641,554.88582 a 12.08948,12.08948 0 0 1 -0.55394,1.14324 14.6271,14.6271 0 0 1 -4.433,4.987 14.56389,14.56389 0 0 1 -22.94594,-11.9105 V 546.755 h 1.99475 a 50.94173,50.94173 0 0 0 25.93813,8.13082 z"
       transform="translate(-165.50985,-212.6649)"
       fill="#3f3d56"
       id="path38"
       style="fill:#fe9216;fill-opacity:1" />
    <path
       d="m 777.5304,547.44323 v 1.66232 a 14.55908,14.55908 0 0 1 -27.34415,6.97014 12.16026,12.16026 0 0 1 -0.57729,-1.17239 c 0.42578,0.0117 0.84557,0.0175 1.27164,0.0175 a 51.01779,51.01779 0 0 0 26.6498,-7.47759 z"
       transform="translate(-165.50985,-212.6649)"
       fill="#3f3d56"
       id="path40"
       style="fill:#fe9216;fill-opacity:1" />
    <path
       d="m 797.15156,371.65583 c -0.43746,-0.0641 -0.88061,-0.105 -1.32405,-0.13414 a 48.98222,48.98222 0 0 1 0.97431,36.57714 c 0.44315,-0.0525 0.88061,-0.12246 1.31807,-0.20413 a 18.37443,18.37443 0 0 0 -0.96833,-36.23887 z"
       transform="translate(-165.50985,-212.6649)"
       fill="#3f3d56"
       id="path42"
       style="fill:#7cc51c;fill-opacity:1" />
    <path
       d="m 705.9334,371.52169 c -0.44344,0.0292 -0.88659,0.07 -1.32405,0.13414 a 18.37448,18.37448 0 0 0 -0.96832,36.23887 c 0.43745,0.0817 0.87491,0.15166 1.31806,0.20413 a 48.98583,48.98583 0 0 1 0.97431,-36.57714 z"
       transform="translate(-165.50985,-212.6649)"
       fill="#3f3d56"
       id="path44"
       style="fill:#7cc51c;fill-opacity:1" />
    <path
       d="m 797.15156,371.65583 a 50.15582,50.15582 0 1 0 3.89068,19.36473 50.22821,50.22821 0 0 0 -3.89068,-19.36473 z m -0.34974,36.443 a 48.98222,48.98222 0 1 1 3.07387,-17.07827 49.06652,49.06652 0 0 1 -3.07387,17.07827 z"
       transform="translate(-165.50985,-212.6649)"
       fill="#3f3d56"
       id="path46" />
    <path
       d="m 776.5447,379.6467 h -51.3282 a 10.20731,10.20731 0 0 0 0,20.41462 h 51.3282 a 10.20731,10.20731 0 0 0 0,-20.41462 z"
       transform="translate(-165.50985,-212.6649)"
       fill="#3f3d56"
       id="path48"
       style="fill:#fe9216;fill-opacity:1" />
    <path
       d="m 796.80182,478.18517 q -0.28025,-0.51623 -0.57758,-1.01489 c -0.006,-0.0117 -0.0117,-0.0175 -0.0174,-0.0292 a 52.4736,52.4736 0 1 0 -47.6944,78.88794 c 0.55394,0.0292 1.11386,0.0466 1.67378,0.0466 0.23354,0.0117 0.46081,0.0117 0.69435,0.0117 a 52.10841,52.10841 0 0 0 26.6498,-7.2851 52.84318,52.84318 0 0 0 20.3796,-21.90197 c 0.006,-0.0117 0.0117,-0.0175 0.0174,-0.0292 0.17515,-0.35 0.34433,-0.70574 0.5135,-1.06737 a 52.41937,52.41937 0 0 0 -1.639,-47.61857 z m 0.50154,47.29774 q -0.25376,0.54251 -0.52489,1.06741 a 51.68613,51.68613 0 0 1 -19.24807,20.89291 51.01779,51.01779 0 0 1 -26.6498,7.47759 c -0.42607,0 -0.84586,-0.006 -1.27164,-0.0175 q -0.27128,0 -0.54255,-0.0175 a 51.32636,51.32636 0 1 1 45.97391,-77.41807 c 0.006,0.0116 0.0117,0.0175 0.0174,0.0292 0.20421,0.33247 0.40243,0.67074 0.58926,1.00905 a 51.263,51.263 0 0 1 1.65641,46.97695 z"
       transform="translate(-165.50985,-212.6649)"
       fill="#3f3d56"
       id="path50" />
    <path
       d="M 791.22568,479.73667 A 6.06692,6.06692 0 0 0 787.726,478.611 h -22.94022 a 6.02524,6.02524 0 1 0 0,12.05048 H 787.726 a 5.95878,5.95878 0 0 0 1.21895,-0.1225 6.61944,6.61944 0 0 0 1.16655,-0.36747 6.02282,6.02282 0 0 0 1.11415,-10.43479 z"
       transform="translate(-165.50985,-212.6649)"
       fill="#3f3d56"
       id="path52" />
    <circle
       cx="600.80328"
       cy="271.97098"
       r="3.0589499"
       fill="#f1f1f1"
       id="circle54" />
    <circle
       cx="610.74487"
       cy="271.97098"
       r="3.0589499"
       fill="#f1f1f1"
       id="circle56" />
    <circle
       cx="620.68646"
       cy="271.97098"
       r="3.0589499"
       fill="#6c63ff"
       id="circle58"
       style="fill:#fe9216;fill-opacity:1" />
    <path
       d="m 705.38038,182.13401 c -7.955,4.7708 -22.128,10.74873 -36.61127,4.60532 l -9.36232,-3.9713 18.76142,-21.03134 a 89.60221,89.60221 0 1 1 27.21217,20.39732 z"
       fill="#ffffff"
       id="path60" />
    <path
       d="m 705.42917,183.2676 c -7.64392,4.4878 -22.20508,10.68994 -37.05054,4.39209 l -10.647,-4.51611 19.09448,-21.4043 a 90.60242,90.60242 0 1 1 128.58,6.91406 v 0 A 90.19848,90.19848 0 0 1 705.42919,183.2676 Z M 810.16928,42.018088 A 88.60227,88.60227 0 1 0 678.9089,161.06497 l 0.60425,0.6665 -18.43115,20.66113 8.07764,3.42631 c 14.33753,6.082 28.52527,-0.23584 35.70643,-4.54248 l 0.46423,-0.27881 0.48706,0.23682 A 88.6021,88.6021 0 0 0 810.16929,42.018128 Z"
       fill="#6c63ff"
       id="path62"
       style="fill:#7cc51c;fill-opacity:1" />
    <path
       d="M 820.18237,100.98308 A 82.46016,82.46016 0 0 0 745.01389,18.851018 c 2.40185,-0.2104 4.83137,-0.32424 7.28779,-0.32424 a 82.4563,82.4563 0 0 1 0,164.912572 c -2.45272,0 -4.87807,-0.11531 -7.27628,-0.32526 a 82.4602,82.4602 0 0 0 75.15697,-82.13101 z"
       opacity="0.1"
       style="opacity:0.103878;isolation:isolate"
       id="path64" />
    <rect
       x="697.25519"
       y="84.540176"
       width="58.919659"
       height="5.47153"
       fill="#6c63ff"
       id="rect66"
       style="fill:#fe9216;fill-opacity:1" />
    <rect
       x="697.25519"
       y="103.46799"
       width="102.69201"
       height="5.47153"
       fill="#6c63ff"
       id="rect68"
       style="fill:#fe9216;fill-opacity:1" />
    <rect
       x="697.25519"
       y="122.39577"
       width="102.59147"
       height="5.47153"
       fill="#6c63ff"
       id="rect70"
       style="fill:#fe9216;fill-opacity:1" />
  </g>
</svg>
