<svg xmlns="http://www.w3.org/2000/svg" viewBox="0 0 22.62 14.81"><defs><style>.cls-1{fill:#005d9e;}</style></defs><g id="Layer_2" data-name="Layer 2"><g id="Layer_1-2" data-name="Layer 1"><circle class="cls-1" cx="11.31" cy="7.4" r="2.47"/><path class="cls-1" d="M22.29,6.17A12.52,12.52,0,0,0,11.31,0a12.54,12.54,0,0,0-11,6.17,2.53,2.53,0,0,0,0,2.47,12.53,12.53,0,0,0,11,6.16,12.51,12.51,0,0,0,11-6.16A2.53,2.53,0,0,0,22.29,6.17Zm-11,5.35A4.12,4.12,0,1,1,15.42,7.4,4.12,4.12,0,0,1,11.31,11.52Z"/></g></g></svg>