<svg xmlns="http://www.w3.org/2000/svg" viewBox="0 0 329.5 249"><defs><style>.cls-1{fill:#fff;}.cls-1,.cls-4{stroke:#006698;stroke-miterlimit:10;stroke-width:3px;}.cls-2,.cls-3{font-size:19.67px;font-family:Lato-Heavy, Lato;font-weight:800;}.cls-2{fill:#006698;}.cls-3,.cls-5{fill:#005d9f;}.cls-4{fill:none;}</style></defs><g id="Layer_2" data-name="Layer 2"><g id="Layer_1-2" data-name="Layer 1"><circle class="cls-1" cx="37.5" cy="37.5" r="36"/><circle class="cls-1" cx="37.5" cy="97.5" r="36"/><circle class="cls-1" cx="37.5" cy="159.5" r="36"/><text class="cls-2" transform="translate(15.05 45.27)">25Kg</text><text class="cls-3" transform="translate(15.05 106.27)">20Kg</text><text class="cls-3" transform="translate(15.05 167.27)">10Kg</text><line class="cls-4" x1="37.5" y1="195.5" x2="37.5" y2="248.5"/><line class="cls-4" x1="1.5" y1="247.5" x2="329.5" y2="247.5"/><path class="cls-5" d="M313.79,62.59h-8.35a9,9,0,0,0-9-8.59h-21a9,9,0,0,0-9,8.59h-8.35a12,12,0,0,0-12,12V183.43a12,12,0,0,0,12,12h4V200a1.85,1.85,0,0,0,3.7,0v-4.55H306V200a1.85,1.85,0,0,0,3.7,0v-4.55h4.05a12,12,0,0,0,12-12V74.59A12,12,0,0,0,313.79,62.59ZM275.41,57.7h21a5.34,5.34,0,0,1,5.31,4.9H270.11A5.33,5.33,0,0,1,275.41,57.7Zm46.67,125.73a8.3,8.3,0,0,1-8.29,8.29H258.06a8.3,8.3,0,0,1-8.3-8.29V74.59a8.3,8.3,0,0,1,8.3-8.29h55.73a8.3,8.3,0,0,1,8.29,8.29V183.43Z"/><path class="cls-5" d="M307.79,77.21a1.85,1.85,0,0,0-1.85,1.85V179a1.85,1.85,0,1,0,3.7,0V79.06A1.85,1.85,0,0,0,307.79,77.21Z"/><path class="cls-5" d="M293.21,77.21a1.85,1.85,0,0,0-1.85,1.85V179a1.85,1.85,0,1,0,3.7,0V79.06A1.85,1.85,0,0,0,293.21,77.21Z"/><path class="cls-5" d="M278.63,77.21a1.85,1.85,0,0,0-1.85,1.85V179a1.85,1.85,0,0,0,3.7,0V79.06A1.85,1.85,0,0,0,278.63,77.21Z"/><path class="cls-5" d="M264.05,77.21a1.85,1.85,0,0,0-1.85,1.85V179a1.85,1.85,0,1,0,3.7,0V79.06A1.85,1.85,0,0,0,264.05,77.21Z"/><path class="cls-5" d="M230.81,101.32h-6.19a7.48,7.48,0,0,0-7.42-6.75H200.71a7.49,7.49,0,0,0-7.42,6.75H187.1a9.81,9.81,0,0,0-9.8,9.8v76.06a9.82,9.82,0,0,0,9.8,9.8h2.78v3.17a1.85,1.85,0,1,0,3.7,0V197h30.76v3.17a1.85,1.85,0,0,0,3.7,0V197h2.77a9.82,9.82,0,0,0,9.81-9.8V111.12A9.81,9.81,0,0,0,230.81,101.32Zm-30.1-3H217.2a3.8,3.8,0,0,1,3.72,3H197A3.81,3.81,0,0,1,200.71,98.27Zm36.21,88.91a6.11,6.11,0,0,1-6.11,6.1H187.1a6.11,6.11,0,0,1-6.1-6.1V111.12a6.11,6.11,0,0,1,6.1-6.11h43.71a6.12,6.12,0,0,1,6.11,6.11Z"/><path class="cls-5" d="M226.11,112.78a1.85,1.85,0,0,0-1.85,1.85v69a1.85,1.85,0,1,0,3.7,0v-69A1.85,1.85,0,0,0,226.11,112.78Z"/><path class="cls-5" d="M214.67,112.78a1.85,1.85,0,0,0-1.85,1.85v69a1.85,1.85,0,0,0,3.7,0v-69A1.85,1.85,0,0,0,214.67,112.78Z"/><path class="cls-5" d="M203.24,112.78a1.85,1.85,0,0,0-1.85,1.85v69a1.85,1.85,0,1,0,3.7,0v-69A1.85,1.85,0,0,0,203.24,112.78Z"/><path class="cls-5" d="M191.81,112.78a1.85,1.85,0,0,0-1.85,1.85v69a1.85,1.85,0,0,0,3.7,0v-69A1.85,1.85,0,0,0,191.81,112.78Z"/><path class="cls-5" d="M164.44,128h-4.55a5.49,5.49,0,0,0-5.45-5H142.32a5.51,5.51,0,0,0-5.45,5h-4.55a7.21,7.21,0,0,0-7.2,7.21v55.88a7.21,7.21,0,0,0,7.2,7.2h2v2.33a1.36,1.36,0,0,0,2.72,0v-2.33h22.6v2.33a1.36,1.36,0,0,0,2.72,0v-2.33h2a7.22,7.22,0,0,0,7.21-7.2V135.23A7.22,7.22,0,0,0,164.44,128Zm-22.12-2.23h12.12a2.79,2.79,0,0,1,2.73,2.23H139.59A2.8,2.8,0,0,1,142.32,125.79Zm26.61,65.32a4.49,4.49,0,0,1-4.49,4.48H132.32a4.49,4.49,0,0,1-4.48-4.48V135.23a4.49,4.49,0,0,1,4.48-4.49h32.12a4.5,4.5,0,0,1,4.49,4.49Z"/><path class="cls-5" d="M161,136.45a1.35,1.35,0,0,0-1.35,1.36v50.72a1.36,1.36,0,1,0,2.71,0V137.81A1.36,1.36,0,0,0,161,136.45Z"/><path class="cls-5" d="M152.58,136.45a1.36,1.36,0,0,0-1.36,1.36v50.72a1.36,1.36,0,1,0,2.72,0V137.81A1.36,1.36,0,0,0,152.58,136.45Z"/><path class="cls-5" d="M144.18,136.45a1.36,1.36,0,0,0-1.36,1.36v50.72a1.36,1.36,0,1,0,2.72,0V137.81A1.36,1.36,0,0,0,144.18,136.45Z"/><path class="cls-5" d="M135.78,136.45a1.36,1.36,0,0,0-1.36,1.36v50.72a1.36,1.36,0,1,0,2.72,0V137.81A1.36,1.36,0,0,0,135.78,136.45Z"/></g></g></svg>