<svg xmlns="http://www.w3.org/2000/svg" viewBox="0 0 41.13 25.71"><defs><style>.cls-1{fill:#009bd8;}</style></defs><g id="Layer_2" data-name="Layer 2"><g id="Layer_1-2" data-name="Layer 1"><path class="cls-1" d="M38.56,9.64a1.93,1.93,0,0,0,1.93,1.93.64.64,0,0,1,.64.64v4.5a2.57,2.57,0,0,1-2.57,2.57H36.63a.65.65,0,0,1,0-1.29h1.93a1.28,1.28,0,0,0,1.29-1.28V12.79a3.21,3.21,0,0,1,0-6.3V2.57a1.28,1.28,0,0,0-1.29-1.28H33.34a2.58,2.58,0,0,1-1.85,1.83V4.5a.64.64,0,0,1-.64.64.64.64,0,0,1-.64-.64V3.12a2.54,2.54,0,0,1-1.85-1.83H9A1.28,1.28,0,0,0,7.71,2.57V4.5a.64.64,0,0,1-.64.64.64.64,0,0,1-.64-.64V2.57A2.57,2.57,0,0,1,9,0H28.92a.64.64,0,0,1,.64.64,1.29,1.29,0,0,0,1.29,1.29A1.28,1.28,0,0,0,32.13.64.65.65,0,0,1,32.78,0h5.78a2.57,2.57,0,0,1,2.57,2.57v4.5a.64.64,0,0,1-.64.64A1.93,1.93,0,0,0,38.56,9.64ZM34.7,9v4.5a.64.64,0,0,1-.64.64,1.93,1.93,0,1,0,0,3.85.64.64,0,0,1,.64.65v4.5a2.58,2.58,0,0,1-2.57,2.57H26.35a.64.64,0,0,1-.64-.65,1.29,1.29,0,0,0-2.57,0,.65.65,0,0,1-.65.65H2.57A2.58,2.58,0,0,1,0,23.14v-4.5A.65.65,0,0,1,.64,18a1.93,1.93,0,1,0,0-3.85A.64.64,0,0,1,0,13.5V9A2.57,2.57,0,0,1,2.57,6.43H22.49a.64.64,0,0,1,.65.64,1.29,1.29,0,0,0,2.57,0,.63.63,0,0,1,.64-.64h5.78A2.57,2.57,0,0,1,34.7,9ZM23.78,22.58v-13a2.57,2.57,0,0,1-1.85-1.84H2.57A1.28,1.28,0,0,0,1.29,9v3.92a3.22,3.22,0,0,1,2.57,3.15,3.23,3.23,0,0,1-2.57,3.15v3.92a1.28,1.28,0,0,0,1.28,1.28H21.93A2.59,2.59,0,0,1,23.78,22.58ZM33.42,9a1.29,1.29,0,0,0-1.29-1.29H26.91a2.57,2.57,0,0,1-1.85,1.84v13a2.59,2.59,0,0,1,1.85,1.84h5.22a1.29,1.29,0,0,0,1.29-1.28V19.22a3.22,3.22,0,0,1,0-6.3ZM21.59,16.2a.62.62,0,0,1,.26.51v1.93a.64.64,0,0,1-.64.64H16l-3.44,2.45a.61.61,0,0,1-.37.12H9a.64.64,0,0,1-.46-1.1L10,19.28H9A.64.64,0,0,1,8.5,19L5.92,15.83a.68.68,0,0,1-.14-.41V12.21a.65.65,0,0,1,.65-.64H8.35a.62.62,0,0,1,.52.26l1.73,2.31h8a.58.58,0,0,1,.38.13Zm-1,.83-2.15-1.61H10.28a.63.63,0,0,1-.51-.25L8,12.85h-1V15.2L9.31,18h2l1.1-1.09a.64.64,0,1,1,.91.91L12,19.09h0l-1.47,1.48H12l4.34-3.1a.63.63,0,0,1,.89.15.64.64,0,0,1,.11.37h3.23Zm8.35-5.46H27.63a.64.64,0,0,0-.64.64.64.64,0,0,0,.64.64h1.29a.64.64,0,0,0,.64-.64A.64.64,0,0,0,28.92,11.57Zm0,2.57H27.63a.64.64,0,0,0-.64.64.64.64,0,0,0,.64.64h1.29a.64.64,0,0,0,.64-.64A.64.64,0,0,0,28.92,14.14Zm0,2.57H27.63a.64.64,0,0,0-.64.64.64.64,0,0,0,.64.64h1.29a.64.64,0,0,0,.64-.64A.64.64,0,0,0,28.92,16.71Zm0,2.57H27.63a.65.65,0,0,0,0,1.29h1.29a.65.65,0,0,0,0-1.29ZM18,11.57h2.58a.65.65,0,0,0,0-1.29H18a.65.65,0,0,0,0,1.29Zm-3.85,0h1.28a.65.65,0,1,0,0-1.29H14.14a.65.65,0,0,0,0,1.29Z"/></g></g></svg>