<svg xmlns="http://www.w3.org/2000/svg" viewBox="0 0 200 200"><defs><style>.cls-1{fill:#005da2;}</style></defs><g id="Layer_2" data-name="Layer 2"><g id="Layer_1-2" data-name="Layer 1"><path class="cls-1" d="M182.6,88.83V3.63c0-2-1.12-3.63-2.5-3.63H19.9c-1.38,0-2.5,1.62-2.5,3.63v85.2C7.62,90.45,0,102.53,0,117.15v79.22c0,2,1.12,3.63,2.5,3.63S5,198.38,5,196.37V166.79H195v29.58c0,2,1.12,3.63,2.5,3.63s2.5-1.62,2.5-3.63V117.15C200,102.53,192.38,90.45,182.6,88.83Zm-5-81.57V88.63H157.68V59.56c0-11.84-6.64-21.47-14.8-21.47H112.29c-5.12,0-9.63,3.79-12.29,9.55-2.66-5.76-7.17-9.55-12.29-9.55H57.12c-8.16,0-14.8,9.63-14.8,21.47V88.63H22.4V7.26ZM97.5,88.63H47.32V59.56c0-7.84,4.4-14.21,9.8-14.21H87.71c5.4,0,9.79,6.37,9.79,14.21Zm55.18,0H102.5V59.56c0-7.84,4.39-14.21,9.79-14.21h30.59c5.4,0,9.8,6.37,9.8,14.21ZM195,159.54H5V117.15c0-11.72,6.57-21.26,14.65-21.26h160.7c8.08,0,14.65,9.54,14.65,21.26Z"/></g></g></svg>