<svg xmlns="http://www.w3.org/2000/svg" viewBox="0 0 131.03 131"><defs><style>.cls-1{fill:#005da2;}</style></defs><g id="Layer_2" data-name="Layer 2"><g id="Layer_1-2" data-name="Layer 1"><path class="cls-1" d="M45.87,48.71,64,53.92a1.71,1.71,0,0,0,1.25-.14,1.63,1.63,0,0,0,.78-1l3.44-12a1.64,1.64,0,0,0-1.12-2L50.23,33.55a1.65,1.65,0,0,0-1.25.14,1.68,1.68,0,0,0-.78,1l-3.45,12A1.64,1.64,0,0,0,45.87,48.71Zm5-11.56,15,4.3-2.55,8.87L48.35,46Z"/><path class="cls-1" d="M44.32,54.72a1.64,1.64,0,0,0-1-.76,1.7,1.7,0,0,0-1.25.16L25.75,63.55a1.65,1.65,0,0,0-.6,2.24L31.4,76.61a1.64,1.64,0,0,0,2.24.6L50,67.78a1.64,1.64,0,0,0,.76-1,1.61,1.61,0,0,0-.16-1.25ZM33.42,73.55l-4.61-8L42.3,57.78l4.61,8Z"/><path class="cls-1" d="M131,99.62A1.63,1.63,0,0,0,129.39,98H113.48a8.52,8.52,0,0,0,2.35-5.86V28.74a8.59,8.59,0,0,0-8.58-8.58H88.13V12.27c0-4.22-3-7.65-6.69-7.65h-1V3.83A3.84,3.84,0,0,0,76.61,0H54a3.84,3.84,0,0,0-3.83,3.83v.79h-.69c-3.69,0-6.7,3.43-6.7,7.65v7.89H23.67a8.6,8.6,0,0,0-8.59,8.58V92.12A8.56,8.56,0,0,0,17.43,98H1.64A1.63,1.63,0,0,0,0,99.61v12.28a1.63,1.63,0,0,0,1.64,1.64H9.12a10.38,10.38,0,1,0,15.09,0h82.28a10.38,10.38,0,1,0,15.09,0h7.81a1.63,1.63,0,0,0,1.64-1.64ZM18.36,87.77a11.39,11.39,0,0,1,9.84,9.65H23.67a5.3,5.3,0,0,1-5.31-5.3V87.77Zm0-3.3V36.93a14.69,14.69,0,0,0,13.2-13.5h53.3V32l-6,3.91a1.64,1.64,0,0,0-.75,1.38V57.48a1.63,1.63,0,0,0,1.64,1.64H93.28a1.64,1.64,0,0,0,1.64-1.64V37.31a1.64,1.64,0,0,0-.75-1.38l-6-3.91V23.43h11a14.68,14.68,0,0,0,13.41,13.51V84.46a14.67,14.67,0,0,0-13.36,13H31.51A14.68,14.68,0,0,0,18.36,84.47ZM86.49,34.86l5.15,3.34V55.84H81.35V38.2Zm26.06,52.88v4.38a5.3,5.3,0,0,1-5.3,5.3H102.5A11.39,11.39,0,0,1,112.55,87.74Zm0-59v4.92a11.42,11.42,0,0,1-10.13-10.23h4.82A5.31,5.31,0,0,1,112.55,28.74ZM53.45,3.83A.55.55,0,0,1,54,3.27H76.61a.55.55,0,0,1,.55.56V8.68a.54.54,0,0,1-.55.55H54a.54.54,0,0,1-.55-.55Zm-7.39,8.44c0-2.41,1.53-4.38,3.42-4.38h.69v.79A3.84,3.84,0,0,0,54,12.51H76.61a3.84,3.84,0,0,0,3.83-3.83V7.89h1c1.88,0,3.42,2,3.42,4.38v7.89H46.06ZM23.67,23.43h4.61a11.41,11.41,0,0,1-9.92,10.2V28.74A5.31,5.31,0,0,1,23.67,23.43Zm.1,97.2a7.1,7.1,0,1,1-7.1-7.1A7.11,7.11,0,0,1,23.77,120.63Zm97.36,0a7.1,7.1,0,1,1-7.09-7.1A7.11,7.11,0,0,1,121.13,120.63Zm6.63-10.37H3.28v-9H127.76Z"/><path class="cls-1" d="M68.19,61.94A10.37,10.37,0,1,0,78.56,72.31,10.38,10.38,0,0,0,68.19,61.94Zm0,17.47a7.1,7.1,0,1,1,7.1-7.1A7.11,7.11,0,0,1,68.19,79.41Z"/></g></g></svg>