<svg xmlns="http://www.w3.org/2000/svg" viewBox="0 0 80.35 56.32"><defs><style>.cls-1{fill:#355d9c;}</style></defs><g id="Layer_2" data-name="Layer 2"><g id="Layer_1-2" data-name="Layer 1"><path class="cls-1" d="M79.67,56.32H.69A.69.69,0,0,1,0,55.63V.69A.69.69,0,0,1,.69,0h79a.68.68,0,0,1,.68.69V55.63A.68.68,0,0,1,79.67,56.32ZM1.37,54.94H79V1.37H1.37Z"/><path class="cls-1" d="M79.67,27.13H.69A.69.69,0,0,1,0,26.44V12.71A.69.69,0,0,1,.69,12h79a.68.68,0,0,1,.68.69V26.44A.68.68,0,0,1,79.67,27.13ZM1.37,25.75H79V13.39H1.37Z"/><path class="cls-1" d="M54.77,47.73a6.7,6.7,0,1,1,0-13.39,6.64,6.64,0,0,1,3.83,1.2.7.7,0,0,1,0,1.13,5.32,5.32,0,0,0,0,8.73.7.7,0,0,1,0,1.13A6.64,6.64,0,0,1,54.77,47.73Zm0-12A5.33,5.33,0,1,0,57,45.87a6.7,6.7,0,0,1,0-9.67A5.3,5.3,0,0,0,54.77,35.71Z"/><path class="cls-1" d="M61.64,47.73a6.64,6.64,0,0,1-3.83-1.2,6.7,6.7,0,0,1,0-11,6.7,6.7,0,1,1,3.83,12.19Zm0-12a5.23,5.23,0,0,0-3,1,5.32,5.32,0,0,0,0,8.73,5.23,5.23,0,0,0,3,1,5.33,5.33,0,0,0,0-10.65Z"/><path class="cls-1" d="M40.18,37.43H11a.69.69,0,0,1-.69-.69.68.68,0,0,1,.69-.68H40.18a.67.67,0,0,1,.68.68A.68.68,0,0,1,40.18,37.43Z"/><path class="cls-1" d="M29.87,47.73H11a.69.69,0,1,1,0-1.37H29.87a.69.69,0,1,1,0,1.37Z"/></g></g></svg>