<svg xmlns="http://www.w3.org/2000/svg" viewBox="0 0 80.7 78.02"><defs><style>.cls-1{fill:#355d9c;fill-rule:evenodd;}</style></defs><g id="Layer_2" data-name="Layer 2"><g id="Layer_1-2" data-name="Layer 1"><path class="cls-1" d="M45.63,13.2,12.09,3.76a.81.81,0,0,0-.81.22L6.12,9.14a.8.8,0,0,0-.24.67.84.84,0,0,0,.38.61L28.4,24.24H1.59a.82.82,0,0,0-.82.82V35.41a.82.82,0,0,0,.82.82c5.65,0,10.33,3.43,10.36,7.8L7.16,42.24a.85.85,0,0,0-.87.19l-6,6.06a.83.83,0,0,0-.24.65.86.86,0,0,0,.36.61l3,2a12.69,12.69,0,0,1-1.76.12.82.82,0,0,0-.82.82V63.09a.82.82,0,0,0,.82.82H18.84l9.44,13.76a.8.8,0,0,0,.6.35.83.83,0,0,0,.66-.24l6.05-6a.83.83,0,0,0,.19-.87l-2.59-7H62.71l4.89,7.85a.84.84,0,0,0,1.29.15l5.16-5.17a.81.81,0,0,0,.21-.8l-.57-2h6.19a.82.82,0,0,0,.82-.82V52.74a.82.82,0,0,0-.25-.59.81.81,0,0,0-.59-.24h-.27c-5.66,0-10.35-3.45-10.35-7.84s4.69-7.85,10.35-7.85h.27a.81.81,0,0,0,.59-.24.82.82,0,0,0,.25-.59V25.06a.82.82,0,0,0-.82-.82H72.44a38.7,38.7,0,0,0,5.37-13.55c.56-3.6.1-6.77-1.8-8.67C73.8-.19,69.85-.44,65.54.56,59.4,2,52.53,5.82,49.38,9,48.65,9.69,47.34,11.18,45.63,13.2ZM31.43,63.91H20.83l8.24,12,5-5Zm40.55,0H64.65l3.8,6.1,4.09-4.09Zm-.69-38a.81.81,0,0,1-1,0H2.42v8.73C8.7,35,13.6,39.12,13.6,44.08c0,3.91-3,7.33-7.43,8.77a.82.82,0,0,1-.86.25,14.29,14.29,0,0,1-2.89.44v8.73H79.05V53.55c-6.42-.22-11.46-4.44-11.46-9.47s5-9.26,11.46-9.48V25.88ZM24.72,59.8h0a.83.83,0,1,0-1.65,0h0a.83.83,0,0,0,1.65,0Zm0-3.3h0a.83.83,0,0,0-1.65,0h0a.83.83,0,1,0,1.65,0Zm0-3.29h0a.83.83,0,1,0-1.65,0h0a.83.83,0,0,0,1.65,0Zm-13-7.5L7.09,44l-5,5,3.45,2.37C8.66,50.35,11,48.28,11.73,45.71Zm13,4.2h0a.83.83,0,0,0-1.65,0h0a.83.83,0,1,0,1.65,0Zm17.76-.3H64.74a.82.82,0,0,0,0-1.64H42.48a.82.82,0,1,0,0,1.64Zm-17.76-3h0a.83.83,0,0,0-1.65,0h0a.83.83,0,0,0,1.65,0Zm17.76-1.31H64.74a.83.83,0,0,0,0-1.65H42.48a.83.83,0,1,0,0,1.65Zm-17.76-2h0a.83.83,0,1,0-1.65,0h0a.83.83,0,0,0,1.65,0Zm0-3.3h0a.83.83,0,0,0-1.65,0h0a.83.83,0,1,0,1.65,0ZM42.48,28.4a.82.82,0,0,0-.83.82V39.74a.83.83,0,0,0,.83.82H64.74a.82.82,0,0,0,.82-.82V29.22a.82.82,0,0,0-.82-.82ZM43.3,30H63.91v8.87H43.3Zm-18.58,6.7h0a.83.83,0,0,0-1.65,0h0a.83.83,0,0,0,1.65,0Zm0-3.29h0a.83.83,0,1,0-1.65,0h0a.83.83,0,0,0,1.65,0Zm0-3.3h0a.83.83,0,0,0-1.65,0h0a.83.83,0,0,0,1.65,0Zm0-3.29h0a.83.83,0,1,0-1.65,0h0a.83.83,0,0,0,1.65,0ZM44.47,14.59,12.1,5.48,8,9.57,31.5,24.24h2.39l-7.41-4.63a.82.82,0,0,1,.87-1.4l9.48,5.92C39.64,20.5,42.29,17.21,44.47,14.59Zm26,9.65a37.35,37.35,0,0,0,5.7-13.8c.47-3,.25-5.67-1.34-7.26a5.8,5.8,0,0,0-3.62-1.49,16.7,16.7,0,0,0-5.31.48c-5.83,1.35-12.38,5-15.36,8-.76.75-2.16,2.34-4,4.5a.18.18,0,0,1,0,.07c-2.12,2.53-4.8,5.84-7.69,9.54ZM55.55,12.31a.82.82,0,0,0,.16.94.84.84,0,0,0,.94.16,6,6,0,0,1,8,8,.82.82,0,0,0,1.09,1.1A7.79,7.79,0,0,0,67.82,21,7.62,7.62,0,0,0,57,10.21,7.53,7.53,0,0,0,55.55,12.31Zm11.24,7.37a7.62,7.62,0,0,0-8.44-8.45,6,6,0,0,1,8.44,8.45ZM22.36,17l2,1.23A.81.81,0,0,0,25.48,18a.82.82,0,0,0-.26-1.13l-2-1.24a.82.82,0,0,0-1.13.26A.83.83,0,0,0,22.36,17Z"/></g></g></svg>