<svg xmlns="http://www.w3.org/2000/svg" viewBox="0 0 58.09 84.36"><defs><style>.cls-1{fill:#355d9c;}</style></defs><g id="Layer_2" data-name="Layer 2"><g id="Layer_1-2" data-name="Layer 1"><path class="cls-1" d="M57.34,31.55c-1.09-1.47-.68-2.58-.19-3.86s1.17-3.18-1-5c-1-.84-.87-1.73-.56-3.12.27-1.2.64-2.86-1.41-3.54-1.47-.48-1.75-1.52-2.06-2.71s-.71-2.69-2.68-2.85c-.87-.08-1.2-.9-1.63-2.28S46.76,4.77,44.4,5.47c-.6.18-1.42-.72-2.21-1.59C40.94,2.51,39.38.8,37.27,1.82c-.73.36-1.71-.14-2.83-.72C32.79.26,30.74-.79,28.69.92c-.51.43-1.26.29-2.42,0-1.4-.35-3.31-.82-4.7,1-.64.84-2,.8-3.43.74-1.9-.08-4.28-.17-4.9,2.38-.5,2-1.78,2.39-3.27,2.8s-3.41.95-3.2,3.86c.11,1.52-1,2.31-2.18,3.13S1.89,16.72,3,18.58c.36.59,0,1.15-1,2.22s-2.24,2.54-.8,4.14c.4.44.17,1.07-.4,2.3s-1.51,3.23,0,4.86c1.33,1.4,1,2.88.75,4.18-.24,1.14-.56,2.72,1.21,3.2.68.19.79,1.12.88,2.65.11,1.72.26,4.08,2.68,4.3.71.07.92.56,1.24,1.75s.9,3.3,3.8,2.62c.74-.17,1.58,1,2.4,2l.46.59L5.53,79a.71.71,0,0,0,1.08.8l8.7-6.14,3.12,10.18a.71.71,0,0,0,.66.5h0a.71.71,0,0,0,.66-.46l8.9-24.23L37.55,83.9a.71.71,0,0,0,.66.46h0a.69.69,0,0,0,.66-.5L42,73.68l8.71,6.14a.71.71,0,0,0,.83,0,.69.69,0,0,0,.24-.79l-8.43-24.7a4.15,4.15,0,0,0,.25-.66c.3-1.11,1-1.29,2.17-1.5s2.77-.49,2.76-2.79c0-1.17.61-1.52,1.71-2.07s2.39-1.19,2.26-3.13c-.06-.78.47-1.17,1.4-1.78,1.13-.75,2.69-1.76,1.8-4.22-.35-1,.13-1.5,1-2.33s2.26-2.17.66-4.3ZM19.15,81.44l-2.79-9.11a.72.72,0,0,0-.44-.46.69.69,0,0,0-.64.09L7.56,77.42,15.35,54.6a2.29,2.29,0,0,0,2.38.64c1.52-.52,2.36.27,3.25,1.12s1.84,1.74,3.24.86c.62-.39,1.21-.19,2.2.2a9.19,9.19,0,0,0,1.4.45L19.16,81.45ZM42,72a.7.7,0,0,0-.64-.09.66.66,0,0,0-.44.46l-2.79,9.11L29.51,57.88a3.62,3.62,0,0,0,1.18-.49,3.31,3.31,0,0,1,2.4.11c1.29.33,3.06.78,3.94-1,.54-1.12,1.44-1.09,2.86-1a5.42,5.42,0,0,0,2.33-.14l7.53,22L42,72ZM55.7,34.83c-.84.82-2,1.94-1.33,3.83.49,1.35-.07,1.78-1.25,2.55-1,.63-2.15,1.41-2,3,.06,1-.44,1.26-1.48,1.78s-2.51,1.24-2.5,3.34c0,1.06-.38,1.17-1.59,1.39s-2.74.49-3.29,2.52c-.24.88-.66,1-2.22.81-1.37-.13-3.27-.3-4.27,1.76-.32.67-.81.66-2.3.27-1.13-.28-2.39-.61-3.49.07s-2,.31-3-.11a5.8,5.8,0,0,0-2-.52,2.6,2.6,0,0,0-1.46.44c-.4.25-.63.15-1.51-.7s-2.35-2.22-4.69-1.42c-.63.21-1.35-.66-2.31-1.94S12.73,49,11.1,49.41,9.36,49.16,9,47.79c-.3-1.1-.71-2.62-2.48-2.78-1.1-.1-1.27-1-1.39-3C5,40.41,4.9,38.57,3.19,38.11,2.81,38,2.71,38,3,36.57s.72-3.5-1.12-5.44c-.83-.88-.47-1.83.22-3.29.59-1.25,1.24-2.66.18-3.85-.52-.57-.27-1,.81-2.25.88-1,2.07-2.34,1.14-3.88C3.84,17.23,4,17,5.4,16c1.24-.86,2.94-2.06,2.77-4.39-.12-1.75.64-2,2.18-2.39s3.57-1,4.27-3.83c.32-1.29,1.3-1.38,3.47-1.3,1.65.07,3.53.14,4.61-1.29.78-1,1.74-.86,3.24-.49,1.21.29,2.57.63,3.67-.29s2.41-.56,4.19.36c1.33.68,2.72,1.39,4.09.72,1.09-.52,2,.31,3.26,1.75,1.09,1.18,2.2,2.41,3.66,2,.88-.25,1.12,0,1.69,1.8.41,1.31,1,3.11,2.86,3.26.9.08,1.09.5,1.42,1.8s.79,3,3,3.7c.74.24.79.47.48,1.88s-.68,3.07,1,4.51c1.39,1.18,1.07,2,.55,3.41s-1.15,3.12.39,5.2c.85,1.14.43,1.55-.51,2.43Z"/><path class="cls-1" d="M29,10.05A18.94,18.94,0,1,0,48,29,19,19,0,0,0,29,10.05Zm0,36.48A17.53,17.53,0,1,1,46.55,29,17.55,17.55,0,0,1,29,46.53Z"/><path class="cls-1" d="M29,6.23A22.77,22.77,0,1,0,51.79,29,22.79,22.79,0,0,0,29,6.23Zm0,44.11A21.36,21.36,0,1,1,50.38,29,21.37,21.37,0,0,1,29,50.34Z"/><path class="cls-1" d="M40,25.85l-7.15-1-3.2-6.48a.74.74,0,0,0-1.27,0l-3.2,6.48-7.15,1a.71.71,0,0,0-.4,1.21l5.17,5-1.22,7.12a.7.7,0,0,0,.28.69.72.72,0,0,0,.75.06L29,36.6,35.41,40a.8.8,0,0,0,.33.08.7.7,0,0,0,.42-.13.69.69,0,0,0,.28-.69l-1.22-7.12,5.17-5a.73.73,0,0,0,.18-.73.72.72,0,0,0-.58-.48Zm-6,5.49a.73.73,0,0,0-.21.63L34.81,38l-5.46-2.87a.62.62,0,0,0-.33-.08.67.67,0,0,0-.33.08L23.24,38l1-6.07a.7.7,0,0,0-.2-.63L19.66,27l6.1-.89a.71.71,0,0,0,.53-.38L29,20.23l2.74,5.54a.73.73,0,0,0,.53.38l6.1.89Z"/></g></g></svg>