<svg xmlns="http://www.w3.org/2000/svg" viewBox="0 0 65.18 76.6"><defs><style>.cls-1{fill:#355d9c;}</style></defs><g id="Layer_2" data-name="Layer 2"><g id="Layer_1-2" data-name="Layer 1"><path class="cls-1" d="M65.17,64.83a18.42,18.42,0,0,0-8.61-12.72,56.93,56.93,0,0,0-14.77-6.64V42.7a16.17,16.17,0,0,0,6.28-12.2,4.27,4.27,0,0,0,.12-8.5,3.17,3.17,0,0,0,2-2.94V14.13A3.2,3.2,0,0,0,48,11.08a16.25,16.25,0,0,0-30.82,0,3.21,3.21,0,0,0-2.19,3v4.93A3.17,3.17,0,0,0,17,22a4.27,4.27,0,0,0,.11,8.5,17.16,17.16,0,0,0,.15,1.91,23.7,23.7,0,0,0-3.08,5.76,24.17,24.17,0,0,0-1.39,11.61c-1.43.74-2.83,1.52-4.14,2.33A18.37,18.37,0,0,0,0,64.83a.91.91,0,0,0,.38.89A59.73,59.73,0,0,0,24.41,76a47.57,47.57,0,0,0,7.81.64,48.9,48.9,0,0,0,8.33-.72h.05a.68.68,0,0,0,.2,0c.05,0,.08,0,.12,0A63.71,63.71,0,0,0,64.78,65.73.91.91,0,0,0,65.17,64.83ZM40.73,47.05c.74.18,1.85.5,3,.88a13.35,13.35,0,0,1-21.91.52,7.18,7.18,0,0,1,.16-.7l.4-.12c.38-.11,1.07-.32,1.59-.46s1.21-.27,1.21-1V43.94a15.54,15.54,0,0,0,7.39,1.9,14.82,14.82,0,0,0,7.41-2v2.29A.93.93,0,0,0,40.73,47.05ZM23.39,45.47l-.65.18c.2-.44.41-.87.65-1.29Zm20.73-8A13.49,13.49,0,0,1,33.24,44,13.78,13.78,0,0,1,18.88,30.19V24.93a10.6,10.6,0,0,0,2.38-2.68H43.92a10.23,10.23,0,0,0,2.38,2.68v4.85A14.56,14.56,0,0,1,44.12,37.49ZM18.88,22.25h.18l-.18.23Zm27.42.24-.19-.24h.19Zm3.89,3.75A2.48,2.48,0,0,1,48.1,28.7V23.79A2.49,2.49,0,0,1,50.19,26.24ZM32.58,1.8A14.56,14.56,0,0,1,46.1,11.08l-.2.05-9.62,3.56a3.93,3.93,0,0,0-7.37,0l-9.65-3.57-.19,0A14.56,14.56,0,0,1,32.58,1.8Zm0,12.13a2.16,2.16,0,1,1-2.16,2.16A2.16,2.16,0,0,1,32.59,13.93Zm-15.82.2A1.4,1.4,0,0,1,18,12.74a1.54,1.54,0,0,1,.67.07l10,3.71a3.94,3.94,0,0,0,7.83,0l10-3.71a1.36,1.36,0,0,1,.67-.07,1.39,1.39,0,0,1,1.21,1.39v4.93a1.38,1.38,0,0,1-1.27,1.38l-.15,0H18.19l-.15,0a1.38,1.38,0,0,1-1.27-1.38ZM15,26.24a2.48,2.48,0,0,1,2.1-2.45V28.7A2.48,2.48,0,0,1,15,26.24Zm.88,12.55a21.32,21.32,0,0,1,1.93-4,15.8,15.8,0,0,0,4.84,7.34c-3.6,5.12-3.31,10.08-1.83,15,1.08,3.56,2.12,7.4,0,10.72a5.46,5.46,0,0,1-1.88,1.77c5.28-4.73-3-12.07-4.17-19A22.3,22.3,0,0,1,15.86,38.79ZM9.58,53.64c1.12-.69,2.31-1.36,3.53-2,.17.81.39,1.6.65,2.45,1.22,4.15,7.6,11,3.91,14.3a1.78,1.78,0,0,0,2,2.9,7.15,7.15,0,0,0,2.61-2.4c1.39-2.15,2.07-5.31,1-9.51-.19-.76-.4-1.48-.61-2.19a15.37,15.37,0,0,0,2,1.22,3.87,3.87,0,0,1,1.86,4.32L23.87,74a58.08,58.08,0,0,1-22-9.47A16.61,16.61,0,0,1,9.58,53.64ZM25.65,74.32l2.6-11.18a5.63,5.63,0,0,0-2.78-6.32,14.58,14.58,0,0,1-3.65-2.7,13.38,13.38,0,0,1-.27-1.78c0-.5,0-1,0-1.45a15.15,15.15,0,0,0,24-2.34c.44.16.88.34,1.34.54-.38.7-.57,1.08-1.3,2.29a14.72,14.72,0,0,1-5.81,5.46,5.63,5.63,0,0,0-2.77,6.3L39.5,74.22A46.28,46.28,0,0,1,25.65,74.32Zm15.62-.4L38.68,62.73a3.83,3.83,0,0,1,1.85-4.3A16.64,16.64,0,0,0,47,52.31c.54-.88.9-1.51,1.18-2.06.09-.15.16-.29.23-.43a74.52,74.52,0,0,1,7.18,3.82,16.63,16.63,0,0,1,7.66,10.91A62.13,62.13,0,0,1,41.27,73.92Z"/><path class="cls-1" d="M27.85,27.06a.9.9,0,0,0,.78.45.92.92,0,0,0,.45-.12.89.89,0,0,0,.33-1.22,3.92,3.92,0,0,0-6.81,0,.9.9,0,0,0,.34,1.22.89.89,0,0,0,1.22-.33A2.12,2.12,0,0,1,26,26,2.09,2.09,0,0,1,27.85,27.06Z"/><path class="cls-1" d="M39.18,24.19h0a3.86,3.86,0,0,0-3.4,2,.89.89,0,0,0,.33,1.22.9.9,0,0,0,1.23-.33A2.09,2.09,0,0,1,39.18,26h0A2.09,2.09,0,0,1,41,27.06a.9.9,0,0,0,.78.45.92.92,0,0,0,.45-.12.89.89,0,0,0,.33-1.22A3.87,3.87,0,0,0,39.18,24.19Z"/><path class="cls-1" d="M37.22,36.25a6.56,6.56,0,0,1-9.26,0,.9.9,0,0,0-1.26,1.28,8.37,8.37,0,0,0,11.79,0,.9.9,0,0,0-1.27-1.28Z"/><path class="cls-1" d="M32.59,35.59a2.4,2.4,0,0,0,2.13-1.28.9.9,0,1,0-1.59-.84.59.59,0,0,1-.54.32.6.6,0,0,1-.54-.32.89.89,0,1,0-1.58.84A2.4,2.4,0,0,0,32.59,35.59Z"/><path class="cls-1" d="M42.94,62.63a.9.9,0,0,0,.31-1.23A.91.91,0,0,0,42,61.09l-1.34.82a.9.9,0,1,0,.93,1.53Z"/><path class="cls-1" d="M44,66.15A.9.9,0,1,0,43,64.61l-1.34.81A.9.9,0,1,0,42.61,67Z"/><path class="cls-1" d="M44,68.13l-1.34.81a.9.9,0,1,0,.93,1.54L45,69.67a.91.91,0,0,0,.3-1.24A.89.89,0,0,0,44,68.13Z"/></g></g></svg>