<svg xmlns="http://www.w3.org/2000/svg" viewBox="0 0 91.17 73.85"><defs><style>.cls-1{fill:#fff;}</style></defs><g id="Layer_2" data-name="Layer 2"><g id="Layer_1-2" data-name="Layer 1"><path class="cls-1" d="M80,13.3H77.88V12c0-6.64-5.75-12-12.82-12H12.21A12.14,12.14,0,0,0,0,12V41.15a12.14,12.14,0,0,0,12.21,12h4.25V65.13a1.9,1.9,0,0,0,1.06,1.71,1.94,1.94,0,0,0,.84.19,1.91,1.91,0,0,0,1.16-.39l8.15-6.27a12.35,12.35,0,0,0,4.93,1H57.7l15.64,12a1.91,1.91,0,0,0,1.16.39,1.87,1.87,0,0,0,.83-.19A1.92,1.92,0,0,0,76.4,72V61.41H80a11.09,11.09,0,0,0,11.15-11V24.29A11.08,11.08,0,0,0,80,13.3ZM18.36,49.39H12.21A8.34,8.34,0,0,1,3.8,41.15V12A8.34,8.34,0,0,1,12.21,3.8H65.06c5,0,9,3.7,9,8.24V41.15c0,4.54-4,8.24-9,8.24H36.37a1.87,1.87,0,0,0-1.16.39L20.26,61.28v-10a1.89,1.89,0,0,0-1.9-1.89Zm69,1A7.28,7.28,0,0,1,80,57.61H74.5a1.9,1.9,0,0,0-1.9,1.9v8.58L59.51,58a1.88,1.88,0,0,0-1.16-.4H32.59a8.11,8.11,0,0,1-1.21-.09L37,53.18H65.06c7.07,0,12.82-5.4,12.82-12V17.09H80a7.29,7.29,0,0,1,7.35,7.2V50.41Z"/><path class="cls-1" d="M24.69,25.53A6.65,6.65,0,1,0,18,32.18,6.65,6.65,0,0,0,24.69,25.53ZM18,28.38a2.85,2.85,0,1,1,2.85-2.85A2.85,2.85,0,0,1,18,28.38Z"/><path class="cls-1" d="M38.94,32.18a6.65,6.65,0,1,0-6.65-6.65A6.67,6.67,0,0,0,38.94,32.18Zm0-9.5a2.85,2.85,0,1,1-2.85,2.85A2.86,2.86,0,0,1,38.94,22.68Z"/><path class="cls-1" d="M59.83,32.18a6.65,6.65,0,1,0-6.65-6.65A6.66,6.66,0,0,0,59.83,32.18Zm0-9.5A2.85,2.85,0,1,1,57,25.53,2.86,2.86,0,0,1,59.83,22.68Z"/></g></g></svg>