<svg xmlns="http://www.w3.org/2000/svg" viewBox="0 0 111.03 143.83"><defs><style>.cls-1{fill:#005da3;}</style></defs><g id="Layer_2" data-name="Layer 2"><g id="Layer_1-2" data-name="Layer 1"><path class="cls-1" d="M110.54,1.39A2.63,2.63,0,0,0,108.79.33,39.43,39.43,0,0,0,103.56,0C93.19,0,86.47,3.68,84.63,10.36l-.4,1.42c-.54,1.88-.54,1.88-1.94,10.24l-.37,2.16c-.62,3.73,1.46,6.47,3.13,8.67,1.51,2,2.44,3.32,2.19,4.87-1.32,8.15-3,18.24-4.57,26.92a22.28,22.28,0,0,0-9.57-2H67.58v-.1A2.61,2.61,0,0,0,65,60H50.46a18.41,18.41,0,0,0,.87-5.52V19.18A18.9,18.9,0,0,0,32.44.3H18.89A18.9,18.9,0,0,0,0,19.18V54.44A18.91,18.91,0,0,0,18.89,73.33H65a2.62,2.62,0,0,0,2.62-2.62V67.9H73.1a15.79,15.79,0,0,1,8.62,2.16c-.89,5-1.64,9.23-2.06,11.6H21.57a2.61,2.61,0,0,0-1.85.77c-.64.63-6.19,6.7-6.19,23.54a2.61,2.61,0,0,0,2.61,2.61H32.51v9c-3.61,1.35-10.84,5-10.84,12.74v10.85a2.61,2.61,0,1,0,5.22,0V130.37c0-5.4,7.16-7.8,8.6-8.23H67.31c1.43.43,8.6,2.87,8.6,8.23v10.85a2.62,2.62,0,0,0,5.23,0V130.37c0-7.72-7.24-11.39-10.85-12.74v-9H89.82a2.61,2.61,0,0,0,2.57-2.15L111,3.38A2.6,2.6,0,0,0,110.54,1.39ZM5.23,54.44V19.18A13.66,13.66,0,0,1,18.89,5.53H32.44A13.67,13.67,0,0,1,46.11,19.18V54.44A13.28,13.28,0,0,1,44.91,60H35.13a3.85,3.85,0,0,0-1.15.18l-.22.06a4.2,4.2,0,0,0-.92.47l-.14.12a4.36,4.36,0,0,0-.69.67l-.11.12a6.29,6.29,0,0,0-.6.94,1.63,1.63,0,0,0-.11.23,9.63,9.63,0,0,0-.46,1.09s0,0,0,.06c-.13.39-.23.78-.33,1.18l-.06.26c-.09.41-.16.82-.23,1.24l0,.25c0,.38-.1.75-.13,1.13a.59.59,0,0,1,0,.13h-11A13.66,13.66,0,0,1,5.23,54.44ZM62.35,68.1H35.2c0-.13,0-.27,0-.4l0-.26c.07-.43.14-.82.22-1.18,0-.06,0-.11,0-.17a8.47,8.47,0,0,1,.27-.9H62.35V68.1Zm24,8.21a4.13,4.13,0,0,0-.58.91c.1-.56.2-1.15.31-1.75C86.17,75.76,86.27,76,86.34,76.31Zm-21.28,40.6H37.74v-8.33H65.06Zm22.57-13.56H18.81c.39-9.77,2.91-14.71,4.05-16.47h59a2.61,2.61,0,0,0,2.57-2.15c0-.07.4-2.21,1-5.64a3.94,3.94,0,0,0,6,3.13Zm4.86-26.93a4.11,4.11,0,0,0-1-.9,16.49,16.49,0,0,0-4.13-7.59c1.61-9.17,3.55-20.44,5-29.37.62-3.84-1.49-6.62-3.18-8.86-1.48-1.95-2.37-3.22-2.13-4.66l.36-2.15c1.36-8.07,1.36-8.07,1.81-9.65l.42-1.5C91.23,6.07,99,5.22,103.56,5.22c.64,0,1.24,0,1.77,0Zm-58-42L20.89,50.69a2.61,2.61,0,1,1-4-3.35L30.43,31.07a2.62,2.62,0,0,1,4,3.35Zm-17.24.33a2.61,2.61,0,0,1-.33-3.68L30.43,14.8a2.61,2.61,0,1,1,4,3.34L20.89,34.42a2.61,2.61,0,0,1-3.68.33Z"/></g></g></svg>