<svg xmlns="http://www.w3.org/2000/svg" viewBox="0 0 286.65 286.66"><defs><style>.cls-1{fill:#4abe20;}</style></defs><g id="Layer_2" data-name="Layer 2"><g id="Layer_1-2" data-name="Layer 1"><path class="cls-1" d="M19.11,52.56a19,19,0,0,0,6.46-1.13,28.67,28.67,0,0,0,34.85,0,19.11,19.11,0,1,0,7.42-37.07,28.67,28.67,0,0,0-49.68,0,19.11,19.11,0,0,0,.95,38.2Zm0-28.67a9,9,0,0,1,1.27.09,4.8,4.8,0,0,0,5.06-2.85,19.11,19.11,0,0,1,35.12,0A4.78,4.78,0,0,0,65.62,24a8.93,8.93,0,0,1,1.27-.09,9.56,9.56,0,0,1,0,19.11,9.37,9.37,0,0,1-4.82-1.3,4.77,4.77,0,0,0-5.76.68,19.1,19.1,0,0,1-26.62,0,4.79,4.79,0,0,0-5.77-.68A9.34,9.34,0,0,1,19.11,43a9.56,9.56,0,0,1,0-19.11Z"/><path class="cls-1" d="M133.77,19.12c2.57,0,3.46,1,4,2a7.08,7.08,0,0,1,.79,2.81,4.78,4.78,0,1,0,9.55.05,7.15,7.15,0,0,1,.79-2.86c.53-1,1.42-2,4-2a4.78,4.78,0,0,0,0-9.56,13.86,13.86,0,0,0-9.55,3.36,13.91,13.91,0,0,0-9.56-3.36,4.78,4.78,0,0,0,0,9.56Z"/><path class="cls-1" d="M109.88,51.14a13.88,13.88,0,0,0-9.55-3.36,4.78,4.78,0,1,0,0,9.56c2.57,0,3.46,1,4,2a7.25,7.25,0,0,1,.79,2.81,4.78,4.78,0,1,0,9.55,0,7.31,7.31,0,0,1,.78-2.86c.54-1,1.43-2,4-2a4.78,4.78,0,0,0,0-9.56A13.91,13.91,0,0,0,109.88,51.14Z"/><path class="cls-1" d="M143.33,286.66A143.33,143.33,0,0,0,286.65,143.33a4.78,4.78,0,0,0-4.78-4.78H243.65V117.44a34.63,34.63,0,0,0,11.67,2c17.27,0,31.33-12.52,31.33-27.93A25.83,25.83,0,0,0,281,75.44,22.42,22.42,0,0,0,284.12,64c0-10.18-6.79-19.08-17.15-22.81-4.4-10.27-15.57-17.25-28.09-17.25s-23.7,7-28.1,17.25a26.39,26.39,0,0,0-14,11.24,25.47,25.47,0,0,0-20-9.38c-10,0-18.93,5.5-22.64,13.64-8.24,3.14-13.62,10.35-13.62,18.58a18.49,18.49,0,0,0,2.26,8.85,21,21,0,0,0-4.22,12.59c0,12.56,11.41,22.78,25.43,22.78a27.86,27.86,0,0,0,8-1.15v20.26H150.54l-29.67-41A16.61,16.61,0,0,0,97.65,94a16.24,16.24,0,0,0-2.81,2.62l-13.67-18a18.22,18.22,0,0,0-25.59-3,18.6,18.6,0,0,0-3,3l-45.43,60H4.78A4.78,4.78,0,0,0,0,143.33,143.33,143.33,0,0,0,143.33,286.66Zm47.94-79.48c-3.78-16.4-13.6-29.08-27-34.8-19.26-8.25-28.33-18.1-32.41-24.27h82.31c2.36.84,11.57,4.62,16.06,13.63,3.69,7.38,3.47,16.7-.65,27.69-8.51,22.68-8.4,38.63.66,55.55a132.51,132.51,0,0,1-53.85,28C190.6,252.11,196.12,228.24,191.27,207.18Zm46.65,30.74-.33.32c-7.46-15.52-5.29-28.74,1-45.46,5.11-13.63,5.18-25.55.2-35.43a34.32,34.32,0,0,0-6.85-9.24H277A132.83,132.83,0,0,1,237.92,237.92ZM206.2,79.29a4.79,4.79,0,0,0,.35-6.58A13.42,13.42,0,0,1,203.18,64c0-6.57,5-12.34,12.51-14.35A4.8,4.8,0,0,0,219,46.39c2.34-7.62,10.51-12.94,19.86-12.94s17.51,5.32,19.86,12.94a4.78,4.78,0,0,0,3.32,3.21c7.48,2,12.51,7.78,12.51,14.35a13.42,13.42,0,0,1-3.37,8.76,4.79,4.79,0,0,0,.35,6.58,16.84,16.84,0,0,1,5.55,12.22c0,10.14-9.77,18.38-21.78,18.38A24.36,24.36,0,0,1,243.65,107v-8.9L255.86,90a4.78,4.78,0,0,0-5.3-8l-6.91,4.6V76.45a4.78,4.78,0,1,0-9.55,0V86.63L227.19,82A4.78,4.78,0,0,0,221.85,90l0,0,12.21,8.13V107a24.35,24.35,0,0,1-11.66,2.88c-12,0-21.78-8.24-21.78-18.38a16.79,16.79,0,0,1,5.54-12.22ZM164,109.89c-8.75,0-15.88-5.93-15.88-13.23a12.06,12.06,0,0,1,4-8.74,4.76,4.76,0,0,0,.35-6.57,9.37,9.37,0,0,1-2.36-6.13c0-4.62,3.59-8.7,8.94-10.13a4.8,4.8,0,0,0,3.33-3.21c1.69-5.49,7.62-9.32,14.43-9.32s12.74,3.83,14.43,9.32a4.79,4.79,0,0,0,2.46,2.87,22.43,22.43,0,0,0,3.13,10.69,25.51,25.51,0,0,0,.52,32.74,18.4,18.4,0,0,1-7.76,1.71,18,18,0,0,1-8-1.82V86A4.78,4.78,0,0,0,172,86v6.6l-2.64-1.32a4.78,4.78,0,0,0-4.27,8.55l6.91,3.46v4.78A18,18,0,0,1,164,109.89Zm17.57,8.4a27.79,27.79,0,0,0,8,1.15A27.48,27.48,0,0,0,205,114.73a33.91,33.91,0,0,0,17.4,4.71,34.61,34.61,0,0,0,11.66-2v21.11H181.55Zm-74.06-18a6.85,6.85,0,0,1,5.64,2.82l25.62,35.4H76.24l25.62-35.4A6.85,6.85,0,0,1,107.49,100.33Zm-47.27-16a8.69,8.69,0,0,1,12.22-1.12,7.83,7.83,0,0,1,1.11,1.12L89,104.68l-24.5,33.87H19.17ZM121,148.11c3.14,6.75,12.72,21.54,39.6,33.06,10.52,4.5,18.32,14.76,21.4,28.15,4.9,21.22-2.41,45.94-19.55,66.43a135.24,135.24,0,0,1-19.07,1.35,133.77,133.77,0,0,1-133.69-129Z"/></g></g></svg>