<svg xmlns="http://www.w3.org/2000/svg" viewBox="0 0 90 87"><defs><style>.cls-1{fill:#005d9f;fill-rule:evenodd;}</style></defs><g id="Layer_2" data-name="Layer 2"><g id="Layer_1-2" data-name="Layer 1"><path class="cls-1" d="M89.59,40.18c-.88,1.66-5.52,7-7.4,5.06s.61-4-1.84-4.54-.86,3.43-3.75,3.43-4.36-.22-5.16-3.43,2.19-5.71-.61-7.1S63,33.42,63,36.06s3.55,4.21,3.55,5.89,1.65,3.79,3.27,4.86,1.08,3.9,3.53,3.9,4.31-2.25,5.66-1.5,7.21,1.46,7.21,4.27S88.9,69.15,79,76.33c-1.94,1.41-2.85-.83-3.66,3.61S57,89,53.69,86.09s.16-7.12-2.92-11.36-9.72-4.32-10.58-10.15S31.64,57,31.64,54.05s.59-6.51-1.23-6.87-.24,4.59-3.75,3.1-5.23-6.61-3.6-5.83,6.24-1.13,6.24-3.75,1.7-5.59,1.41-8.52-1.54-4-.92-5.91.75-3.06-1.19-3.06-1.89,2.94-5.23,2.29-4,.73-5.17-.78-2.77-1.93-3.32.78-2.78,3-3.24,1.11,0-2.82-3.5-2.82S6.46,21,5.69,19.1s-1.75-1.18-2.48-2.56.43-2.39,1.32-3.23S4.35,11,3.18,10.67A4,4,0,0,1,.64,9.35c-.76-1-.8-2.14-.34-3.82C1,3,.91,2.36,3.18.43,5.05-.74,6,.72,7.6,1.8a9.92,9.92,0,0,0,6.54,1.09A6.94,6.94,0,0,0,17.81.43c.8-1.07,4.11.34,5.53,0S27.75-.83,29.62,1.8s3.29,1.88,4.93.8,3.77-2.23,4.57-.37,2,3.34,4.38,2.24,4.73-2.24,6-2.24S52.8,2,53.85.43A17.31,17.31,0,0,0,57.65,3c1.55.71,2.32,1.87,4.59,1.1a3,3,0,0,0,1.28-.88c3.62,0,8.18-2.08,10.06-1.84,2.82.36,3.79,3.16,5.34,4.25s4.51.73,3.82,6.43S85,19.48,85,21.59a10.15,10.15,0,0,0,2.11,5.76c1.08,1.37-.15,3.2,1.59,6C89.85,35.15,90.46,38.52,89.59,40.18Z"/></g></g></svg>