<svg xmlns="http://www.w3.org/2000/svg" viewBox="0 0 200 200"><defs><style>.cls-1{fill:#005da2;}</style></defs><g id="Layer_2" data-name="Layer 2"><g id="Layer_1-2" data-name="Layer 1"><path class="cls-1" d="M99.56,191.62l9.31,3.45,11.58-2.33a2.14,2.14,0,0,1,2.41,2,2.42,2.42,0,0,1-1.7,2.81L109.07,200a1.83,1.83,0,0,1-1-.07l-11.18-4.15-.24-.1-.12-.06-9.62-5.38a2.22,2.22,0,0,1-1-1.09l-5.47-12.48c-.83-1.92.71-4.06,2.47-3.43l1.69.6-1.77-6.61a2.84,2.84,0,0,1-.09-.72V160.1l-.8.33c-1.35.55-2.78-.62-2.78-2.3v-4.59L77.65,151l-2.31,1.08L68,160.84v4.65a2.71,2.71,0,0,1-.4,1.44l-3.58,5.64a2,2,0,0,1-3.64-.65l-5.71-19.27-5.8-6.13L43.09,146l.41.7a2.75,2.75,0,0,1,0,2.8l-4.63,7.6a2.19,2.19,0,0,1-.79.78L30.73,162l-.34.15L23,164.64a2,2,0,0,1-2.54-1.53l-2.23-7.35-8.08-15.23a2.79,2.79,0,0,1-.29-1.64l1.36-10.52L2.89,127.2a2.28,2.28,0,0,1-1.82-2.08l-1-8.83a2.27,2.27,0,0,1,2.41-2.73l5.83,1.14,3.11-1.07a1.78,1.78,0,0,1,.94-.07l5,1,.08-.1-3.19-4.26a2.75,2.75,0,0,1-.4-2.37l2.31-8.09.06-.19,3.19-8.61V82.12A2.64,2.64,0,0,1,20,80.33l5.47-5.88a2,2,0,0,1,.68-.49l13-5.64,2.31-15.79a2.48,2.48,0,0,1,1-1.71l7.14-4.67-1.81-6.7a2.89,2.89,0,0,1,0-1.57l2.31-7.35a2.35,2.35,0,0,1,.65-1.06l3.15-2.95a1.87,1.87,0,0,1,2.21-.29l4.13,2.31,4.45-3.8a2,2,0,0,1,.62-.36l6.24-2.24L71.31,21A2.68,2.68,0,0,1,72,18.46l8.61-8.34a2,2,0,0,1,1-.53l7.16-1.32L93.51,1a1.89,1.89,0,0,1,2.7-.63l9.46,6.37a2.42,2.42,0,0,1,.9,1.23l2.52,7.6a2.77,2.77,0,0,1-.38,2.49l-3.25,4.29h5.68a1.83,1.83,0,0,1,1,.29L116,25l.4-1.16A2,2,0,0,1,119,22.47l4.41,2a2.26,2.26,0,0,1,1.14,1.23l3.06,7.47,1.07-1.41a1.9,1.9,0,0,1,2-.76l4.79,1.3,2-4A2,2,0,0,1,139.69,27l8.62,2a2,2,0,0,1,1,.63l4.86,5.45h5.88a2.06,2.06,0,0,1,1.81,1.22l1.8,3.63,5.94,1,3.85-2.14a1.78,1.78,0,0,1,1.21-.2l6.73,1.22a2,2,0,0,1,.83.38l13.24,10.3.27.25,3.57,3.93a2.72,2.72,0,0,1,.25,3.21L196,63.46a1.91,1.91,0,0,1-2.59.74l-5.87-3.33-1.13,1.59,1.45,4.31A2.54,2.54,0,0,1,186.47,70l-7.32,2.25L176,76.79a2,2,0,0,1-1.62.9H168l-1,2.94V86a2.68,2.68,0,0,1-.46,1.53l-6.93,10.05a2,2,0,0,1-3.56-.61l-4.44-12.75a2.78,2.78,0,0,1,.25-2.34L157,73.6l-.14-.21-6.14,4.86a2,2,0,0,1-.91.4l-7.47,1.12-6.72,8,.8,1,4.55-1c1.54-.33,2.83,1.35,2.38,3.09l-3.57,13.86a2.68,2.68,0,0,1-.41.87l-7.56,10.42a2,2,0,0,1-1.59.86h-2.07l-1.94,3.26,2,3.65h4.29L142,108a1.91,1.91,0,0,1,3.22-.29l4.16,5.09a2.76,2.76,0,0,1,.32,2.84l-6.52,14a2.2,2.2,0,0,1-.86,1l-8.54,5.2-5.68,3.8a1.94,1.94,0,0,1-2.88-1l-1.5-3.32-5.3-2.14a2.32,2.32,0,0,1-1.35-1.74l-1.35-6.68-4-.57-.88,2.22,2.54.9a2.61,2.61,0,0,1,.77,4.15l-1.69,1.74,3.68,3.35a2.7,2.7,0,0,1,.61,2.93l-2.31,5.9a2.29,2.29,0,0,1-.91,1.13l-9,5.66a1.87,1.87,0,0,1-1,.29h-3.48l-.09.18,3.58,5.77a2.8,2.8,0,0,1,.16,2.55l-2.94,6.62a1.94,1.94,0,0,1-3,.94L94,165.73l1.24,3.72,1.89,7.33a2.81,2.81,0,0,1,0,1.32l-.92,4.13,2.54,2.45a2.61,2.61,0,0,1,.76,1.88v5.06ZM31.25,131.28l-2.08,5.84,2.08,6.32L37.5,141Zm86.16,48.64a2.66,2.66,0,0,1-.51,3.93l-6.72,3.92a1.81,1.81,0,0,1-1.28.22l-6.3-1.22a2.24,2.24,0,0,1-1.67-1.79l-1.48-6.62a2.54,2.54,0,0,1,1.33-2.91l3.82-1.56,5-5.08a1.89,1.89,0,0,1,2.93.2l1.89,2.45a2.76,2.76,0,0,1,.11,3.09l-.78,1.22ZM131.25,191a2,2,0,0,1-1.68-1l-4.15-6.62a2.69,2.69,0,0,1,.54-3.46l3.15-2.43a1.83,1.83,0,0,1,2.2-.07l2,1.38h5a1.73,1.73,0,0,1,.64.12l11.25,4.29a2.44,2.44,0,0,1,1.43,2.31v8.44a2.19,2.19,0,0,1-2.53,2.38L144,195l-3.9,1.3a1.94,1.94,0,0,1-2.23-.85L134.91,191ZM113.36,162.2a2.65,2.65,0,0,1-.52-1.61v-6.13a2.11,2.11,0,1,1,4.16,0v5.2l4.52,5.93a2.69,2.69,0,0,1,.53,1.62v3.43a2.11,2.11,0,1,1-4.17,0v-2.51Z"/></g></g></svg>