<svg xmlns="http://www.w3.org/2000/svg" viewBox="0 0 200 200"><defs><style>.cls-1{fill:#005da2;fill-rule:evenodd;}</style></defs><g id="Layer_2" data-name="Layer 2"><g id="Layer_1-2" data-name="Layer 1"><polygon class="cls-1" points="95.54 193.74 88.05 192.61 85.77 181.15 80.74 166.13 76.57 166.13 73.81 172.65 68.51 166.13 67.9 159.72 62.63 151.67 56.96 151.67 56.96 155.63 46.43 155.63 34.72 147.03 34.72 144 25.98 144 23.4 135.3 17.91 133.08 13.46 129.85 13.46 123.28 9.59 117.13 9.59 109.99 7.95 102.92 4.86 100.78 0 82.34 2.03 77.73 2.03 69.51 0 63.68 2.03 46.1 2.03 32.13 0 17 0 10.23 4.86 12.15 4.86 4.63 101.36 4.63 102.31 0 103.7 2.01 104.61 8.03 109.83 8.03 111.16 12.15 113.07 12.15 114.82 13.79 116.89 12.15 121.07 13.79 127.55 13.79 137.47 25.25 139.47 29.7 143.11 35.85 145.75 39.66 147.43 54.06 145.75 62 144.31 66.56 144.31 70.64 147.43 69.51 157.97 63.68 157.97 56.32 165.77 54.06 170.93 44.01 184.03 42.88 184.03 39.66 187.43 38.13 191.98 20.13 193.57 21.84 196.22 21.84 197.7 35.85 200 46.1 187.43 58.4 186.4 73 181.32 75.78 175.52 79.72 175.52 87.32 173.75 94.71 170.93 100.78 166.86 102.92 169.2 114.84 169.2 123.28 164.84 128.22 162.16 133.08 157.11 139.91 152.06 147.03 150.38 159.72 152.06 176.54 154.63 186.06 154.63 197.75 151.44 200 145.14 184.93 145.14 172.65 141.77 163.37 137.47 166.13 131.15 159.72 121.07 163.37 121.07 167.64 116.89 172.65 113.07 166.13 103.09 168.77 95.54 181.15 94.07 189.45 95.54 193.74"/></g></g></svg>