<svg xmlns="http://www.w3.org/2000/svg" viewBox="0 0 200 200"><defs><style>.cls-1{fill:#005da2;}</style></defs><g id="Layer_2" data-name="Layer 2"><g id="Layer_1-2" data-name="Layer 1"><path class="cls-1" d="M194.67,138c-1.31.45-1.34,2.87-2,3.45s-2.43,1.32-2.83,2.21-1.06,2.38-2.52,2.86-2.08,2-4.25,2.35-3.33,1.3-3.59,2a8,8,0,0,1-1.21,2.49c-.58.64.89,4.46.26,5.88s-3.88,4.5-4.36,6.16,1.12,4.76.74,5.68c-.81,1.92.2,4,2.57,4.89,2.2.84,3.39-1.21,5.51-1.65,3.46-.73,7.4-13.57,8.61-15.14s1.68-6,2.78-7.24,2.57-1.51,2.67-4.3S196.46,137.44,194.67,138Zm3.69-70.87c-2.85.41-4.53,2.84-8.34,2.75s-5.94,2.74-8.54,2.83-6.22-2.43-4.87-3.87-2.07-3.78-4.29-5.48-7.53-2.88-8.2-6.21-1.35-4.32-3.37-5.94-2.9-.9-3.77-6.12-2.7-5.48-4.91-7.91-2.32-5.13-6.66-10.8,1.33.45,1.83-3.46-.94-6.41-2.09-7.42S141.89,17,140.3,16a6.36,6.36,0,0,0-6.07-.34c-2.25,1.08-4.34,1.35-9.48.07s-8.39,0-11-1.89-7.37.07-6.51,2.3-1.08,5.12-5.13,2.29-4-1-5.57-1.68-.73-3.24-5-4.19-3.83.74-7.23-1.68S82.44,8.12,83.52,7,85.7,3.12,82.23.83s-5.8,1-9.63.41-7-.86-10.89,0C59.28,1.83,51,5.55,46.63,3.9s-4.63-2.19-6-.27S37.41,7.49,35.17,8c-3.9.91-4.89,2.9-5.79,5.5s.44,4.85-5.1,6.54-5.46,2.73-7.16,4.86S13,28,11.7,31.06s-5.65,4.38-6.91,8.67S5,45,5.15,47.22a10.85,10.85,0,0,1-1.52,6.2c-1.16,2.13,0,3.28-2.57,5.27-1.91,1.5-.94,4.55.55,7C4.08,69.88,10.36,75,10.32,76.5a6.56,6.56,0,0,0,4.09,6.44c3.73,1.55,4.63,3.27,6.29,5.23a6.87,6.87,0,0,0,9,1.35c3.62-2.36,8.57-1.22,11-.31s4.08,1,7.7-1.21A17.6,17.6,0,0,1,60,85.84c3.76.5,3.58,6.34,7.3,5.73S73,90.26,74.12,91s1.3,1.79,2.86,2.66.79,4.86.18,5.91-.94,5.7-2.28,6.64,3.8,5.47,5.57,7.56,6.43,9,7.63,12.51-.87,3,1.55,7.83-4.48,6.24-4.23,10.39-4.26,4.45-.58,10.83,6.66,9.31,7.24,11.84-.65,3,.58,5.26.47,5.06,1.48,6.72A10,10,0,0,0,96,181.69a14,14,0,0,1,3.76,6.48c.38,1.79,3.08,3.05,2.89,4.67s-1.63,3.92,1.25,5.85c1.55,1,2.42,2,4.92.68s8-1.49,9.94-.91,3.13-.89,4-1.07,3.57.9,8.92-4.19,8.1-7.91,9.69-9,2.94-5,2.89-6.38.61-2.48,5.84-4.32c2.55-.9,2.07-2.7,2.26-5s-2.5-7.33-.72-8.72,8.15-6.48,10.27-7.16,7.62-2.92,7.67-6.29.29-11.83-.43-13.14-3-3.14-2.61-6.25.24-3.78-.72-4.85.14-4.41.91-5.54,8-10.89,10.23-13.27,15.43-11.92,17.31-18.17S200,74,199.71,71.44,201.2,66.77,198.36,67.17Z"/></g></g></svg>