<svg xmlns="http://www.w3.org/2000/svg" viewBox="0 0 488 426.1"><defs><style>.cls-1{fill:#005d9f;}</style></defs><g id="Layer_2" data-name="Layer 2"><g id="Layer_1-2" data-name="Layer 1"><path class="cls-1" d="M408.78,133.71c2.48,11.66,2.56,15.77-1.83,17.16-4,1.25-9.89-5.68-15.09-11.8-7.81-9.19-17.52-20.63-28.77-12.95-9.62,6.56-5.3,20.82-.3,37.34,5.07,16.76,10.81,35.75,3.38,49.12-9.21,16.56-24.69,17.88-38.34,19-7.57.65-14.71,1.26-19.8,4.58-12.9,8.43-13.41,32.32-9.38,42a43.52,43.52,0,0,0,5.4,8.69c5,6.76,5.53,8.62,3.24,11.1-2.08,2.23-5.4,1.7-10.64.64-5.54-1.12-12.43-2.51-17.36,2.83-10,10.85-4.78,54.75-1.79,65,3.41,11.7,12,27.48,24.85,33.44,4.07,1.88,9.36,2.87,14.48,3.82,12.27,2.28,17.32,4,16.82,8.57a4,4,0,0,1-2.41,3.25c-7.68,4.37-27.58,1.44-39.57-4-13.51-6.13-31.53-32.74-35.71-52.72-2.1-10,1.23-23.84,4.17-36,3-12.47,5.6-23.25,3.29-30.85-3.12-10.24-9.8-13.45-15.17-16-3-1.43-5.56-2.67-7.43-4.9-2.28-2.71-2.17-7.51-2-12.59.13-5.78.28-12.33-3.25-17.56-3.24-4.8-9.34-8.1-16.74-9.06a32.72,32.72,0,0,0-4.28-.28c-6.32,0-12.1,1.86-16,5.27-5.75,5-6.46,11.29-7,16.33-.4,3.51-.75,6.54-2.54,8.79-1.59,2-4.45,3.35-7.48,4.78-5.78,2.74-13,6.15-14.62,15.78-1.15,6.71,2.93,15.18,7.25,24.14,3.7,7.68,8.76,18.19,6,21.37-.58.66-1.52,1.37-3.7,1.07-7.67-1-20.31-13-24.52-21.58-3.08-6.27-2.74-13.39-2.44-19.68.22-4.52.43-8.79-.7-12.32-1.39-4.38-5.08-7.81-9-11.43-3.18-3-6.47-6-8.08-9.33-2.15-4.43-2.24-8.38-2.34-13a44,44,0,0,0-1.48-12.25c-3-10.2-15.9-23.13-28.62-25.17-6.91-1.11-12.47,1.85-16.94,4.22-3.73,2-6.11,3.16-7.85,2.34-1.25-.59-2.05-2.71-2.15-5.67-.22-7.34,3.8-16.35,8.44-18.9,3.57-2,8.1-1.22,12.89-.44,5.94,1,12.67,2.08,17.87-2.7,5.77-5.32,5.57-11.88,5.4-17.15-.1-3.32-.18-6.19,1.05-8.3,1.56-2.65,4.68-3.87,8.3-5.28,5.18-2,11.63-4.54,12.81-12.61.73-5-1.36-9.68-5.87-13.22-7-5.45-18.07-6.93-26.46-3.52-5.61,2.29-9.79,6.84-13.82,11.24-5.82,6.35-9.76,10.16-15.27,9.44-5-.64-7.24-4.91-10.35-11.85-2.34-5.22-4.76-10.62-9.82-12.91-3.44-1.55-7.54-1.41-11.51-1.29-6.81.22-9.38-.15-10.31-2.66-1-2.82,1.9-11.7,4.06-18.19C44,83.65,49,68.62,38.48,64.06,30.56,60.63,24.17,66.79,19,71.74c-4.92,4.75-8.41,7.78-11.83,6.62C4.54,77.47,2,73,.82,67-1.35,56.19.63,41,8.56,34c6.51-5.72,13.26-3.45,23.62,1,6.09,2.6,12.39,5.29,18.31,4.09C58,37.55,63,28.8,68.28,19.54,73.12,11.09,78.6,1.51,84.92.3c7.87-1.49,12.7,2.76,18.81,8.14,3.73,3.28,7.57,6.67,12.41,8.77,6.6,2.85,14.09,2.4,21.34,2,7-.42,14.31-.85,20.67,1.72,5.78,2.34,8,9,10.14,15.47,2.23,6.71,4.53,13.65,11.27,15.4,8.21,2.14,13-3.14,16.85-7.39,2.47-2.71,4.79-5.27,7.84-6.25,3.46-1.1,6.48.45,11.11,3.07,4,2.24,8.46,4.79,14.06,4.91,6.54.12,11.14-3.71,15.59-7.43,4.13-3.46,8-6.72,13.74-7.51,4.56-.63,12.55,1.61,21,4,14.21,4,31.9,9,48.65,5.54,17.47-3.57,22.81-12.62,27.11-19.88,2.6-4.41,4.65-7.89,9-9.72,2.9-1.22,7.42-.68,12.72,1.53,12.54,5.23,25.65,17.68,28.56,24.91,1.94,4.79,1.17,10.63.43,16.28-1,7.38-2,15,3.52,20.08,4.48,4.13,11.58,4.44,18.46,4.74,9.28.4,13.25,1.1,13.79,4.38.64,3.82-7.81,8.91-14.59,13-8.64,5.21-17.58,10.6-19.85,18.3C405.88,120.1,407.35,127,408.78,133.71Z"/><path class="cls-1" d="M340.32,354.93c-1,10.29-4.89,19.38-9.08,21.14-5.51,2.32-18.38,1-22.19-3.23-2.64-2.92-5.11-9.48-4.59-14.59.1-1,.43-2.85,1.52-3.64,1.48-1.1,2.35-1,4.44-.71a15.87,15.87,0,0,0,12.82-3c4.77-3.37,6.52-9.11,8.05-14.18,1.83-6,2.77-8,4.76-8a1.85,1.85,0,0,1,1.52.74C340.38,332.51,341.48,342.76,340.32,354.93Z"/><path class="cls-1" d="M363.37,300.86a2.58,2.58,0,0,1,1.32-.31c2.89,0,8,3.22,11.86,9.9,4.54,7.87,4.05,14.85,1.72,16.2-1.12.65-3.07.27-5.23-1a26.34,26.34,0,0,1-11.4-19.75C361.61,303.38,362.26,301.5,363.37,300.86Z"/><path class="cls-1" d="M371,259.07a24,24,0,0,1,9.13-7.31,9.28,9.28,0,0,1,3.4-.78,3.08,3.08,0,0,1,1.92.54c2.11,1.68,1.56,8.66-4.1,15.78a24.16,24.16,0,0,1-9.12,7.31c-2.33.94-4.32,1-5.32.23C364.82,273.16,365.36,266.18,371,259.07Z"/><path class="cls-1" d="M324.78,260.56a7.14,7.14,0,0,1,5.82-3.77,4.27,4.27,0,0,1,2.1.54,4.69,4.69,0,0,1,2.15,3.27,8,8,0,0,1-5,8.66,4.36,4.36,0,0,1-6.06-3.5A7.63,7.63,0,0,1,324.78,260.56Z"/><path class="cls-1" d="M388.8,370.47c-4.16,1.84-9.85,4.36-12.14,11.39s1,12.65,3.45,16.64c2.34,3.82,3.13,5.45,2.12,7.47-.69,1.37-3.21,2.1-6.45,1.85-6.72-.51-14.94-5-17.08-11.69-3.75-11.66,7-28.68,15.6-32.35a28,28,0,0,1,10.62-2.19,13.42,13.42,0,0,1,7.2,1.67,3.27,3.27,0,0,1,1.68,3C393.8,368,393.06,368.59,388.8,370.47Z"/><path class="cls-1" d="M465.52,425.67c-3.51,1.88-19.94-2.64-24-8.47-1.44-2.06-1.28-4-.88-7.19.44-3.58,1-8-2.4-12.49s-7.7-5.93-11.52-7.26c-2.65-.92-4.94-1.72-6.6-3.36a6.91,6.91,0,0,1-1.39-6.43,6.18,6.18,0,0,1,3.76-4.69,20.58,20.58,0,0,1,5.94-.7c8.07,0,20.6,2.74,28,11.15C465.94,397,468.31,421.89,465.52,425.67Z"/><path class="cls-1" d="M487.51,101.66c-1.55,5.65-6.31,9.29-10.62,8.11a7.14,7.14,0,0,1-4.53-4.18,12.25,12.25,0,0,1-.48-8.21c1.36-4.93,5.15-8.32,9-8.32a6.26,6.26,0,0,1,1.66.22A7.11,7.11,0,0,1,487,93.46,12.16,12.16,0,0,1,487.51,101.66Z"/><path class="cls-1" d="M477.66,145.28c-1.15,8.11-14.84,23.89-27.25,28.92-11.66,4.74-24.25,6.28-28.66,3.52a3.16,3.16,0,0,1-1.6-2.79c-.29-4.25,8.08-7,15.47-9.44,6.25-2.05,12.16-4,16-7.37,4.88-4.29,5.92-10.56,6.75-15.59,1-6.28,1.74-8.72,4.91-9.5a11.81,11.81,0,0,1,2.75-.33,11.64,11.64,0,0,1,7.85,3.1A11,11,0,0,1,477.66,145.28Z"/></g></g></svg>