<svg xmlns="http://www.w3.org/2000/svg" viewBox="0 0 200 200"><defs><style>.cls-1{fill:#005da2;}</style></defs><g id="Layer_2" data-name="Layer 2"><g id="Layer_1-2" data-name="Layer 1"><path class="cls-1" d="M160.7,29.34v0l-9.78,1.42-2.43,3,3.33,3v.07l-1.2-.62-2.35,4.09-1.78,1.27v2.05h-.79l-1.94-4.48-3.49,6.53-1.81,4.56.17.15-8.58-3,4.53,10.73-1.87.3L129.94,63l1.14,4.84-4-1.68-1.82,3.43-.28-.17-2.37-4.52-3-1.66,0-.14,8.51.42L132.92,57l-6-4.78-10.25-4.11-4.77-.41,3.84-1.46-9.58-4.85-5.73,4-.12.14s-.88,1-1.87,2.19c-.49.57-1,1.16-1.46,1.65s-.87.89-.93.94h0s-.67.45-1.43.9-1.69,1-2.59,1.49c-1.81,1-3.51,1.95-3.51,1.95l-.4.22-.2.43s-.7,1.48-1.55,3.14a42.31,42.31,0,0,1-2.27,4,10.66,10.66,0,0,0-1.25,2.27c-.4.91-.81,1.94-1.19,2.92-.58,1.53-.86,2.36-1.05,2.91l-2.91.47-2,3.7-5.36,2.86L64.58,82.1,63.53,93l1.36,5.7,3.45,3,4.23-1,3.22-2.55a18,18,0,0,0,.53,2.37h0c.17.55.38,1.11.59,1.66.37,1,.73,1.9.78,2l.92,5L79,114.7l7.17-2.29,3.52-1.88.67-3.43-.86-6.52,4.23-2.68,2-3.91L93,90.12l-1-.92.18-7,2.15-.19,6.26-7.44.66-4,1.68-1.14,1.83.15.65,1.39-6.78,8.87-.24,8.06a9.11,9.11,0,0,0-.76,1.3A4.53,4.53,0,0,0,97,90.86a2.17,2.17,0,0,0,.23,1.27,1.93,1.93,0,0,0,1.24.93h0a18.33,18.33,0,0,1,2,1.12c.82.57,1.5,1.11,1.5,1.11l.59.47-.37.12,1.75,5.47,1.48,1.6-.39,1.3-1.14-1.4H100.6l-3.26,5.35.87,7.43-3.56,1.71-2.48-1.69-8,2.54-1.38,1.31-1.71-2.82-6.38,1-.57-1.54-1.28-2.24v-1l3.2-3.4-.75-3a11.18,11.18,0,0,0,1-1.68,5.37,5.37,0,0,0,.63-2,2.64,2.64,0,0,0,0-.68,2.16,2.16,0,0,0-.32-.79,2,2,0,0,0-1.54-.79,4.45,4.45,0,0,0-2.15.65,19.06,19.06,0,0,0-1.94,1.2c-1.21.85-2.2,1.7-2.2,1.7l-.43.37L67,116.17l1.83,1.42.1.63-6.19-.2-3.42,1.83v1.56l-.68.08-1-.62-3.1,3.63-6.44,2.77L46,130.45,41.49,132l-4.88-4.11-.53,4.52-.31-.16-4-.84-3.85.9,1.47,5.11,3.63,3.62.24,4,1.32,1.21-3.66,9L18.2,149.88,16,147.19l-9,1.4,2.17,4.25L6,162.35,0,168.49H2.06l-.47.85,1.92.69-2.13,5.13,7,2.27L11,184.9l6.16-2.13,7,3,3.55-3.41H31l1.79-3.75.6-2.29,4.79-6,6.89-1.16.37-4.67,2.08-1.56,5.43,3,11.39-4,.73,1.55,2.08,8.09L81.67,183l.4,11.3,7.5-7.38-.73-2.7,5.64,2.79-3.69-8.48-5.36-4.94-2.78-1.3-4.24-7.61-3.06-2.26-.45-4.26,2.41-.32v5l2.78-1.47,4.25,9,8.25,3.68v8l6.87,8.36,3.16,7.06L109,200l-1.16-7.08,5.22-1.17-4.16-7.49-.45-3.56,5.36-.86,7.54-1.73h7.08l-6-7.71,1.78-4.73V162l1.37-.88,1.85-4.58,2.4-3.95,1-.87.56,1.35h3.11l-2.15.49,3.93,8,3.44-.95,4-6.09-.25-3.71-1-1.27.3-1.09,3.42-1.55,1.15,1.72.07,3.92-2.82,1.75,11.8,5.51,16.49.76,4.19-1.46,13.2,1.45-9.62-8.32-2.84-7.71-1,2.86L176,146v-4.34l3.51-.77v-3.92l4.91-6.78-1.39-3.35-1.21-1.05-.23-4.22-3.73-3.4L176.35,114l8-6.12,12.17-2.72L200,103l-1.57-5.71-3.42.36h-1.55L193.24,96l-3.49-.24-.14-1.52-1.88-4-3.24-2.58-3.27,4.49-.15.32h-.68l-2.32-1.3,2.9-2.54V82.37l-4.05-.53-.19-5.74L170.45,61l-6.31-9.81,2.49-11.53-.54-5.84Z"/><path class="cls-1" d="M25.54,94.05l-3,1.36.13,1.35-.44,0-2.21-.27-.92,2.18-2.71,1.88,2.87,2.55-1.27.56-3.78,3.15.68,3.48,1,.14,10.41,1.59.27-1.33s.37-1.83.82-3.63c.22-.9.47-1.8.68-2.42a3.94,3.94,0,0,1,.15-.4c.4-.11.84-.17,1.21-.31.62-.23,1.15-.46,1.15-.46l.74-.33L32,97l-3.61-1.67Z"/><path class="cls-1" d="M42.58,82.42l-1.43,3.22-2.42-.23-.1,1.47-.14,1.88-1.84,1.75.84,2-.89,2.33L38,95.7l-.87,1.24.24,4.85,2,.39-.47,1.11.81,2.64.15.52-3.51.26L35.14,109v.92l-4.48,2.71,3.23,3-1.23.06-5.65,5,8.08,1.52L37,121l7.11,2.23L51,121.35l-1.95-1.82,3-3.77-1.56-3.66-1.77-.79.29-1.5-.2-4.06-.87-3-1.15-4.34-.22-1.1.88-1.47,3.13-5.55-3.88-1.07,2.7-4.7Z"/><path class="cls-1" d="M30.15,38.89l-1.81,4.25-.52.16-3.28.89-1.43-.92,2.51,8L20.88,53l4.85,1.85,2.8,4.79,8,.72,5-2.41V55.86l-.47-5.3-.48-2L39,48.27,35.63,47l-.49.6-.71-.05L33,44.73l-.86.84Z"/><path class="cls-1" d="M136.37,1.43,136,4l-.59,3.89-2.69,2.5.09,1.84-3.52,6.18,2.6,1.16-.92,5.49h1.66l-.44,1.5,1.19,1.92c0,.1.08.25.16.52a5,5,0,0,1,.14.63c0,.09,0,.18,0,.29-.06.26-.15.61-.24.94-.18.67-.35,1.28-.35,1.28l-.44,1.53L138.27,35l.39-.87c.19.15.37.31.56.48.59.5,1.11,1,1.11,1l.66.6,8.09-3.78L141.38,29l-.22-1.41L141,23.24l-1.19-1,.12-.27.12-2.12-.2-.38.72-.2-1.86-5.39,2.9-7.67Z"/><path class="cls-1" d="M140.17,31.65l1.89.83-.6.27-.49-.43c-.26-.23-.54-.46-.8-.67Z"/><path class="cls-1" d="M73.17,188l-3.5,1.51.48,1.34.61,1.71,10,6.21,2.06-10.19L73.17,188Z"/><path class="cls-1" d="M63.15,172.79l-5.21,1.52-.06,1-.64,10.59,6.6-1.67,1.75-6.37Z"/><path class="cls-1" d="M88.08,7.72l.36,1.77,1,5.13.32,1.5.68,2.12,3.62,7.51,2.32-9.25,2.91-1.62L98.5,10,93.67,7.72Z"/><path class="cls-1" d="M96.83,0l-.52.44L94.22,2.21l.2,3,2,1.4L100,8.84l4.88-6.9Z"/></g></g></svg>