<svg xmlns="http://www.w3.org/2000/svg" viewBox="0 0 51.93 51.93"><defs><style>.cls-1{fill:#005da3;}</style></defs><g id="Layer_2" data-name="Layer 2"><g id="Layer_1-2" data-name="Layer 1"><path class="cls-1" d="M47.12,35.56a23.07,23.07,0,0,0,0-19.19A8.63,8.63,0,1,0,35.56,4.81a23.07,23.07,0,0,0-19.19,0A8.63,8.63,0,1,0,4.81,16.37,23.16,23.16,0,0,0,2.72,26a22.77,22.77,0,0,0,2.09,9.59A8.63,8.63,0,1,0,16.37,47.12a23.14,23.14,0,0,0,19.2,0A8.63,8.63,0,1,0,47.12,35.56ZM43.3,1.68a7,7,0,1,1-7,7A7,7,0,0,1,43.3,1.68ZM8.64,50.26a7,7,0,1,1,7-7A7,7,0,0,1,8.64,50.26Zm34.66,0a7,7,0,0,1-7-7,6.82,6.82,0,0,1,.78-3.2.84.84,0,1,0-1.49-.77,8.68,8.68,0,0,0-1,4A8.45,8.45,0,0,0,35,45.56a21.4,21.4,0,0,1-18,0,8.79,8.79,0,0,0,.31-2.25,8.65,8.65,0,0,0-8.64-8.64A8.45,8.45,0,0,0,6.38,35a21.44,21.44,0,0,1,0-18,8.87,8.87,0,0,0,2.26.31,8.66,8.66,0,0,0,4.67-1.37.84.84,0,1,0-.91-1.41,7,7,0,1,1,3.2-5.86,7,7,0,0,1-.83,3.3.83.83,0,0,0,.34,1.13.84.84,0,0,0,1.14-.34,8.68,8.68,0,0,0,1-4.09A8.87,8.87,0,0,0,17,6.38a21.49,21.49,0,0,1,18,0,8.52,8.52,0,0,0-.31,2.27,8.65,8.65,0,0,0,8.64,8.64A8.79,8.79,0,0,0,45.55,17a21.13,21.13,0,0,1,2,9,21.38,21.38,0,0,1-2,9,8.37,8.37,0,0,0-2.25-.31,8.53,8.53,0,0,0-4.76,1.43.83.83,0,1,0,.92,1.39A7,7,0,1,1,43.3,50.26Z"/><path class="cls-1" d="M26,13.72A12.25,12.25,0,1,0,38.22,26,12.26,12.26,0,0,0,26,13.72Zm0,22.82c-.94,0-2.18-2.24-2.78-6h5.55C28.15,34.3,26.9,36.54,26,36.54Zm-3-7.67c-.09-.9-.14-1.87-.14-2.9s0-2,.14-2.91h6c.08.91.13,1.87.13,2.91s0,2-.13,2.9ZM15.39,26a10.39,10.39,0,0,1,.42-2.91h5.5c-.09,1-.13,1.93-.13,2.91s0,2,.13,2.9h-5.5A10.27,10.27,0,0,1,15.39,26ZM26,15.39c.93,0,2.18,2.24,2.77,6H23.19C23.79,17.63,25,15.39,26,15.39Zm4.66,7.67h5.5A10.77,10.77,0,0,1,36.54,26a10.64,10.64,0,0,1-.41,2.9h-5.5c.08-.95.13-1.93.13-2.9S30.71,24,30.63,23.06Zm4.85-1.67h-5a16.22,16.22,0,0,0-1.7-5.62A10.61,10.61,0,0,1,35.48,21.39ZM23.2,15.77a16.22,16.22,0,0,0-1.7,5.62H16.45A10.61,10.61,0,0,1,23.2,15.77ZM16.45,30.55H21.5a16.16,16.16,0,0,0,1.7,5.61A10.59,10.59,0,0,1,16.45,30.55Zm12.28,5.61a16.16,16.16,0,0,0,1.7-5.61h5A10.59,10.59,0,0,1,28.73,36.16Z"/><path class="cls-1" d="M11.37,6.83a.84.84,0,0,0,0-1.68H9.48v-1a.84.84,0,1,0-1.68,0v1H7.4a.84.84,0,0,0-.6.25L5.31,6.89a.87.87,0,0,0-.24.59V8.64a.84.84,0,0,0,.84.84H10.5l-1,1H5.91a.84.84,0,1,0,0,1.67H7.8v1a.84.84,0,1,0,1.68,0v-1h.4a.85.85,0,0,0,.59-.24L12,10.39a.84.84,0,0,0,.25-.6V8.64a.85.85,0,0,0-.84-.84H6.77l1-1Z"/><path class="cls-1" d="M45.56,38.7a.85.85,0,0,0-.84.84V40.7L43.3,42.11,41.87,40.7V39.54a.84.84,0,0,0-1.68,0V41a.84.84,0,0,0,.25.6l.82.82h0a.84.84,0,1,0,0,1.67h1.21v.81H41.25a.84.84,0,1,0,0,1.67h1.21v.44a.84.84,0,1,0,1.67,0v-.44h1.21a.84.84,0,1,0,0-1.67H44.13v-.81h1.21a.84.84,0,1,0,0-1.67h0l.82-.82a.84.84,0,0,0,.25-.6v-1.5A.84.84,0,0,0,45.56,38.7Z"/><path class="cls-1" d="M11.29,46.17H7.63L8.49,45H10.9a.84.84,0,0,0,0-1.68H9.06a.84.84,0,0,0-.7-.39s-1.53,0-1.53-1a1.93,1.93,0,0,1,1.94-1.51c1,0,1.72,1.66,1.74,1.69a.84.84,0,0,0,1.56-.6c0-.11-1.08-2.77-3.3-2.77a3.55,3.55,0,0,0-3.62,3.19,2.36,2.36,0,0,0,.47,1.46.85.85,0,0,0-.47.75A.85.85,0,0,0,6,45h.44L5.31,46.52A.84.84,0,0,0,6,47.85h5.3a.84.84,0,0,0,0-1.68Z"/><path class="cls-1" d="M39.17,8.36h.17a2.62,2.62,0,0,0,0,.28,2.44,2.44,0,0,0,0,.27h-.17a.84.84,0,1,0,0,1.68h.6a4.59,4.59,0,0,0,4.16,2.66h1.63a.84.84,0,1,0,0-1.68H43.93a2.91,2.91,0,0,1-2.17-1h3a.84.84,0,0,0,0-1.68H41a2.48,2.48,0,0,1,0-.27,2.4,2.4,0,0,1,0-.28H44.8a.84.84,0,0,0,0-1.67h-3a2.91,2.91,0,0,1,2.17-1h1.63a.84.84,0,1,0,0-1.68H43.93a4.59,4.59,0,0,0-4.16,2.66h-.6a.84.84,0,1,0,0,1.67Z"/></g></g></svg>