<svg xmlns="http://www.w3.org/2000/svg" viewBox="0 0 104.16 99.21"><defs><style>.cls-1{fill:#f7de17;}</style></defs><g id="Layer_2" data-name="Layer 2"><g id="Layer_1-2" data-name="Layer 1"><path class="cls-1" d="M100.17,68.25c3.12-3.23,4.63-6.3,3.73-7.18s-4.06,1.31-6.37,3.67L93.61,68.8,75.33,63.4l-1.82,1.86,14,8.18c.52.49.81,1-.31,2.17L83.07,80.1A38.15,38.15,0,0,0,79,85.25c-.14.1-.27.21-.4.32l-5-1.23-1.8,1.84,3.7,1.65a45.45,45.45,0,0,1-14.88,6.62A46.26,46.26,0,0,1,38.81,4.54Q41,4,43.25,3.7a45.26,45.26,0,0,1,4.92-.3A49.22,49.22,0,0,1,93.43,30l.29-.07A49.2,49.2,0,0,0,42.68.34s-1.44.18-2.15.31C38.88.92,35.6,1.84,35.6,1.84a49.7,49.7,0,0,0,25.83,96,44.74,44.74,0,0,0,16.51-8.11l2.24,4.69L82,92.51l-1.4-5c.44-.38.87-.79,1.3-1.18,1.55-1.25,2.6-2.19,3.62-3.16,0,0,0,.07,0,.08s0,0,0-.11l.33-.32,4.63-4.64A1.21,1.21,0,0,1,92.23,78l8.61,14,1.8-1.86-6-18.25Z"/></g></g></svg>