<svg xmlns="http://www.w3.org/2000/svg" viewBox="0 0 200 200"><defs><style>.cls-1{fill:#005da2;fill-rule:evenodd;}</style></defs><g id="Layer_2" data-name="Layer 2"><g id="Layer_1-2" data-name="Layer 1"><path class="cls-1" d="M127.68,0c22.2,0,40.6,17.93,43.83,40.92H179a21.14,21.14,0,0,1,21,21.14V178.85A21.15,21.15,0,0,1,179,200H110.24a2.33,2.33,0,1,1-.07-4.65H179a16.45,16.45,0,0,0,16.35-16.5V62.06A16.45,16.45,0,0,0,179,45.57h-7.13c0,.85.15,1.68.15,2.54V72.67a2.33,2.33,0,0,1-4.65.07.08.08,0,0,1,0-.07V48.11c0-.86-.1-1.69-.15-2.54h-79c0,.85-.15,1.68-.15,2.54V72.67a2.33,2.33,0,0,1-4.65.07V48.11c0-.86.1-1.69.15-2.54H76.44A16.45,16.45,0,0,0,60.09,62.06v24a2.33,2.33,0,1,1-4.65.06v-24a21.14,21.14,0,0,1,21-21.14h7.49C87.16,17.93,105.49,0,127.68,0Zm0,4.65c-19.48,0-35.85,15.69-39,36.27h78.13C163.61,20.34,147.16,4.65,127.68,4.65Z"/><path class="cls-1" d="M78.65,101.52A19.43,19.43,0,0,1,98,121V180.6A19.43,19.43,0,0,1,78.65,200H19.33A19.44,19.44,0,0,1,0,180.6V121a19.45,19.45,0,0,1,19.33-19.43Zm0,4.65H19.33A14.76,14.76,0,0,0,4.65,121V180.6a14.75,14.75,0,0,0,14.68,14.75H78.65A14.73,14.73,0,0,0,93.31,180.6V121a14.74,14.74,0,0,0-14.66-14.78Z"/><path class="cls-1" d="M72.34,118.87a2.32,2.32,0,0,1,2.29,2.36v8.19c0,5.92-3.6,10.52-8.45,13.3s-11,4.07-17.2,4.07-12.34-1.29-17.19-4.07-8.46-7.39-8.46-13.3v-8.19a2.33,2.33,0,0,1,4.65-.07v8.26c0,4.11,2.23,7,6.12,9.26s9.38,3.46,14.88,3.46,11-1.22,14.88-3.45S70,133.53,70,129.42v-8.19a2.33,2.33,0,0,1,2.3-2.36Z"/></g></g></svg>