<svg xmlns="http://www.w3.org/2000/svg" viewBox="0 0 65.63 47.09"><defs><style>.cls-1{fill:#009bda;}</style></defs><g id="Layer_2" data-name="Layer 2"><g id="Layer_1-2" data-name="Layer 1"><path class="cls-1" d="M65.25,13.43A45.59,45.59,0,0,0,33.31,0h-.5A45.58,45.58,0,0,0,.53,13.28,1.29,1.29,0,0,0,0,14.34a1.19,1.19,0,0,0,.46.94l5.86,5.85a1.3,1.3,0,0,0,1,.52h0a1.21,1.21,0,0,0,.94-.46,34.79,34.79,0,0,1,48.19-.78l-3.92,3.9A29.24,29.24,0,0,0,12.3,25a1.26,1.26,0,0,0-.53,1,1.17,1.17,0,0,0,.46,1l5.06,5a1.24,1.24,0,0,0,1,.52,1.17,1.17,0,0,0,.94-.45,19.26,19.26,0,0,1,26.25-.77L41.93,35a14.2,14.2,0,0,0-19,.69,1.25,1.25,0,0,0-.54,1.06,1.2,1.2,0,0,0,.46,1l9.07,9.06a1.25,1.25,0,0,0,.88.36h0a1.25,1.25,0,0,0,1.25-1.25,1.22,1.22,0,0,0-.37-.88l-8.21-8.22A11.72,11.72,0,0,1,41,37.45a1.24,1.24,0,0,0,1,.5,1.17,1.17,0,0,0,1-.45l5.12-5.13a1.19,1.19,0,0,0,.51-.94v-.1a1.23,1.23,0,0,0-.47-1,21.78,21.78,0,0,0-29.77-.76l-3.52-3.52a26.77,26.77,0,0,1,36.77.72,1.25,1.25,0,0,0,1,.52,1.27,1.27,0,0,0,1-.46L59,21.42a1.24,1.24,0,0,0,.52-1,1.2,1.2,0,0,0-.46-1,37.29,37.29,0,0,0-51.72-.78L3,14.33a43.4,43.4,0,0,1,60.43.86,1.26,1.26,0,0,0,.87.39,1.21,1.21,0,0,0,.9-.33,1.26,1.26,0,0,0,.39-.88A1.3,1.3,0,0,0,65.25,13.43Z"/></g></g></svg>