<svg xmlns="http://www.w3.org/2000/svg" viewBox="0 0 106.31 106.31"><defs><style>.cls-1{fill:#ffdb00;}</style></defs><g id="Layer_2" data-name="Layer 2"><g id="Layer_1-2" data-name="Layer 1"><path class="cls-1" d="M43,20.06a1.76,1.76,0,0,0-1.61.54l-.8.81-.54.54a1.4,1.4,0,0,0-.31,1.16,1.54,1.54,0,0,0,.74,1l.78.43,3.42,1.9,1.11,2,1.28,2.3a1.37,1.37,0,0,0,1,.64l.2,0a1.44,1.44,0,0,0,.93-.36l.18-.16.42-.43.79-.78a1.73,1.73,0,0,0,.52-1.53l-.4-2.74c1.27-1.26,2.15-2.15,3.3-3.3h0l5.71,8.61a1.31,1.31,0,0,0,1,.58,1.37,1.37,0,0,0,1.07-.38l1.69-1.68A1.32,1.32,0,0,0,63.81,28L60.63,15.52l4.5-4.5a3.75,3.75,0,0,0,1.05-1.79,3.49,3.49,0,0,0-3.65-4.32A3.74,3.74,0,0,0,60.15,6l-4.51,4.52C53.48,10,47,8.4,43.2,7.36a1.34,1.34,0,0,0-1.29.35L40.23,9.39a1.33,1.33,0,0,0,.2,2L49,17.14l-3.3,3.31Zm4.26,2.59L51.9,18l.22-.24a1.35,1.35,0,0,0,.31-1.05,1.31,1.31,0,0,0-.58-.93l-8.56-5.68c4.29,1.14,10.91,2.8,12.23,3.11a1.7,1.7,0,0,0,1.65-.47L62,7.91a1,1,0,0,1,.7-.35.84.84,0,0,1,.87,1,1.19,1.19,0,0,1-.35.56L58.41,14a1.76,1.76,0,0,0-.48,1.74L61.05,27.9l-5.71-8.6a1.33,1.33,0,0,0-1-.58h-.13a1.32,1.32,0,0,0-.94.39l-1.16,1.15-3.6,3.6A1.76,1.76,0,0,0,48,25.41l.3,2.09-.18-.32c-.4-.73-.81-1.47-1.23-2.2a2,2,0,0,0-.79-.77l-2.46-1.37.72.1,1.41.2A1.68,1.68,0,0,0,47.3,22.65Z"/><path class="cls-1" d="M77.92,0H28.39A28.43,28.43,0,0,0,0,28.39V105a1.32,1.32,0,0,0,1.33,1.33H105a1.32,1.32,0,0,0,1.33-1.33V28.39A28.43,28.43,0,0,0,77.92,0Zm0,2.66a25.52,25.52,0,0,1,13.56,3.9s0,0,0,.06V34.88H14.84V6.56a25.51,25.51,0,0,1,13.55-3.9Zm25.73,101H2.66V28.39a25.69,25.69,0,0,1,9.52-20V36.21a1.33,1.33,0,0,0,1.33,1.33H92.8a1.33,1.33,0,0,0,1.33-1.33V8.43a25.69,25.69,0,0,1,9.52,20Z"/><path class="cls-1" d="M88,41H18.33a6.48,6.48,0,0,0-6.47,6.47V93.22a6.48,6.48,0,0,0,6.47,6.47H88a6.48,6.48,0,0,0,6.47-6.47V47.5A6.48,6.48,0,0,0,88,41Zm3.81,52.19A3.82,3.82,0,0,1,88,97H18.33a3.82,3.82,0,0,1-3.81-3.81V47.5a3.82,3.82,0,0,1,3.81-3.81H88a3.82,3.82,0,0,1,3.81,3.81Z"/><path class="cls-1" d="M85.78,46.69H20.28a3,3,0,0,0-3,3V91.27a3,3,0,0,0,3,3h65.5a3,3,0,0,0,3-3V49.69A3,3,0,0,0,85.78,46.69Zm.34,44.58a.35.35,0,0,1-.34.35H20.28a.35.35,0,0,1-.35-.35V49.69a.35.35,0,0,1,.35-.34h65.5a.34.34,0,0,1,.34.34Z"/><path class="cls-1" d="M28.31,77.36a1.33,1.33,0,1,0-1.88,1.87l4.87,4.88a1.33,1.33,0,1,0,1.88-1.88Z"/><path class="cls-1" d="M28.31,69.54a1.33,1.33,0,1,0-1.88,1.88L38.16,83.16A1.33,1.33,0,0,0,40,81.28Z"/></g></g></svg>