<svg xmlns="http://www.w3.org/2000/svg" viewBox="0 0 36.48 63.99"><defs><style>.cls-1{fill:#009bda;}</style></defs><g id="Layer_2" data-name="Layer 2"><g id="Layer_1-2" data-name="Layer 1"><path class="cls-1" d="M29.82,0H6.66A6.66,6.66,0,0,0,0,6.66V57.33A6.66,6.66,0,0,0,6.66,64H29.82a6.66,6.66,0,0,0,6.66-6.66V6.66A6.66,6.66,0,0,0,29.82,0Zm4.92,57.33a4.92,4.92,0,0,1-4.92,4.92H6.66a4.92,4.92,0,0,1-4.92-4.92V53.56h33Zm0-48.64h-2a.87.87,0,1,0,0,1.73h2V51.83h-33V10.42H25.33a.87.87,0,1,0,0-1.73H1.74v-2A4.92,4.92,0,0,1,6.66,1.74H29.82a4.92,4.92,0,0,1,4.92,4.92Z"/><path class="cls-1" d="M29.79,8.69h-1.6a.87.87,0,1,0,0,1.73h1.6a.87.87,0,1,0,0-1.73Z"/><path class="cls-1" d="M18.24,61a3,3,0,1,0-3-3A3,3,0,0,0,18.24,61Zm0-4.35a1.31,1.31,0,1,1-1.3,1.31A1.3,1.3,0,0,1,18.24,56.6Z"/><path class="cls-1" d="M7.66,40.82h8.86a.87.87,0,1,0,0-1.73H7.66a.87.87,0,1,0,0,1.73Z"/><path class="cls-1" d="M24,40.82a.87.87,0,1,0,0-1.73H19.89a.87.87,0,1,0,0,1.73Z"/><path class="cls-1" d="M28.82,39.09H27.75a.87.87,0,1,0,0,1.73h1.07a.87.87,0,1,0,0-1.73Z"/><path class="cls-1" d="M9.28,44H7.66a.87.87,0,0,0,0,1.74H9.28a.88.88,0,0,0,.87-.87A.86.86,0,0,0,9.28,44Z"/><path class="cls-1" d="M16.79,44H12.65a.87.87,0,1,0,0,1.74h4.14a.87.87,0,1,0,0-1.74Z"/><path class="cls-1" d="M28.82,44H20.51a.87.87,0,0,0,0,1.74h8.31a.87.87,0,0,0,0-1.74Z"/><path class="cls-1" d="M9.55,33.17h11a2.33,2.33,0,0,0,2.31-2.32V29.42L28,32.2a.87.87,0,0,0,1.18-.35.9.9,0,0,0,.1-.42V22.29a.87.87,0,0,0-.87-.86,1,1,0,0,0-.42.1l-5.05,2.78V22.87a2.33,2.33,0,0,0-2.32-2.31h-11a2.32,2.32,0,0,0-2.31,2.31v8A2.33,2.33,0,0,0,9.55,33.17ZM22.9,26.29l4.61-2.53V30L22.9,27.43ZM9,22.89a.58.58,0,0,1,.57-.58h11a.58.58,0,0,1,.57.58v8a.58.58,0,0,1-.57.58h-11A.58.58,0,0,1,9,30.85Z"/></g></g></svg>