<svg xmlns="http://www.w3.org/2000/svg" viewBox="0 0 56 48.37"><defs><style>.cls-1{fill:#009bda;}</style></defs><g id="Layer_2" data-name="Layer 2"><g id="Layer_1-2" data-name="Layer 1"><path class="cls-1" d="M18.33,0A1.28,1.28,0,0,0,17.2,1.4a1.55,1.55,0,0,0,0,.21l5.27,18.18L9,20.35,6.16,15.87a1.28,1.28,0,0,0-1.07-.6H1.27A1.29,1.29,0,0,0,0,16.55a1.36,1.36,0,0,0,0,.2l1.23,7.43L0,31.6a1.27,1.27,0,0,0,1,1.47.86.86,0,0,0,.22,0H5.09a1.25,1.25,0,0,0,1.07-.59L9,28l13.56.56L17.24,46.73a1.27,1.27,0,0,0,.86,1.58,1.51,1.51,0,0,0,.35.06h5.73a1.31,1.31,0,0,0,1.08-.6l9.26-14.62a1.27,1.27,0,0,0-2.15-1.37l-8.9,14H20.14L25.39,27.7a1.26,1.26,0,0,0-.88-1.56,1.28,1.28,0,0,0-.27-.05L8.33,25.46a1.25,1.25,0,0,0-1.13.59l-2.81,4.5H2.76l1-6.17a1.48,1.48,0,0,0,0-.42l-1-6.14H4.39L7.2,22.31a1.26,1.26,0,0,0,1.13.6l15.91-.64a1.26,1.26,0,0,0,1.2-1.33,1,1,0,0,0-.05-.3L20.14,2.55h3.35L35.2,21a1.26,1.26,0,0,0,1.13.6L49,21h.06a5.78,5.78,0,0,1,3,1.08,3,3,0,0,1,1.39,2.1,2.93,2.93,0,0,1-1.39,2.09,5.82,5.82,0,0,1-3,1.1H49l-12.67-.64a1.27,1.27,0,0,0-.12,2.54l12.73.64H49a7.87,7.87,0,0,0,4.55-1.59A5.26,5.26,0,0,0,56,24.18,5.29,5.29,0,0,0,53.55,20,7.85,7.85,0,0,0,49,18.46h-.06l-12,.59L25.26.58A1.31,1.31,0,0,0,24.18,0H18.33Z"/></g></g></svg>