<svg xmlns="http://www.w3.org/2000/svg" viewBox="0 0 36.55 36.55"><defs><style>.cls-1{fill:#009edb;}</style></defs><g id="Layer_2" data-name="Layer 2"><g id="Layer_1-2" data-name="Layer 1"><path class="cls-1" d="M20.37,24.07H5.75a.56.56,0,0,0-.57.56v7.72a.56.56,0,0,0,.57.56H20.37a.56.56,0,0,0,.56-.56V24.63A.56.56,0,0,0,20.37,24.07ZM19.8,25.2v6.58H6.31V25.2Z"/><path class="cls-1" d="M10.13,27.89H16a.57.57,0,0,0,0-1.14H10.13a.57.57,0,0,0,0,1.14Z"/><path class="cls-1" d="M10.13,30.23H16a.57.57,0,0,0,0-1.14H10.13a.57.57,0,1,0,0,1.14Z"/><path class="cls-1" d="M36,4.35H26.11V3.73A3.73,3.73,0,0,0,22.38,0H.57A.56.56,0,0,0,0,.57V36a.56.56,0,0,0,.57.56H22.38a3.73,3.73,0,0,0,3.73-3.72V32.2H36a.56.56,0,0,0,.56-.56V4.92A.57.57,0,0,0,36,4.35Zm-9.88,10V5.49h5.22v8.87Zm6.36,11.77a.57.57,0,0,0-.57-.56H26.11V23.14H31.9a.57.57,0,1,0,0-1.13H26.11V19.58H31.9a.57.57,0,1,0,0-1.13H26.11V15.5H31.9a.58.58,0,0,0,.57-.57V5.49h3V31.07H26.11V26.7H31.9A.57.57,0,0,0,32.47,26.13ZM25,3.73v29.1a2.6,2.6,0,0,1-2.6,2.59H1.14V1.14H22.38A2.6,2.6,0,0,1,25,3.73Z"/><path class="cls-1" d="M21.43,9.77h0a8.9,8.9,0,0,0-4.77-5.19l-.06,0A8.86,8.86,0,0,0,4.19,12.68a8.74,8.74,0,0,0,.72,3.5.16.16,0,0,0,0,.07,8.88,8.88,0,0,0,8.11,5.3h.4a.35.35,0,0,0,.18,0,8.81,8.81,0,0,0,7-4.29.5.5,0,0,0,.12-.19,8.85,8.85,0,0,0,.68-7.21S21.45,9.79,21.43,9.77ZM13.78,14.6A2.08,2.08,0,0,1,16,13.73l.1,0A5.14,5.14,0,0,1,19.6,16.8a7.68,7.68,0,0,1-5.45,3.53,6.31,6.31,0,0,0-.56-2.17C13.56,18.07,12.79,15.87,13.78,14.6Zm-.89-.7c-1.41,1.8-.39,4.57-.34,4.69A5.94,5.94,0,0,1,13,20.42a7.74,7.74,0,0,1-6.64-3.85c2.86-.15,4.45-1.87,4.6-5,.06-1.38.21-1.65,1.33-3.16a2,2,0,0,0,.39-1.57,3.54,3.54,0,0,0-1-1.79,7.57,7.57,0,0,1,3.35.16c-1.2.9-1.63,2-1.22,3a2.12,2.12,0,0,0,2,1.52,1.45,1.45,0,0,1,.94.32,3.54,3.54,0,0,0,2.44,1,3.9,3.9,0,0,0,1.29-.23,7.54,7.54,0,0,1,.24,1.86,7.66,7.66,0,0,1-.57,2.91,6.22,6.22,0,0,0-4-3A3.2,3.2,0,0,0,12.89,13.9ZM10.47,5.4A3.22,3.22,0,0,1,11.58,7a.93.93,0,0,1-.19.73c-1.2,1.62-1.47,2.13-1.55,3.78-.08,1.8-.62,3.87-4,3.9a7.67,7.67,0,0,1-.52-2.75A7.75,7.75,0,0,1,10.47,5.4Zm7.12,3.85A2.47,2.47,0,0,0,16,8.64c-.56-.07-.81-.09-1.09-.81-.39-1,1-1.84,1.48-2.11a7.67,7.67,0,0,1,3.8,4A2.5,2.5,0,0,1,17.59,9.25Zm3.76.56h0l0,0Z"/></g></g></svg>