<svg xmlns="http://www.w3.org/2000/svg" viewBox="0 0 43.55 33.79"><defs><style>.cls-1{fill:#009edb;}</style></defs><g id="Layer_2" data-name="Layer 2"><g id="Layer_1-2" data-name="Layer 1"><path class="cls-1" d="M9.64,0A2.65,2.65,0,0,0,7,2.64V7H2.64A2.65,2.65,0,0,0,0,9.64v21.5a2.66,2.66,0,0,0,2.64,2.65H33.91a2.67,2.67,0,0,0,2.65-2.65V26.79h4.35a2.65,2.65,0,0,0,2.64-2.64V2.64A2.65,2.65,0,0,0,40.91,0Zm0,1.56H40.91A1.07,1.07,0,0,1,42,2.64V24.15a1.07,1.07,0,0,1-1.09,1.08H36.56V9.64h0a2.24,2.24,0,0,0-.06-.52,2.66,2.66,0,0,0-2.06-2.06A2.33,2.33,0,0,0,33.91,7H8.56V2.64A1.06,1.06,0,0,1,9.64,1.56Zm-7,7H33.91A1.07,1.07,0,0,1,35,9.64V13.5H1.55V9.64A1.06,1.06,0,0,1,2.64,8.56ZM1.55,15.05H35v3H1.55Zm0,4.53H35V31.14a1.07,1.07,0,0,1-1.09,1.09H2.64a1.07,1.07,0,0,1-1.09-1.09Zm22.89,3.36a.77.77,0,0,0-.77.78v4a.76.76,0,0,0,.77.77H30a.77.77,0,0,0,.78-.77v-4a.79.79,0,0,0-.78-.78h-5.6Zm-17.91.65a.77.77,0,0,0-.78.77.78.78,0,0,0,.78.78h8.15a.78.78,0,0,0,.78-.78.77.77,0,0,0-.78-.77Zm18.69.91h4V27h-4ZM6.53,27.08a.77.77,0,0,0-.79.76.78.78,0,0,0,.76.8H10a.78.78,0,1,0,0-1.56H6.53Z"/></g></g></svg>