<svg xmlns="http://www.w3.org/2000/svg" viewBox="0 0 36.66 36.66"><defs><style>.cls-1{fill:#009edb;}</style></defs><g id="Layer_2" data-name="Layer 2"><g id="Layer_1-2" data-name="Layer 1"><path class="cls-1" d="M18.33,36.66A18.33,18.33,0,1,0,0,18.33,18.36,18.36,0,0,0,18.33,36.66Zm0-34.58A16.25,16.25,0,1,1,2.08,18.33,16.27,16.27,0,0,1,18.33,2.08ZM11.87,16.72A1.06,1.06,0,0,1,12,15.26l6.35-5.47,6.35,5.47a1.06,1.06,0,0,1,.11,1.46,1,1,0,0,1-.78.36,1.09,1.09,0,0,1-.68-.26l-4-3.44V25.52a1,1,0,0,1-2.08,0V13.38l-4,3.44A1.07,1.07,0,0,1,11.87,16.72Z"/></g></g></svg>