<svg xmlns="http://www.w3.org/2000/svg" viewBox="0 0 39.28 46.85"><defs><style>.cls-1{fill:#009edb;}</style></defs><g id="Layer_2" data-name="Layer 2"><g id="Layer_1-2" data-name="Layer 1"><path class="cls-1" d="M7.69,9.19A5.66,5.66,0,0,0,9.81,10a4.07,4.07,0,0,1,1.53.56.51.51,0,0,1,.21.49.74.74,0,0,1-.33.62A1.94,1.94,0,0,1,10,12a1.9,1.9,0,0,1-1.28-.37.79.79,0,0,1-.32-.59.79.79,0,0,0-.82-.73.77.77,0,0,0-.73.82,2.28,2.28,0,0,0,.87,1.71,3.13,3.13,0,0,0,1.48.65v.8a.78.78,0,0,0,1.56,0v-.78a3.18,3.18,0,0,0,1.45-.63,2.28,2.28,0,0,0,.9-1.82,2.07,2.07,0,0,0-.85-1.75,5.46,5.46,0,0,0-2.12-.83A4.29,4.29,0,0,1,8.63,8a.53.53,0,0,1-.21-.5.72.72,0,0,1,.33-.61A1.85,1.85,0,0,1,10,6.5a2,2,0,0,1,1.28.37.82.82,0,0,1,.32.59.77.77,0,0,0,.83.74.78.78,0,0,0,.73-.83,2.35,2.35,0,0,0-.87-1.69A3.14,3.14,0,0,0,10.76,5V4.21a.78.78,0,1,0-1.56,0V5a3,3,0,0,0-1.45.62,2.27,2.27,0,0,0-.9,1.83A2.11,2.11,0,0,0,7.69,9.19Z"/><path class="cls-1" d="M5.75,17.76H24a.78.78,0,0,0,0-1.56H5.75a.78.78,0,1,0,0,1.56Z"/><path class="cls-1" d="M5.75,22.59H24A.78.78,0,0,0,24,21H5.75a.78.78,0,1,0,0,1.56Z"/><path class="cls-1" d="M5.75,27.41H18.29a.78.78,0,1,0,0-1.56H5.75a.78.78,0,1,0,0,1.56Z"/><path class="cls-1" d="M14.18,30.68H5.75a.78.78,0,1,0,0,1.56h8.43a.78.78,0,0,0,0-1.56Z"/><path class="cls-1" d="M29.74,26.19V11.06a.74.74,0,0,0-.23-.54L19.33.23A.85.85,0,0,0,18.77,0H.78A.78.78,0,0,0,0,.78V36.5a.78.78,0,0,0,.78.78h17.9A10.32,10.32,0,1,0,29.74,26.19ZM19.55,2.68l7.54,7.6H19.55Zm-18-1.12H18v9.5a.79.79,0,0,0,.78.79h9.42V26.19a10.33,10.33,0,0,0-9.5,9.52H1.56ZM29,45.29a8.79,8.79,0,1,1,8.75-8.79A8.79,8.79,0,0,1,29,45.29Z"/><path class="cls-1" d="M31.78,33.85l-3.66,3.64-2-2a.77.77,0,0,0-1.1,0,.78.78,0,0,0,0,1.1l2.52,2.51a.8.8,0,0,0,.56.23.78.78,0,0,0,.55-.23L32.88,35a.78.78,0,0,0,0-1.1A.77.77,0,0,0,31.78,33.85Z"/></g></g></svg>