<svg xmlns="http://www.w3.org/2000/svg" viewBox="0 0 34.7 37.4"><defs><style>.cls-1{fill:#009edb;}</style></defs><g id="Layer_2" data-name="Layer 2"><g id="Layer_1-2" data-name="Layer 1"><path class="cls-1" d="M27.1,12.56h0a5.53,5.53,0,0,0-5.54-5,7.71,7.71,0,0,0-4.21,1.45A7.78,7.78,0,0,0,13.1,7.6c-2.81,0-5,2-5.54,5-.81,4.25,1.76,9.86,9.29,12.9a1.19,1.19,0,0,0,.54.12,1.07,1.07,0,0,0,.51-.12C25.39,22.38,27.88,16.77,27.1,12.56ZM17.35,24c-6.67-2.69-9-7.52-8.26-11.11.42-2.3,2-3.75,4-3.75a6.43,6.43,0,0,1,3.78,1.49.85.85,0,0,0,.94,0,6.55,6.55,0,0,1,3.74-1.45,4.11,4.11,0,0,1,4,3.71C26.32,16.42,24,21.25,17.35,24Z"/><path class="cls-1" d="M14.43,29.32l-4.17-5.53a2.22,2.22,0,0,0-3-.55h0a2.24,2.24,0,0,0-.74,3l1.21,2.19a.36.36,0,0,1,0,.35.3.3,0,0,1-.27.19.31.31,0,0,1-.35-.15L4.64,25.62c0-1.09-.08-5.42-.12-7.41a2.32,2.32,0,0,0-2.26-2.3h0A2.28,2.28,0,0,0,0,18.21v9.4A2.71,2.71,0,0,0,.7,29.4L7.37,37a.87.87,0,0,0,.58.32H8l6.44-.08a.84.84,0,0,0,.54-.24.77.77,0,0,0,.24-.58L15,30.77A2.41,2.41,0,0,0,14.43,29.32ZM8.31,35.8,1.87,28.43a0,0,0,0,0,0,0,1,1,0,0,1-.27-.7V18.25a.76.76,0,0,1,.66-.74h0a.77.77,0,0,1,.7.78c0,2.3.12,7.64.12,7.64a.94.94,0,0,0,.16.47l2.61,3.35a1.93,1.93,0,0,0,1.83.74,2,2,0,0,0,1.44-1,1.92,1.92,0,0,0,0-1.79L7.88,25.46a.7.7,0,0,1,.19-.89h0a.67.67,0,0,1,.9.15l4.21,5.58a.82.82,0,0,1,.23.58l.16,4.88Z"/><path class="cls-1" d="M34.7,18.25A2.29,2.29,0,0,0,32.44,16h0a2.3,2.3,0,0,0-2.26,2.3c0,2-.12,6.28-.12,7.37l-2.45,3.2a.45.45,0,0,1-.35.15c-.16,0-.28-.15-.28-.19a.38.38,0,0,1,0-.35l1.21-2.19a2.22,2.22,0,0,0-.74-3h0a2.21,2.21,0,0,0-3,.55l-4.17,5.45a2.64,2.64,0,0,0-.59,1.49l-.19,5.69a.87.87,0,0,0,.23.58.82.82,0,0,0,.55.28l6.43.08h0a.85.85,0,0,0,.59-.28L34,29.48a2.63,2.63,0,0,0,.71-1.83ZM32.83,28.39h0L26.36,35.8l-5.3,0,.19-4.88a.93.93,0,0,1,.24-.62l4.17-5.54a.66.66,0,0,1,.89-.15h0a.66.66,0,0,1,.2.89l-1.13,2.19A2,2,0,0,0,27,30.53a1.87,1.87,0,0,0,1.84-.74l2.61-3.35a.67.67,0,0,0,.15-.47s.08-5.38.12-7.68a.77.77,0,0,1,.74-.78h0a.73.73,0,0,1,.66.74v9.4A1,1,0,0,1,32.83,28.39Z"/><path class="cls-1" d="M17.35,4.37a.78.78,0,0,0,.78-.78V.78a.78.78,0,0,0-1.56,0V3.59A.78.78,0,0,0,17.35,4.37Z"/><path class="cls-1" d="M25.39,5.81a.61.61,0,0,0,.39.08.89.89,0,0,0,.7-.39L28,2.69A.78.78,0,0,0,26.59,2L25.07,4.76A.74.74,0,0,0,25.39,5.81Z"/><path class="cls-1" d="M8.27,5.5a.74.74,0,0,0,.7.39,1.69,1.69,0,0,0,.39-.08.76.76,0,0,0,.31-1L8.15,2A.76.76,0,0,0,7.1,1.64a.77.77,0,0,0-.32,1.05Z"/></g></g></svg>