<svg xmlns="http://www.w3.org/2000/svg" viewBox="0 0 51.43 32.14"><defs><style>.cls-1{fill:#009edb;}</style></defs><g id="Layer_2" data-name="Layer 2"><g id="Layer_1-2" data-name="Layer 1"><path class="cls-1" d="M48.21,12.05a2.41,2.41,0,0,0,2.41,2.41.81.81,0,0,1,.81.81v5.62a3.23,3.23,0,0,1-3.22,3.22H45.8a.81.81,0,0,1,0-1.61h2.41a1.61,1.61,0,0,0,1.61-1.61V16a4,4,0,0,1,0-7.87V3.21a1.61,1.61,0,0,0-1.61-1.6H41.68A3.21,3.21,0,0,1,39.37,3.9V5.62a.8.8,0,1,1-1.6,0V3.9a3.21,3.21,0,0,1-2.31-2.29H11.25a1.61,1.61,0,0,0-1.61,1.6V5.62a.8.8,0,1,1-1.6,0V3.21A3.21,3.21,0,0,1,11.25,0H36.16a.8.8,0,0,1,.8.8,1.61,1.61,0,0,0,3.22,0A.8.8,0,0,1,41,0h7.23a3.22,3.22,0,0,1,3.22,3.21V8.84a.8.8,0,0,1-.81.8A2.41,2.41,0,0,0,48.21,12.05Zm-4.82-.8v5.62a.8.8,0,0,1-.8.81,2.41,2.41,0,0,0,0,4.82.8.8,0,0,1,.8.8v5.63a3.21,3.21,0,0,1-3.21,3.21H32.94a.8.8,0,0,1-.8-.8,1.61,1.61,0,1,0-3.21,0,.8.8,0,0,1-.81.8H3.21A3.21,3.21,0,0,1,0,28.93V23.3a.8.8,0,0,1,.8-.8,2.41,2.41,0,0,0,0-4.82.8.8,0,0,1-.8-.81V11.25A3.21,3.21,0,0,1,3.21,8H28.12a.8.8,0,0,1,.81.8,1.61,1.61,0,1,0,3.21,0,.8.8,0,0,1,.8-.8h7.24A3.21,3.21,0,0,1,43.39,11.25Zm-13.66,17V11.94a3.2,3.2,0,0,1-2.31-2.3H3.21a1.61,1.61,0,0,0-1.6,1.61v4.9a4,4,0,0,1,3.21,3.94A4,4,0,0,1,1.61,24v4.91a1.6,1.6,0,0,0,1.6,1.6H27.42A3.21,3.21,0,0,1,29.73,28.24Zm12.05-17a1.61,1.61,0,0,0-1.6-1.61H33.65a3.22,3.22,0,0,1-2.31,2.3v16.3a3.22,3.22,0,0,1,2.31,2.29h6.53a1.6,1.6,0,0,0,1.6-1.6V24a4,4,0,0,1,0-7.87ZM27,20.25a.81.81,0,0,1,.32.64V23.3a.8.8,0,0,1-.8.81H20l-4.29,3.06a.77.77,0,0,1-.46.15h-4a.79.79,0,0,1-.74-.5.78.78,0,0,1,.17-.87l1.84-1.84H11.25a.82.82,0,0,1-.63-.31l-3.21-4a.79.79,0,0,1-.18-.51v-4A.81.81,0,0,1,8,14.46h2.41a.79.79,0,0,1,.64.33l2.17,2.89h10a.75.75,0,0,1,.48.16Zm-1.29,1-2.68-2H12.86a.8.8,0,0,1-.65-.32L10,16.07H8.84V19l2.8,3.5h2.49l1.37-1.37a.8.8,0,0,1,1.14,1.13L15,23.87h0l-1.84,1.84H15l5.41-3.87a.82.82,0,0,1,1.13.19.8.8,0,0,1,.13.47h4Zm10.45-6.83H34.55a.81.81,0,0,0,0,1.61h1.61a.81.81,0,0,0,0-1.61Zm0,3.22H34.55a.8.8,0,0,0,0,1.6h1.61a.8.8,0,0,0,0-1.6Zm0,3.21H34.55a.81.81,0,0,0,0,1.61h1.61a.81.81,0,0,0,0-1.61Zm0,3.22H34.55a.8.8,0,0,0,0,1.6h1.61a.8.8,0,0,0,0-1.6ZM22.5,14.46h3.21a.8.8,0,1,0,0-1.6H22.5a.8.8,0,0,0,0,1.6Zm-4.82,0h1.6a.8.8,0,1,0,0-1.6h-1.6a.8.8,0,1,0,0,1.6Z"/></g></g></svg>