<svg xmlns="http://www.w3.org/2000/svg" viewBox="0 0 36.46 37.11"><defs><style>.cls-1{fill:#009edb;}</style></defs><g id="Layer_2" data-name="Layer 2"><g id="Layer_1-2" data-name="Layer 1"><path class="cls-1" d="M30,7.72H25.72V6A6,6,0,0,0,19.77,0H16.69a6,6,0,0,0-6,6V7.72H6.51A6.51,6.51,0,0,0,0,14.22V28.08a6.51,6.51,0,0,0,5.63,6.44,3.33,3.33,0,0,0,3.24,2.59h2A3.32,3.32,0,0,0,14,34.59h8.38a3.31,3.31,0,0,0,3.21,2.52h2a3.31,3.31,0,0,0,3.23-2.59,6.51,6.51,0,0,0,5.64-6.44V14.22A6.51,6.51,0,0,0,30,7.72ZM4.88,32.54a4.75,4.75,0,0,1-3.12-4.46V14.22A4.74,4.74,0,0,1,4.88,9.77ZM12.49,6a4.2,4.2,0,0,1,4.2-4.19h3.08A4.2,4.2,0,0,1,24,6V7.72H12.49ZM6.64,9.47h1V32.83h-1Zm4.19,25.89h-2a1.56,1.56,0,0,1-1.34-.77h4.63A1.56,1.56,0,0,1,10.83,35.36ZM9.42,32.83V9.47H21.56a11.94,11.94,0,0,1-1.43,5.69l-2.61-.7a1.84,1.84,0,0,0-2.21,1.28l-2.8,10.44a1.8,1.8,0,0,0,1.28,2.21L20,30a1.84,1.84,0,0,0,.47.06,1.8,1.8,0,0,0,1.74-1.34L25,18.32a1.81,1.81,0,0,0-1.28-2.21l-1.83-.49a13.5,13.5,0,0,0,1.46-6.15H27V32.83Zm13.86-15-2.8,10.44a.06.06,0,0,1-.05,0l-6.22-1.72,2.86-10.47Zm4.31,17.49h-2a1.58,1.58,0,0,1-1.34-.77h4.64A1.59,1.59,0,0,1,27.59,35.36Zm2.23-2.53h-1V9.47h1Zm4.88-4.75a4.76,4.76,0,0,1-3.13,4.46V9.77a4.75,4.75,0,0,1,3.13,4.45Z"/><path class="cls-1" d="M19.14,20.76a1.27,1.27,0,0,0,.34,0,1.29,1.29,0,0,0,.33-2.53,1.31,1.31,0,0,0-1.58.91,1.29,1.29,0,0,0,.13,1A1.27,1.27,0,0,0,19.14,20.76Z"/></g></g></svg>