<svg xmlns="http://www.w3.org/2000/svg" viewBox="0 0 36.12 38.45"><defs><style>.cls-1{fill:#009edb;}</style></defs><g id="Layer_2" data-name="Layer 2"><g id="Layer_1-2" data-name="Layer 1"><path class="cls-1" d="M26,21.18a2,2,0,1,1-2-1.95A2,2,0,0,1,26,21.18Z"/><path class="cls-1" d="M14,21.18a2,2,0,1,1-1.95-1.95A2,2,0,0,1,14,21.18Z"/><path class="cls-1" d="M22.54,27.57c0,1.67-1.88,2.89-4.48,2.89s-4.48-1.22-4.48-2.89a1.29,1.29,0,0,1,2.56-.17,3.29,3.29,0,0,0,1.92.48A3.29,3.29,0,0,0,20,27.4a1.29,1.29,0,0,1,2.56.17Z"/><path class="cls-1" d="M18.06,0C8.1,0,0,8.63,0,19.23S8.1,38.45,18.06,38.45s18.06-8.62,18.06-19.22S28,0,18.06,0Zm0,2.58a15.49,15.49,0,0,1,14.07,9.73H31A7.37,7.37,0,0,1,25.3,9.67L24,8.09a1.27,1.27,0,0,0-1.12-.45,1.32,1.32,0,0,0-1,.69,7.37,7.37,0,0,1-6.56,4H13.56a10.17,10.17,0,0,0,1.78-2.12,1.29,1.29,0,0,0-2.19-1.36,7.35,7.35,0,0,1-6.28,3.48H4A15.49,15.49,0,0,1,18.06,2.58Zm0,33.3c-8.54,0-15.48-7.47-15.48-16.65a17.61,17.61,0,0,1,.55-4.34H15.28a10,10,0,0,0,7.84-3.81l.2.25A10,10,0,0,0,31,14.89h2a17.61,17.61,0,0,1,.55,4.34C33.54,28.41,26.6,35.88,18.06,35.88Z"/></g></g></svg>