<svg xmlns="http://www.w3.org/2000/svg" viewBox="0 0 37.46 37.46"><defs><style>.cls-1{fill:#009edb;}</style></defs><g id="Layer_2" data-name="Layer 2"><g id="Layer_1-2" data-name="Layer 1"><path class="cls-1" d="M30.42,30.39a16.46,16.46,0,1,1,4.82-11.67A16.47,16.47,0,0,1,30.42,30.39ZM32,5.52a18.73,18.73,0,1,0,5.45,13.2A18.74,18.74,0,0,0,32,5.52Z"/><path class="cls-1" d="M18.78,9.72a5.53,5.53,0,0,0-4.48,2,5.76,5.76,0,0,0-1.24,3.1,1.12,1.12,0,0,0,2.24.11,3.37,3.37,0,0,1,.75-1.79A3.3,3.3,0,0,1,18.78,12a3.17,3.17,0,0,1,2.83,1.13A2.85,2.85,0,0,1,22,14.61c0,.74-.66,1.32-1.72,2.21a16.56,16.56,0,0,0-1.46,1.32,4.63,4.63,0,0,0-1.59,3.64v.09a1.12,1.12,0,1,0,2.24.17.49.49,0,0,0,0-.17v-.1c0-.64,0-1,1-2.11a15.32,15.32,0,0,1,1.26-1.16c1.17-1,2.52-2.12,2.52-3.94a5.08,5.08,0,0,0-.81-2.75A5.41,5.41,0,0,0,18.8,9.69Z"/><path class="cls-1" d="M18.39,24.64A1.63,1.63,0,1,0,20,26.27h0A1.63,1.63,0,0,0,18.39,24.64Z"/></g></g></svg>