<svg xmlns="http://www.w3.org/2000/svg" viewBox="0 0 45.85 32.89"><defs><style>.cls-1{fill:#009edb;}</style></defs><g id="Layer_2" data-name="Layer 2"><g id="Layer_1-2" data-name="Layer 1"><path class="cls-1" d="M34.6,17a6.92,6.92,0,0,1-6.24-3.43.55.55,0,1,1,.95-.55,5.86,5.86,0,0,0,5.29,2.88A6.3,6.3,0,1,0,30.25,5a.55.55,0,1,1-.76-.8A7.4,7.4,0,1,1,34.6,17Z"/><path class="cls-1" d="M34.6,17.21a7.14,7.14,0,0,1-6.45-3.55.78.78,0,0,1,.28-1.09.8.8,0,0,1,1.1.28,5.61,5.61,0,0,0,5.07,2.76A6,6,0,1,0,30.42,5.2a.8.8,0,0,1-1.13,0,.78.78,0,0,1-.22-.57A.81.81,0,0,1,29.32,4,7.65,7.65,0,1,1,34.6,17.21ZM28.84,13a.26.26,0,0,0-.15,0,.3.3,0,0,0-.11.41,6.66,6.66,0,0,0,6,3.3A7.15,7.15,0,1,0,29.66,4.4a.29.29,0,0,0-.09.21.35.35,0,0,0,.08.22.31.31,0,0,0,.43,0A6.47,6.47,0,0,1,34.6,3a6.55,6.55,0,1,1,0,13.09,6.08,6.08,0,0,1-5.5-3A.31.31,0,0,0,28.84,13Z"/><path class="cls-1" d="M11.24,17A7.4,7.4,0,1,1,16.36,4.22a.56.56,0,0,1,0,.78.54.54,0,0,1-.77,0,6.3,6.3,0,1,0-4.36,10.84,6.34,6.34,0,0,0,5.45-3.13.54.54,0,0,1,.75-.19.55.55,0,0,1,.2.75A7.46,7.46,0,0,1,11.24,17Z"/><path class="cls-1" d="M11.24,17.21A7.65,7.65,0,1,1,16.53,4a.8.8,0,0,1,.24.56.75.75,0,0,1-.22.57.73.73,0,0,1-.56.25.75.75,0,0,1-.57-.22,6,6,0,0,0-4.18-1.68,6,6,0,1,0,5.23,9.09.8.8,0,0,1,1.09-.29.79.79,0,0,1,.29,1.09A7.67,7.67,0,0,1,11.24,17.21Zm0-14.79a7.15,7.15,0,1,0,6.18,10.74.3.3,0,0,0-.11-.41.31.31,0,0,0-.41.11A6.54,6.54,0,1,1,11.24,3a6.49,6.49,0,0,1,4.53,1.82.29.29,0,0,0,.21.08.31.31,0,0,0,.3-.31.35.35,0,0,0-.1-.21A7.09,7.09,0,0,0,11.24,2.42Z"/><path class="cls-1" d="M9.86,30.12h0l-9-.56a.55.55,0,0,1-.51-.49,11.82,11.82,0,0,1-.1-1.57,12.59,12.59,0,0,1,4.13-9.32.52.52,0,0,1,.58-.1L8.35,19.5l3.46,1.13a.54.54,0,0,1,.35.69.55.55,0,0,1-.69.35L8,20.53l-3.1-1.3A11.55,11.55,0,0,0,1.35,27.5c0,.33,0,.66,0,1L9.9,29a.55.55,0,0,1,0,1.09Z"/><path class="cls-1" d="M9.86,30.37h0l-9-.57a.79.79,0,0,1-.74-.7A12.17,12.17,0,0,1,0,27.5,12.86,12.86,0,0,1,4.21,18a.78.78,0,0,1,.85-.14l3.38,1.42,3.45,1.12a.8.8,0,0,1,.51,1,.82.82,0,0,1-1,.51L7.88,20.77l-3-1.25a11.36,11.36,0,0,0-3.32,8c0,.25,0,.5,0,.75l8.29.53a.77.77,0,0,1,.55.27.79.79,0,0,1-.6,1.32ZM4.75,18.28a.28.28,0,0,0-.2.08,12.36,12.36,0,0,0-4,9.14A13.13,13.13,0,0,0,.59,29a.31.31,0,0,0,.28.27l9,.56,0,.25v-.25a.3.3,0,0,0,.3-.28.29.29,0,0,0-.28-.31l-8.72-.56,0-.21c0-.34,0-.67,0-1a11.8,11.8,0,0,1,3.59-8.45l.12-.12L8.06,20.3l3.49,1.13a.28.28,0,0,0,.37-.19.29.29,0,0,0-.19-.38L8.27,19.74,4.86,18.31A.2.2,0,0,0,4.75,18.28Z"/><path class="cls-1" d="M36,30.12a.55.55,0,0,1-.55-.51A.56.56,0,0,1,36,29l8.45-.54c0-.33,0-.66,0-1A11.52,11.52,0,0,0,41,19.23l-3,1.29-.06,0-3.51,1a.55.55,0,1,1-.31-1l3.48-1,3.35-1.41a.54.54,0,0,1,.59.1A12.63,12.63,0,0,1,45.6,27.5a13.64,13.64,0,0,1-.1,1.57.55.55,0,0,1-.51.49l-8.91.56Z"/><path class="cls-1" d="M36,30.37a.78.78,0,0,1-.79-.74.8.8,0,0,1,.74-.85l8.23-.53q0-.37,0-.75a11.32,11.32,0,0,0-3.32-8L38,20.75l-.08,0-3.51,1A.8.8,0,1,1,34,20.27l3.48-1,3.33-1.4a.78.78,0,0,1,.85.14,12.9,12.9,0,0,1,4.21,9.51,14.35,14.35,0,0,1-.1,1.61.79.79,0,0,1-.75.69Zm5-11.44.12.12a11.8,11.8,0,0,1,3.59,8.45c0,.34,0,.68,0,1v.21L36,29.28a.3.3,0,0,0,0,.59v.25l0-.25L45,29.31a.3.3,0,0,0,.28-.27,13,13,0,0,0,.1-1.54,12.39,12.39,0,0,0-4.05-9.14.29.29,0,0,0-.32-.05l-3.35,1.41-3.51,1a.3.3,0,1,0,.17.57l3.51-1Z"/><path class="cls-1" d="M23,16.34a8,8,0,1,1,8.05-8A8.06,8.06,0,0,1,23,16.34Zm0-15a6.95,6.95,0,1,0,7,6.94A7,7,0,0,0,23,1.35Z"/><path class="cls-1" d="M23,16.59a8.3,8.3,0,1,1,8.3-8.3A8.3,8.3,0,0,1,23,16.59ZM23,.5a7.8,7.8,0,1,0,7.8,7.79A7.81,7.81,0,0,0,23,.5Zm0,15a7.2,7.2,0,1,1,7.2-7.2A7.21,7.21,0,0,1,23,15.49ZM23,1.6a6.7,6.7,0,1,0,6.7,6.69A6.7,6.7,0,0,0,23,1.6Z"/><path class="cls-1" d="M30.74,32.64H15.2a.53.53,0,0,1-.24-.06L9.63,30.07a.54.54,0,0,1-.31-.43,13.69,13.69,0,0,1,4.39-11.88.54.54,0,0,1,.56-.11L18,19a.55.55,0,0,1-.36,1L14.21,18.8a12.65,12.65,0,0,0-3.9,9.13,11,11,0,0,0,.07,1.28l4.94,2.33H30.68l1.69-.35,3.16-1.94c0-.44.07-.88.07-1.32a12.7,12.7,0,0,0-3.89-9.12l-3.38,1.42a.55.55,0,0,1-.72-.29.56.56,0,0,1,.3-.72l3.7-1.56a.52.52,0,0,1,.58.1,13.85,13.85,0,0,1,4.4,11.88.53.53,0,0,1-.26.4l-3.46,2.13a.45.45,0,0,1-.18.07l-1.84.38Z"/><path class="cls-1" d="M30.74,32.89H15.2a.85.85,0,0,1-.35-.08L9.52,30.3a.79.79,0,0,1-.45-.63A14.39,14.39,0,0,1,9,27.93a14,14,0,0,1,4.58-10.35.8.8,0,0,1,.81-.17l3.72,1.33a.76.76,0,0,1,.45.41.8.8,0,0,1-1,1.09l-3.26-1.16a12.47,12.47,0,0,0-3.71,8.85c0,.37,0,.74,0,1.11l4.77,2.25h15.3l1.6-.34,3-1.85a11.31,11.31,0,0,0,.06-1.17,12.48,12.48,0,0,0-3.7-8.83l-3.22,1.36a.81.81,0,0,1-.61,0,.84.84,0,0,1-.44-.43.83.83,0,0,1,0-.62.79.79,0,0,1,.43-.43l3.7-1.56a.8.8,0,0,1,.85.14,14,14,0,0,1,4.58,10.36,14.27,14.27,0,0,1-.1,1.74.8.8,0,0,1-.38.59L33,32.39a.82.82,0,0,1-.26.1l-1.84.38Zm-16.66-15a.31.31,0,0,0-.2.07A13.42,13.42,0,0,0,9.57,29.61a.27.27,0,0,0,.17.23l5.33,2.52a.28.28,0,0,0,.13,0H30.8L32.64,32l.1,0,3.46-2.13a.3.3,0,0,0,.14-.22,13.3,13.3,0,0,0,.1-1.68,13.55,13.55,0,0,0-4.41-10,.29.29,0,0,0-.32-.05L28,19.45a.31.31,0,0,0-.16.16.3.3,0,0,0,0,.23A.3.3,0,0,0,28,20a.3.3,0,0,0,.23,0l3.52-1.49.12.12a13,13,0,0,1,4,9.3c0,.45,0,.9-.07,1.34l0,.13-3.33,2-1.7.35H15.26l0,0-5.07-2.39v-.14a11.33,11.33,0,0,1-.07-1.3,12.94,12.94,0,0,1,4-9.31l.11-.11,3.55,1.26a.29.29,0,0,0,.38-.18.27.27,0,0,0,0-.23.28.28,0,0,0-.17-.15l-3.72-1.33Z"/><path class="cls-1" d="M22.91,24.88a.54.54,0,0,1-.36-.14l-5.4-4.68A.53.53,0,0,1,17,19.6a.52.52,0,0,1,.25-.42,11.39,11.39,0,0,1,11.44,0,.56.56,0,0,1,.28.43.59.59,0,0,1-.19.47l-5.48,4.69A.55.55,0,0,1,22.91,24.88Zm-4.43-5.13,4.43,3.85,4.5-3.85A10.39,10.39,0,0,0,18.48,19.75Z"/><path class="cls-1" d="M22.91,25.13a.81.81,0,0,1-.53-.2L17,20.25a.81.81,0,0,1-.27-.66.79.79,0,0,1,.36-.62,11.63,11.63,0,0,1,11.7,0,.8.8,0,0,1,.4.62.79.79,0,0,1-.27.69l-5.48,4.69A.83.83,0,0,1,22.91,25.13ZM23,17.87a11.07,11.07,0,0,0-5.62,1.52.28.28,0,0,0-.13.23.3.3,0,0,0,.1.25l5.39,4.69a.32.32,0,0,0,.39,0l5.48-4.69a.3.3,0,0,0,.11-.26.31.31,0,0,0-.15-.23A11.25,11.25,0,0,0,23,17.87Zm-.06,6.06L18,19.69l.35-.17a10.71,10.71,0,0,1,9.15,0l.35.16Zm-4-4.11,4,3.45,4-3.45A10.16,10.16,0,0,0,18.94,19.82Z"/></g></g></svg>