<svg xmlns="http://www.w3.org/2000/svg" viewBox="0 0 25 25"><defs><style>.cls-1{fill:#009bda;}</style></defs><g id="Layer_2" data-name="Layer 2"><g id="Layer_1-2" data-name="Layer 1"><path class="cls-1" d="M12.5,0A12.5,12.5,0,1,0,25,12.5,12.5,12.5,0,0,0,12.5,0Zm0,23A10.5,10.5,0,1,1,23,12.5,10.5,10.5,0,0,1,12.5,23Zm1-17v9a1,1,0,0,1-2,0V6a1,1,0,0,1,2,0Zm-.29,11.29a1.05,1.05,0,0,1,.29.71v.2a.64.64,0,0,1-.06.18.76.76,0,0,1-.09.18l-.12.15-.15.12a.76.76,0,0,1-.18.09l-.2.08h-.2a1.05,1.05,0,0,1-.71-.29l-.12-.15a.76.76,0,0,1-.09-.18.71.71,0,0,1-.08-.18.67.67,0,0,1,0-.2,1.05,1.05,0,0,1,.29-.71A1,1,0,0,1,12.7,17l.18.06.18.09Z"/></g></g></svg>