<svg xmlns="http://www.w3.org/2000/svg" viewBox="0 0 200 200"><defs><style>.cls-1{fill:#005da2;}</style></defs><g id="Layer_2" data-name="Layer 2"><g id="Layer_1-2" data-name="Layer 1"><path class="cls-1" d="M165.32,152c.71,1.84,1.38,3.71,2,5.59,0,.14,0,.14.08,0,3.93-10.52,18.27-20.81,27.45-17.5L139.53,13C135,3.39,126,0,118.39,5.63,115,8.19,112.18,12.51,111,18.32a.75.75,0,0,1,0,.16ZM56,77.94c-.49,1-1.65,0-1.16-.94l9.46-18.61,6.23,5.73,8-16.09L97.4,63.9a1,1,0,0,1,.19,1.21.61.61,0,0,1-1,.24L79,50.47,71,66.63l-6.25-5.75Zm-1.1-24.13a5.64,5.64,0,0,1,0,7.26,4,4,0,0,1-6.21,0,5.63,5.63,0,0,1,0-7.26,4,4,0,0,1,6.2,0ZM54,55.1a2.86,2.86,0,0,0-4.37,0,3.59,3.59,0,0,0,0,4.68,2.86,2.86,0,0,0,4.37,0A3.61,3.61,0,0,0,54,55.1Zm-1.27,46.76c-.9.14-1.07-1.58-.18-1.72a108.22,108.22,0,0,0,25.7-7.29c.86-.37,1.3,1.27.45,1.64a109.56,109.56,0,0,1-26,7.37ZM87.33,91.12c-.87.35-1.28-1.31-.42-1.66,8.1-3.23,16.17-6.39,24.68-7.36.9-.11,1,1.62.12,1.72-8.38,1-16.4,4.11-24.38,7.3Zm-30.58,21.8c-.9.14-1.08-1.58-.18-1.72a108.22,108.22,0,0,0,25.7-7.29c.86-.37,1.3,1.27.45,1.64a109.56,109.56,0,0,1-26,7.37Zm34.57-10.74c-.87.35-1.28-1.31-.42-1.66,8.1-3.23,16.17-6.39,24.68-7.36.9-.11,1,1.62.12,1.72C107.32,95.85,99.3,99,91.32,102.18ZM60.74,124c-.9.14-1.08-1.58-.18-1.72a127.61,127.61,0,0,0,13.81-3.05c.88-.25,1.19,1.44.3,1.7A129.28,129.28,0,0,1,60.74,124Zm34.57-10.74c-.87.35-1.28-1.31-.42-1.66,4.12-1.64,8.25-3.28,12.45-4.62.88-.27,1.21,1.41.33,1.69C103.51,110,99.4,111.61,95.31,113.24ZM64.73,135c-.9.14-1.08-1.58-.18-1.72A108.35,108.35,0,0,0,90.25,126c.86-.37,1.3,1.27.45,1.64a109.69,109.69,0,0,1-26,7.37ZM99.3,124.3c-.87.35-1.28-1.31-.42-1.66,8.1-3.23,16.17-6.39,24.68-7.36.9-.11,1,1.62.12,1.72-8.38,1-16.4,4.11-24.38,7.3ZM68.72,146.1c-.9.14-1.08-1.58-.18-1.72a108.35,108.35,0,0,0,25.7-7.29c.85-.37,1.3,1.27.45,1.64A109.69,109.69,0,0,1,68.72,146.1Zm34.57-10.74c-.87.35-1.28-1.31-.42-1.66,8.1-3.23,16.17-6.39,24.67-7.36.91-.11,1,1.62.13,1.72C119.29,129,111.27,132.17,103.29,135.36Zm-30.58,21.8c-.9.14-1.08-1.58-.18-1.72a126.77,126.77,0,0,0,14.41-3.22c.88-.26,1.19,1.44.3,1.69A126.75,126.75,0,0,1,72.71,157.16Zm34.57-10.74c-.87.35-1.28-1.31-.42-1.66,4.3-1.71,8.6-3.42,13-4.78.88-.27,1.21,1.41.33,1.68C115.82,143,111.54,144.72,107.28,146.42Zm-73.06-100c9.32-2.49,18.85-5.73,28.24-8.93C72.6,34,82.58,30.65,92,28.31l.52-.13q8.41,21.75,16.84,43.49l-.86.24C88.28,77.5,68.57,85.43,48.29,90.69L33.4,46.63Zm28.6-7.25c-9.13,3.11-18.39,6.26-27.49,8.73L49.11,88.7c19.59-5.13,38.71-12.77,58.22-18.25L91.72,30.15c-9.2,2.32-19,5.65-28.9,9ZM46.51,200a1.12,1.12,0,0,1-1.29-.88L1.23,62.91c-.38-1.26-.67-2.24-.87-3-1-3.86,0-4.23,2.86-5,.83-.22,1.65-.49,2.48-.73C5.17,52.56,4.64,51,4.13,49.35,3.4,47,3,45.85,3.48,44.69s1.6-1.51,3.84-1.91L11,42.11l-.24-.78c-1.07-3.5-1.62-5.29-.93-6.84s2.3-2,5.56-2.73c13.86-3.22,27.42-7.72,41-12.35,25.11-8.55,43.29-14.74,52.83-3.49a22.6,22.6,0,0,1,8-12.79c8.67-6.44,19.15-2.6,24.28,8.38l56,128.48c1.48,3.41,3.23,5.91,2.2,10-2.23,8.84-13.31,16.36-19.48,19.74-18.71,10.26-51.69,15.88-72.64,14.71A348.4,348.4,0,0,1,46.51,200ZM6.59,56.89c-1,.26-1.93.59-2.9.84-1.27.34-1.43.23-1.17,1.21s.57,2,.86,3L47,197c50.83-8.57,79.31-22.72,96.48-31.25,5.7-2.84,10.2-5.07,13.89-6.28-7.17-.23-16,3.32-28.66,8.4-17.12,6.87-41,16.48-76.92,23.2a1.09,1.09,0,0,1-1.41-.83L6.59,56.89Zm5.22-12-4.17.77c-1.65.27-2.11.27-1.38,2.62C6.82,50,7.39,51.74,8,53.48L52.16,188c35.35-6.69,59-16.16,75.87-23,14.37-5.77,24-9.64,32.05-8.31h0c-5.34-2.51-12.6-1.9-21.53.38-8,2-16,4.92-23.89,7.68-13.11,4.57-28.14,9.82-44.79,13.51-4.51,1-9,1.83-13.54,2.56l-44.52-136ZM109,19.9c-8.08-12.67-26.3-6.46-52,2.31-13.66,4.65-27.26,9.16-41.19,12.4-2.55.59-3.8.88-4,1.28s.26,1.73,1.08,4.4c.22.75.48,1.59.78,2.61L57.78,177.75q5.86-1,11.68-2.26c15.13-3.35,29.81-8.29,44.59-13.45,8-2.8,16.11-5.73,24.25-7.77,11.13-2.8,19.87-3.08,25.92,1.9.23.19.21.22.1-.08-.42-1.15-.84-2.27-1.3-3.4L109,19.9Zm84.56,122.72c-9-2.24-23.24,8.71-24.94,19.56-.11.69-.52,1.19-1.13,1.2-.85,0-1.21-1.2-2.14-1.58-4.23-1.73-10.42,1.34-21,6.62-7.38,3.67-16.86,8.37-29.28,13.23,19.73-.47,46.56-4.86,64.25-14.56,5.43-3,16.32-10.15,18.15-18.11.65-2.87-.15-5.43-3.88-6.36Z"/></g></g></svg>