<svg xmlns="http://www.w3.org/2000/svg" viewBox="0 0 123.54 77.21"><defs><style>.cls-1{fill:#009bd8;}</style></defs><g id="Layer_2" data-name="Layer 2"><g id="Layer_1-2" data-name="Layer 1"><path class="cls-1" d="M115.82,29a5.79,5.79,0,0,0,5.79,5.79,1.94,1.94,0,0,1,1.93,1.93V50.19a7.74,7.74,0,0,1-7.72,7.72H110a1.93,1.93,0,0,1,0-3.86h5.8a3.88,3.88,0,0,0,3.86-3.86V38.41a9.65,9.65,0,0,1,0-18.91V7.72a3.87,3.87,0,0,0-3.86-3.86H100.13a7.72,7.72,0,0,1-5.55,5.52v4.13a1.93,1.93,0,1,1-3.86,0V9.38a7.71,7.71,0,0,1-5.54-5.52H27a3.86,3.86,0,0,0-3.86,3.86v5.79a1.93,1.93,0,1,1-3.86,0V7.72A7.73,7.73,0,0,1,27,0H86.86a1.92,1.92,0,0,1,1.93,1.93,3.86,3.86,0,0,0,7.72,0A1.93,1.93,0,0,1,98.44,0h17.38a7.73,7.73,0,0,1,7.72,7.72V21.23a1.93,1.93,0,0,1-1.93,1.93A5.79,5.79,0,0,0,115.82,29ZM104.23,27V40.54a1.93,1.93,0,0,1-1.93,1.93,5.79,5.79,0,1,0,0,11.58A1.92,1.92,0,0,1,104.23,56V69.49a7.72,7.72,0,0,1-7.72,7.72H79.14a1.92,1.92,0,0,1-1.93-1.93,3.86,3.86,0,0,0-7.72,0,1.93,1.93,0,0,1-1.93,1.93H7.72A7.72,7.72,0,0,1,0,69.49V56a1.92,1.92,0,0,1,1.93-1.93,5.79,5.79,0,0,0,0-11.58A1.93,1.93,0,0,1,0,40.54V27A7.73,7.73,0,0,1,7.72,19.3H67.56a1.94,1.94,0,0,1,1.93,1.93,3.86,3.86,0,0,0,7.72,0,1.93,1.93,0,0,1,1.93-1.93H96.51A7.73,7.73,0,0,1,104.23,27ZM71.42,67.83V28.68a7.73,7.73,0,0,1-5.55-5.52H7.72A3.87,3.87,0,0,0,3.86,27V38.8a9.65,9.65,0,0,1,0,18.91V69.49a3.86,3.86,0,0,0,3.86,3.86H65.87A7.73,7.73,0,0,1,71.42,67.83Zm29-40.81a3.87,3.87,0,0,0-3.86-3.86H80.83a7.73,7.73,0,0,1-5.55,5.52V67.83a7.73,7.73,0,0,1,5.55,5.52H96.51a3.86,3.86,0,0,0,3.86-3.86V57.71a9.65,9.65,0,0,1,0-18.91ZM64.86,48.64a2,2,0,0,1,.77,1.55V56a1.94,1.94,0,0,1-1.93,1.93H48.1L37.8,65.27a2,2,0,0,1-1.13.36H27a1.93,1.93,0,0,1-1.36-3.3l4.42-4.42H27a1.91,1.91,0,0,1-1.5-.73L17.8,47.53a1.88,1.88,0,0,1-.43-1.2V36.67a1.94,1.94,0,0,1,1.93-1.93h5.79a1.94,1.94,0,0,1,1.55.78l5.21,6.95H56a2,2,0,0,1,1.16.38Zm-3.09,2.51-6.44-4.82H30.88a1.92,1.92,0,0,1-1.54-.78l-5.21-6.94h-2.9v7L28,54.05h6l3.29-3.3A1.93,1.93,0,1,1,40,53.48l-3.86,3.86h0l-4.43,4.43h4.38l13-9.29a1.92,1.92,0,0,1,2.69.45,1.9,1.9,0,0,1,.32,1.12h9.69ZM86.86,34.74H83a1.94,1.94,0,0,0,0,3.87h3.86a1.94,1.94,0,0,0,0-3.87Zm0,7.73H83a1.93,1.93,0,0,0,0,3.86h3.86a1.93,1.93,0,1,0,0-3.86Zm0,7.72H83a1.93,1.93,0,0,0,0,3.86h3.86a1.93,1.93,0,1,0,0-3.86Zm0,7.72H83a1.93,1.93,0,0,0,0,3.86h3.86a1.93,1.93,0,0,0,0-3.86ZM54.05,34.74h7.72a1.93,1.93,0,0,0,0-3.86H54.05a1.93,1.93,0,0,0,0,3.86Zm-11.58,0h3.86a1.93,1.93,0,0,0,0-3.86H42.47a1.93,1.93,0,1,0,0,3.86Z"/></g></g></svg>