<svg xmlns="http://www.w3.org/2000/svg" viewBox="0 0 64.04 64"><defs><style>.cls-1{fill:#009bda;}</style></defs><g id="Layer_2" data-name="Layer 2"><g id="Layer_1-2" data-name="Layer 1"><path class="cls-1" d="M59,4H5A.94.94,0,0,0,4,5V35a.94.94,0,0,0,1,1H59a.94.94,0,0,0,1-1V5A.94.94,0,0,0,59,4ZM58,34H6V6H58ZM61,0H3A3,3,0,0,0,0,3V42a3,3,0,0,0,3,3H61a3,3,0,0,0,3-3V3A3,3,0,0,0,61,0Zm1,42a.94.94,0,0,1-1,1H3a.94.94,0,0,1-1-1V3A.94.94,0,0,1,3,2H61a.94.94,0,0,1,1,1Zm-4-2.5a1.5,1.5,0,1,1-1.5-1.5A1.54,1.54,0,0,1,58,39.5ZM53,40a.94.94,0,0,1-1,1H43a1,1,0,1,1,0-2h9A.94.94,0,0,1,53,40ZM15,16a.94.94,0,0,1,1-1H37a1,1,0,0,1,0,2H16A.94.94,0,0,1,15,16Zm25,0a.94.94,0,0,1,1-1h9a1,1,0,0,1,0,2H41A.94.94,0,0,1,40,16ZM15,20a.94.94,0,0,1,1-1h8a1,1,0,0,1,0,2H16A.94.94,0,0,1,15,20Zm13-1H39a1,1,0,0,1,0,2H28a1,1,0,0,1,0-2ZM15,24a.94.94,0,0,1,1-1H28a1,1,0,0,1,0,2H16A.94.94,0,0,1,15,24ZM58,55a5,5,0,0,0-5-5H51a3,3,0,0,1-3-3,1,1,0,0,0-2,0,5,5,0,0,0,5,5h2a3,3,0,0,1,3,3,6,6,0,0,0-6,6,3,3,0,0,0,3,3h8a3,3,0,0,0,3-3A6,6,0,0,0,58,55Zm3,7H53a.94.94,0,0,1-1-1,4,4,0,0,1,4-4h2a4,4,0,0,1,4,4A.94.94,0,0,1,61,62ZM46,54a.94.94,0,0,1-1,1H19a1,1,0,1,1,0-2h1a6,6,0,0,0,6-6,1,1,0,0,1,2,0,8.23,8.23,0,0,1-2.7,6h13.4A7.88,7.88,0,0,1,36,47a1,1,0,0,1,2,0,6,6,0,0,0,6,6h1A.94.94,0,0,1,46,54Zm-3,4.8a1.08,1.08,0,0,0-1-.8H2a1,1,0,0,0-1,.8l-1,4a1,1,0,0,0,.2.9A1.14,1.14,0,0,0,1,64H43a.91.91,0,0,0,.8-.4,1,1,0,0,0,.2-.9ZM2.34,62l.5-2h38.4l.5,2Z"/></g></g></svg>