<svg xmlns="http://www.w3.org/2000/svg" viewBox="0 0 38.63 71.08"><defs><style>.cls-1{fill:#009ad9;}</style></defs><g id="Layer_2" data-name="Layer 2"><g id="Layer_1-2" data-name="Layer 1"><path class="cls-1" d="M19.32,62.76a2.54,2.54,0,1,0,2.54,2.54h0A2.55,2.55,0,0,0,19.32,62.76Zm0,3.53a1,1,0,1,1,1-1A1,1,0,0,1,19.32,66.29Z"/><rect class="cls-1" x="15.32" y="4.2" width="4.44" height="1.55"/><path class="cls-1" d="M22.24,5.76a.76.76,0,0,0,1-.42.72.72,0,0,0,.06-.29.8.8,0,0,0-.22-.55.77.77,0,0,0-1.08,0h0a.76.76,0,0,0,0,1.07l0,0A.66.66,0,0,0,22.24,5.76Z"/><path class="cls-1" d="M36.31,0h-34A2.32,2.32,0,0,0,0,2.32V68.77a2.31,2.31,0,0,0,2.32,2.31h34a2.31,2.31,0,0,0,2.32-2.31V2.32A2.32,2.32,0,0,0,36.31,0Zm-34,1.55h34a.77.77,0,0,1,.78.77V8.5H1.55V2.32A.76.76,0,0,1,2.32,1.55ZM37.09,10V59.49H1.55V10Zm-.78,59.5h-34a.77.77,0,0,1-.77-.77V61H37.09v7.73A.78.78,0,0,1,36.31,69.54Z"/></g></g></svg>