<svg xmlns="http://www.w3.org/2000/svg" viewBox="0 0 200.96 200"><defs><style>.cls-1{fill:#005da0;fill-rule:evenodd;}</style></defs><g id="Layer_2" data-name="Layer 2"><g id="Layer_1-2" data-name="Layer 1"><path class="cls-1" d="M113.62,33.84,30.1,9.65a2,2,0,0,0-2,.54L15.23,23.43a2.14,2.14,0,0,0,.37,3.28L70.71,62.13H4a2.08,2.08,0,0,0-2.05,2.11V90.77A2.09,2.09,0,0,0,4,92.88c14.06,0,25.71,8.78,25.79,20l-11.92-4.58a2,2,0,0,0-2.16.49L.6,124.29a2.15,2.15,0,0,0,.29,3.23l7.46,5.27a33.22,33.22,0,0,1-4.38.29,2.08,2.08,0,0,0-2.05,2.11v26.53A2.09,2.09,0,0,0,4,163.83H46.9l23.51,35.25a2.06,2.06,0,0,0,1.51.91,2,2,0,0,0,1.63-.61l15.08-15.52a2.15,2.15,0,0,0,.47-2.23l-6.45-17.8h73.5L168.35,184a2.09,2.09,0,0,0,1.51,1,2,2,0,0,0,1.68-.61l12.86-13.23a2.17,2.17,0,0,0,.52-2.07l-1.42-5.19h15.41a2.09,2.09,0,0,0,2.05-2.11V135.18a2.16,2.16,0,0,0-.61-1.51,2.07,2.07,0,0,0-1.48-.6h-.67c-14.11,0-25.79-8.84-25.79-20.1s11.68-20.1,25.79-20.1h.67a2,2,0,0,0,1.48-.6,2.16,2.16,0,0,0,.61-1.51V64.24a2.08,2.08,0,0,0-2.05-2.11H180.4c6.09-10,11.63-23.24,13.37-34.72,1.39-9.23.24-17.36-4.5-22.24C183.77-.49,174-1.12,163.21,1.44,147.93,5.09,130.8,14.91,123,23,121.15,24.84,117.87,28.65,113.62,33.84Zm-35.35,130H51.88L72.4,194.6l12.4-12.76Zm101,0H161l9.48,15.63L180.65,169Zm-1.7-97.48a2,2,0,0,1-2.4,0l0,0H6V88.71c15.65.87,27.84,11.56,27.84,24.27,0,10-7.59,18.8-18.48,22.48a2,2,0,0,1-2.17.65A34.82,34.82,0,0,1,6,137.24v22.37H196.86V137.27c-16-.57-28.55-11.39-28.55-24.29s12.56-23.72,28.55-24.3V66.35Zm-116,86.93h0a2.05,2.05,0,1,0-4.1,0h0a2.05,2.05,0,1,0,4.1,0Zm0-8.45h0a2.05,2.05,0,1,0-4.1,0h0a2.05,2.05,0,1,0,4.1,0Zm0-8.44h0a2.05,2.05,0,1,0-4.1,0h0a2.05,2.05,0,1,0,4.1,0ZM29.21,117.16l-11.57-4.45L5.25,125.48l8.6,6.07C21.57,129.07,27.44,123.75,29.21,117.16ZM61.55,128h0a2.05,2.05,0,1,0-4.1,0h0a2.05,2.05,0,1,0,4.1,0Zm44.23-.77h55.43a2.12,2.12,0,0,0,0-4.23H105.78a2.12,2.12,0,0,0,0,4.23ZM61.55,119.5h0a2.05,2.05,0,1,0-4.1,0h0a2.05,2.05,0,1,0,4.1,0Zm44.23-3.37h55.43a2.11,2.11,0,0,0,0-4.22H105.78a2.11,2.11,0,0,0,0,4.22Zm-44.23-5.07h0a2.05,2.05,0,1,0-4.1,0h0a2.05,2.05,0,1,0,4.1,0Zm0-8.44h0a2.05,2.05,0,1,0-4.1,0h0a2.05,2.05,0,1,0,4.1,0Zm44.23-29.83a2.08,2.08,0,0,0-2,2.11v27a2.08,2.08,0,0,0,2,2.11h55.43a2.08,2.08,0,0,0,2-2.11v-27a2.08,2.08,0,0,0-2-2.11Zm2,4.22h51.33V99.75H107.83ZM61.55,94.17h0a2.05,2.05,0,1,0-4.1,0h0a2.05,2.05,0,1,0,4.1,0Zm0-8.44h0a2.05,2.05,0,1,0-4.1,0h0a2.05,2.05,0,1,0,4.1,0Zm0-8.44h0a2.05,2.05,0,1,0-4.1,0h0a2.05,2.05,0,1,0,4.1,0Zm0-8.45h0a2.05,2.05,0,1,0-4.1,0h0a2.05,2.05,0,1,0,4.1,0Zm49.19-31.45L30.14,14.05,20,24.53l58.49,37.6h6L65.94,50.26a2.15,2.15,0,0,1-.65-2.91,2,2,0,0,1,2.82-.67l23.6,15.17C98.72,52.55,105.31,44.11,110.74,37.39Zm64.77,24.74c6.35-9.76,12.42-23.52,14.2-35.37,1.16-7.69.61-14.54-3.34-18.61-2.23-2.29-5.36-3.44-9-3.82a40.34,40.34,0,0,0-13.22,1.22C149.62,9,133.31,18.3,125.87,26,124,27.9,120.5,32,116,37.51l-.14.17c-5.28,6.48-12,15-19.14,24.45ZM138.33,31.56a2.14,2.14,0,0,0,.4,2.4,2,2,0,0,0,2.33.41,14.58,14.58,0,0,1,16.94,3,15.67,15.67,0,0,1,2.91,17.44,2.14,2.14,0,0,0,.4,2.4,2,2,0,0,0,2.33.41,18.78,18.78,0,0,0,5.24-3.82,20,20,0,0,0,0-27.63,18.61,18.61,0,0,0-26.84,0A19.49,19.49,0,0,0,138.33,31.56Zm28,18.88a19.84,19.84,0,0,0-5.43-16.06,18.62,18.62,0,0,0-15.6-5.59,14.57,14.57,0,0,1,20.68.36A15.65,15.65,0,0,1,166.33,50.44ZM55.68,43.67l5,3.17a2,2,0,0,0,2.82-.67,2.15,2.15,0,0,0-.65-2.91l-4.94-3.17a2,2,0,0,0-2.83.67A2.15,2.15,0,0,0,55.68,43.67Z"/></g></g></svg>