<svg xmlns="http://www.w3.org/2000/svg" viewBox="0 0 200 200"><defs><style>.cls-1{fill:#005da0;}</style></defs><g id="Layer_2" data-name="Layer 2"><g id="Layer_1-2" data-name="Layer 1"><path class="cls-1" d="M37.08,165.67a7.9,7.9,0,0,1-5.59-2.29,7.83,7.83,0,0,1-1.62-8.74L47,116.08A58.61,58.61,0,0,1,59.18,98.43l85.5-85.34A36.89,36.89,0,0,1,165.41,2.76L184,.1a9.78,9.78,0,0,1,11.07,11.06l-2.65,18.57a36.82,36.82,0,0,1-10.36,20.68L153.47,79l-1.34-1c-.75-.58-1.5-1.18-2.24-1.79l-4.82-4A75.38,75.38,0,0,1,93.74,93.55V138.4l-.68.57a58.92,58.92,0,0,1-14.17,8.9L40.25,165A7.84,7.84,0,0,1,37.08,165.67ZM185.42,3.83a6.22,6.22,0,0,0-.86.06L166,6.54a33,33,0,0,0-18.56,9.26l-85.5,85.33a54.8,54.8,0,0,0-11.35,16.5L33.37,156.19a4,4,0,0,0,5.32,5.32l38.64-17.14a55.13,55.13,0,0,0,12.58-7.75V89.74h2.51A71.05,71.05,0,0,0,143,68.85L144.83,67l7.51,6.24.81.66,26.21-26.16a32.92,32.92,0,0,0,9.28-18.52l2.65-18.58a5.94,5.94,0,0,0-5.87-6.78Z"/><path class="cls-1" d="M36.15,150,1.75,132.78A3.13,3.13,0,0,1,0,130.47a3.19,3.19,0,0,1,.88-2.74l5.5-5.48a8.13,8.13,0,0,1,6.18-2.35l36,2.12ZM4.29,129.78l30,15,8.56-19.23-30.46-1.79A4.23,4.23,0,0,0,9.13,125Z"/><path class="cls-1" d="M65,194.81a2.92,2.92,0,0,1-.51,0,3.14,3.14,0,0,1-2.32-1.7L45,158.74l28-12.42,2.12,35.91a8.1,8.1,0,0,1-2.36,6.18l-5.49,5.48A3.12,3.12,0,0,1,65,194.81Zm-14.81-34.2,15,29.92L70,185.71a4.25,4.25,0,0,0,1.24-3.25l-1.79-30.4Z"/><path class="cls-1" d="M90.94,72.14,18.05,28.49a2.47,2.47,0,0,1-.48-3.89l8.37-8.37A8.63,8.63,0,0,1,34.06,14l92.12,23Zm-69.45-46L90.35,67.33l28.33-28.28L33.14,17.7a4.77,4.77,0,0,0-4.49,1.24Z"/><path class="cls-1" d="M81.41,29.74,55.58,23.3l1-2.12a12.12,12.12,0,0,1,2.33-3.27L71.52,5.36a2.53,2.53,0,0,1,3.57,0L88.68,18.92a2.54,2.54,0,0,1,.74,1.78,2.5,2.5,0,0,1-.74,1.78Zm-20-8.92,18.78,4.69L85,20.7,73.3,9,61.65,20.61Z"/><path class="cls-1" d="M172.91,42.24l-2.71-2.7a6.24,6.24,0,0,0,0-8.83l-5.78-5.77a6.26,6.26,0,0,0-8.85,0l-2.71-2.71a10.13,10.13,0,0,1,14.27,0L172.91,28A10.06,10.06,0,0,1,172.91,42.24Z"/><path class="cls-1" d="M145,200l-37.75-25.12a38.66,38.66,0,0,1-17.3-32.25V89.74h2.52A71.08,71.08,0,0,0,143,68.85L144.84,67l7.5,6.24c.7.58,1.41,1.15,2.13,1.7a71.92,71.92,0,0,0,43.61,14.83H200v52.89a38.63,38.63,0,0,1-17.3,32.25ZM93.74,93.55v49.08a34.85,34.85,0,0,0,15.59,29.07L145,195.41l35.62-23.71a34.85,34.85,0,0,0,15.59-29.07V93.54a75.82,75.82,0,0,1-44-15.6c-.75-.58-1.5-1.18-2.24-1.79l-4.82-4A75.38,75.38,0,0,1,93.74,93.55Z"/><path class="cls-1" d="M135.18,162.12l-25.63-25.58,11.11-11.09,14.45,14.43,34.68-34.62L181,116.42ZM115,136.54l20.21,20.17,7-7,33.32-33.26-5.76-5.75-34.68,34.61-14.45-14.42Z"/></g></g></svg>