<svg xmlns="http://www.w3.org/2000/svg" viewBox="0 0 44.38 30.99"><defs><style>.cls-1{fill:#005da3;}</style></defs><g id="Layer_2" data-name="Layer 2"><g id="Layer_1-2" data-name="Layer 1"><rect class="cls-1" x="1.38" y="28.99" width="42" height="2"/><path class="cls-1" d="M39.12,24H12.9C10.44,24,4,19.59,2.68,18.71l-.26-.19-.11-.29A64.9,64.9,0,0,1,.08,11.67h0A1.61,1.61,0,0,1,.8,9.84l1.36-.77a1.63,1.63,0,0,1,2,.32l5.7,6.08h5.41L10.28,3.27A1.54,1.54,0,0,1,11,1.33L13,.19a1.72,1.72,0,0,1,2,.3l13.69,15H39.13a5.77,5.77,0,0,1,4,1.68,3.81,3.81,0,0,1,1.24,2.58C44.38,21.66,42,24,39.12,24Zm-.8-2h.8c1.88,0,3.26-1.57,3.26-2.24a2,2,0,0,0-.66-1.17,3.74,3.74,0,0,0-2.6-1.09H27.83L13.76,2.07l-1.47.83L18.2,17.47H9L2.86,11l-.78.43.41,1.36c.3.89.8,2.29,1.59,4.47,3,2,7.51,4.75,8.82,4.75ZM2.64,10.75h0ZM12,3.07l0,0Z"/></g></g></svg>