<svg xmlns="http://www.w3.org/2000/svg" viewBox="0 0 200 200"><defs><style>.cls-1{fill:#005da2;fill-rule:evenodd;}</style></defs><g id="Layer_2" data-name="Layer 2"><g id="Layer_1-2" data-name="Layer 1"><path class="cls-1" d="M13.48,150.14h0v0A100,100,0,0,0,176.86,164a2.17,2.17,0,0,0,.47-.57A100,100,0,1,0,13.48,150.14Zm180-28.77A54.34,54.34,0,0,0,180,118.3c-3.26-.2-6.38.13-8.64,1.74-2.49,1.77-4.17,4.48-6.09,6.89-2.33,2.93-5,5.44-8.94,6.24-6.7,1.35-14.93.22-22.45.71-6.7.43-12.84,2.22-16.29,9.28-2.6,5.33-2.3,10.42.39,15.61,1.23,2.38,3.42,5.75,4.46,9a9.71,9.71,0,0,1-.25,7.58,11.39,11.39,0,0,1-4,4.09,49.76,49.76,0,0,1-6.74,3.3c-6.63,3-13.08,5.64-14.87,13.07,1.12,0,2.24.06,3.37.06A96,96,0,0,0,193.52,121.37Zm.83-4A96,96,0,0,0,100,4.08,97.11,97.11,0,0,0,90,4.6a2,2,0,0,1-.52,2.08h0A2,2,0,0,1,86,5.09,96,96,0,0,0,20.89,45.78a53.79,53.79,0,0,1,6,1.06A16.75,16.75,0,0,1,32.63,49C37,52.1,38.17,56.09,38,60.39c-.17,3.7-1.43,7.66-2,11.29a24.76,24.76,0,0,0-.51,4.17,4.72,4.72,0,0,0,.85,3,10.2,10.2,0,0,0,4.33,2.88c2,.82,4.15,1.41,5.95,2.11,6.87,2.66,13.27,10,12.41,17.78-.45,4.11-2.67,6.68-5.59,8.61-2.46,1.63-5.47,2.75-8,4.15a15.19,15.19,0,0,0-5.91,6.09c-2.11,3.88-2.67,8.26-3,12.61-.22,3.34,0,7-1.7,10-2,3.65-6,5.77-9.91,6.86a47.65,47.65,0,0,1-6.13,1A95.93,95.93,0,0,0,92.5,195.63c1.88-9.3,9.28-12.9,17.31-16.56,1.61-.73,3.53-1.46,5.27-2.44a8.34,8.34,0,0,0,3.51-3.15,5.72,5.72,0,0,0,0-4.43c-1-3.08-3-6.19-4.2-8.41-3.31-6.41-3.64-12.68-.43-19.27.33-.67.68-1.31,1-1.91l-.13-.1h0a2,2,0,1,1,2.55-3.18h0l0,0c4.24-4.5,10-6,16.18-6.41,7.34-.47,15.37.68,21.92-.63,3-.6,4.81-2.6,6.55-4.78,2.15-2.71,4.12-5.69,6.92-7.68,3-2.1,7-2.75,11.25-2.48A57.43,57.43,0,0,1,194.35,117.34Zm-26.59,42.11h0a2,2,0,0,0-.65,4h0a2,2,0,0,0,.65-4Zm-7.82-1.61h0a2,2,0,1,0-1,4h0a2,2,0,0,0,1-4Zm-7.67-2.27h0a2,2,0,0,0-1.31,3.87h0a2,2,0,1,0,1.31-3.87Zm-7.47-2.86h0a2,2,0,1,0-1.61,3.75h0a2,2,0,0,0,1.61-3.75Zm-7.25-3.41h0a2,2,0,0,0-1.87,3.63h0a2,2,0,1,0,1.87-3.63ZM72.91,71.71a7.58,7.58,0,0,0-4.66,1c-2.06,1.28-3.33,3.76-3.76,6.89-.85,6.13,1.43,14.92,3.94,19,.42.68,1.26,1.88,2.41,3.44l-14.3,25.91A2.05,2.05,0,0,0,56.6,130L60,135.37a2,2,0,0,0,3.17.37L82.4,116.58c4,4.77,8.3,9.66,12.22,13.63l-6.28,9.43a2.05,2.05,0,0,0,0,2.21l3.94,6.36a2.05,2.05,0,0,0,3.11.43L106,138.93a3.66,3.66,0,0,0,4.82-3l13.43-5.23a2,2,0,0,0,1-3l-3.94-6.35a2,2,0,0,0-2-.95l-11.23,1.44c-1.82-5.28-4.29-11.32-6.79-17L127,96.11a2,2,0,0,0,1.08-3l-3.36-5.42a2,2,0,0,0-1.83-1L93.34,88c-.89-1.72-1.58-3-2-3.69-2.51-4-9.37-10-15.24-12a14.75,14.75,0,0,0-1.81-.48A2,2,0,0,0,72.91,71.71Zm57.64,73.67h0a2,2,0,1,0-2.12,3.49h0a2,2,0,1,0,2.12-3.49ZM18.38,49.62a95.93,95.93,0,0,0-2,97.44A46.58,46.58,0,0,0,23.76,146c2.87-.81,5.94-2.22,7.45-4.92,1.4-2.49,1-5.52,1.19-8.28.32-4.94,1.05-9.89,3.45-14.3a19.2,19.2,0,0,1,7.53-7.71c2.46-1.35,5.37-2.41,7.74-4a7.51,7.51,0,0,0,3.78-5.65c.67-6-4.53-11.48-9.82-13.53-2.22-.85-4.95-1.56-7.33-2.71A12.81,12.81,0,0,1,33,81.34c-2.28-3-1.71-6.94-1.14-10.34s1.83-7.25,2-10.8c.14-2.94-.56-5.71-3.58-7.8A12.6,12.6,0,0,0,26,50.81,52.78,52.78,0,0,0,18.38,49.62ZM123.82,141h0a2,2,0,0,0-2.34,3.35h0a2,2,0,1,0,2.34-3.35Zm-26.23-7.88-5.12,7.7,2,3.16,7.72-7.05c-.33-.23-.68-.49-1-.76C100,135.31,98.85,134.28,97.59,133.11ZM90.24,90.9c-1.06-2.1-1.9-3.65-2.38-4.42-1.85-3-6.48-7.14-10.94-9.34a13.23,13.23,0,0,0-4-1.34,3.81,3.81,0,0,0-2.51.36h0A3.8,3.8,0,0,0,69,78.25a13.17,13.17,0,0,0-.57,4.18c0,5,1.65,11,3.5,14,.48.77,1.5,2.21,2.91,4.09a1.88,1.88,0,0,1,.18.24c2.26,3,5.47,7.12,9,11.44a2.11,2.11,0,0,1,.19.23C88.85,118,94.1,124,98.65,128.48l0,.05.84.82a32.89,32.89,0,0,0,6.58,5.25,5.5,5.5,0,0,0,.72.3,4,4,0,0,0,.06-.78,33.38,33.38,0,0,0-1.79-8.23c-.11-.37-.23-.74-.35-1.12l0-.07c-2-6.06-5-13.42-8-20.09q-.06-.12-.12-.27c-2.29-5.11-4.53-9.8-6.23-13.17A1.38,1.38,0,0,1,90.24,90.9Zm19.11,34.92c.49,1.64.89,3.16,1.16,4.51.09.44.17.86.23,1.26l9.75-3.79-2-3.15ZM73.54,105.55,60.69,128.81,62.07,131l17.72-17.62C77.47,110.58,75.33,107.88,73.54,105.55ZM95.34,92c1.29,2.65,2.76,5.76,4.28,9.1l23.65-8.05-1.38-2.22Zm30.23-69.58a1.84,1.84,0,0,0-.41-.05,30.71,30.71,0,0,0-9.13,1,11.81,11.81,0,0,0-7.67,6.17,19.34,19.34,0,0,0-1.49,4.64c-.69,3.77,0,7.69-1.24,11.35s-3.79,6.89-5.53,10.23C98,59.74,97,63.89,99.19,69a12,12,0,0,0,3.15,4.39,26.25,26.25,0,0,0,5.26,3.67,24.8,24.8,0,0,0,8,2.29,16.3,16.3,0,0,0,6,0c4.11-1,6.43-4.08,8.46-7.6,1.57-2.71,2.91-5.7,5.55-7.24,3-1.73,6.4-2.19,9.72-2.87,3.92-.81,7.69-1.9,10.74-4.81,3.56-3.4,5.69-9.56,5.11-15a12.22,12.22,0,0,0-5.44-9.4,20.18,20.18,0,0,0-7.63-2.5,26.47,26.47,0,0,1-6.56-1.56C138,26.75,129.47,23.3,125.57,22.44Zm-.68,4c3.8.9,11.69,4.12,15,5.6a31.26,31.26,0,0,0,7.54,1.85,16,16,0,0,1,6.13,1.93,8.22,8.22,0,0,1,3.55,6.37c.45,4.22-1.12,9-3.87,11.64-2.46,2.35-5.57,3.11-8.74,3.76-3.76.78-7.61,1.39-11,3.35s-5.1,5.39-7,8.72c-1.46,2.52-2.91,5-5.86,5.66a12.05,12.05,0,0,1-4.52,0,20.71,20.71,0,0,1-6.7-1.87,22.27,22.27,0,0,1-4.43-3.09,8.29,8.29,0,0,1-2.13-3c-1.64-3.78-.74-6.82.78-9.72,1.85-3.53,4.49-6.9,5.79-10.83s.66-8,1.39-11.9a14.71,14.71,0,0,1,1.16-3.62,7.84,7.84,0,0,1,5.16-4,26.46,26.46,0,0,1,7.68-.83ZM73.61,65.38h0a2,2,0,0,0-4,.7h0a2,2,0,1,0,4-.7Zm-1-7.91h0a2,2,0,1,0-4.06.33h0a2,2,0,1,0,4.06-.33Zm-.27-8h0a2,2,0,1,0-4.08-.06h0a2,2,0,1,0,4.08.06Zm.54-7.92h0a2,2,0,1,0-4-.5h0a2,2,0,1,0,4,.5Zm1.42-7.79h0a2,2,0,1,0-4-1h0a2,2,0,1,0,4,1Zm2.36-7.54h0a2,2,0,1,0-3.81-1.47h0a2,2,0,0,0,3.81,1.47ZM80,19.13h0a2,2,0,1,0-3.57-2h0a2,2,0,0,0,3.57,2Zm4.3-6.58h0A2,2,0,1,0,81,10.07h0a2,2,0,1,0,3.24,2.48Z"/></g></g></svg>