<svg xmlns="http://www.w3.org/2000/svg" viewBox="0 0 200 200"><defs><style>.cls-1{fill:#005da0;fill-rule:evenodd;}</style></defs><g id="Layer_2" data-name="Layer 2"><g id="Layer_1-2" data-name="Layer 1"><path class="cls-1" d="M8.9,123.72v64.67C8.9,194.8,14.84,200,22.16,200H177.84c7.32,0,13.26-5.2,13.26-11.61V123.72A78.1,78.1,0,0,0,200,87.58c0-24.3-11.32-46.3-29.6-62.18l-.09-.08C152.24,9.67,127.4,0,100,0,44.81,0,0,39.24,0,87.58A78.1,78.1,0,0,0,8.9,123.72Zm76.85,15.86H62.29V146A2.2,2.2,0,0,1,60,148H56.74v15.55a7.78,7.78,0,0,1-1.45,4.49v27.85h89.42V168.07a7.78,7.78,0,0,1-1.45-4.49V148H140a2.2,2.2,0,0,1-2.33-2v-6.41H114.25V158.4c0,6.89-6.39,12.48-14.25,12.48s-14.25-5.59-14.25-12.48ZM43.23,171.53v24.39h7.4V171.53a11,11,0,0,1-7.4,0ZM31.58,139.58h-18v48.81c0,4.16,3.85,7.53,8.6,7.53H38.57V168.07a7.78,7.78,0,0,1-1.45-4.49V148H33.91a2.2,2.2,0,0,1-2.33-2Zm154.86,0h-18V146a2.2,2.2,0,0,1-2.33,2h-3.21v15.55a7.78,7.78,0,0,1-1.45,4.49v27.85h16.41c4.75,0,8.6-3.37,8.6-7.53Zm-29.67,31.95a11,11,0,0,1-7.4,0v24.39h7.4Zm1.45-23.5h-10.3v15.55c0,2.48,2.31,4.5,5.15,4.5s5.15-2,5.15-4.5ZM52.08,148H41.78v15.55c0,2.48,2.31,4.5,5.15,4.5s5.15-2,5.15-4.5Zm57.51-13.95H90.41V158.4c0,4.63,4.3,8.4,9.59,8.4s9.59-3.77,9.59-8.4ZM100,148.68c-4.14,0-7.51,2.95-7.51,6.58s3.37,6.57,7.51,6.57,7.51-2.94,7.51-6.57S104.14,148.68,100,148.68Zm0,4.08a2.52,2.52,0,1,1-2.85,2.5A2.7,2.7,0,0,1,100,152.76Zm42.37-27.54V144h21.39V125.22H155.4v9.36a2.35,2.35,0,0,1-4.66,0v-9.36Zm-106.13,0V144H57.63V125.22H49.26v9.36a2.35,2.35,0,0,1-4.66,0v-9.36ZM161.43,92.68v28.46h4.66a2.2,2.2,0,0,1,2.33,2V135.5h18V100.21c0-4.15-3.85-7.53-8.6-7.53Zm-18,0H55.29v28.46H60a2.2,2.2,0,0,1,2.33,2V135.5H85.75V125.23h0v0h0v0h0v0h0v0h0v0h0v0h0v0h0v0h0v0h0v0h0v0h0a2.29,2.29,0,0,1,2.25-1.53h24.41a2.13,2.13,0,0,1,1.76,2h0V135.5h23.46V123.18a2.2,2.2,0,0,1,2.33-2h4.67V92.68h-1.26Zm-104.88,0H22.16c-4.75,0-8.6,3.38-8.6,7.53V135.5h18V123.18a2.2,2.2,0,0,1,2.33-2h4.66Zm51.84,34.59V130h19.18v-2.72Zm59-6.13h7.4V92.68h-7.4Zm-106.14,0h7.4V92.68h-7.4ZM164.86,26.4C147.84,12.56,125,4.08,100,4.08A104.45,104.45,0,0,0,45.77,18.91c1.51,1.83,3.09,3.89,3.35,6.09.35,3-1.33,5.31-3.63,7.52-1.06,1-2.25,2-3.25,3.13a6,6,0,0,0-1.89,4.82,14.34,14.34,0,0,0,2.32,5.11,57.07,57.07,0,0,1,3.74,6.53C48,55.66,48.05,59.05,45,61.92s-6.63,3.36-10.25,3.21c-2.69-.11-5.47-.65-8.19.16-2,.58-2.49,2.11-3.16,3.57a13.84,13.84,0,0,1-2.74,4.36c-4.34,4.19-10.58,3.67-14.69.54a74,74,0,0,0,2.94,38.5V100.21c0-6.41,5.94-11.61,13.26-11.61h45.6V82.12H63.32a2.11,2.11,0,0,1-1.83-2V72.69c0-6,3.39-11.33,8.58-14.58l-1.49-.18c-3.21-.39-6.55-1.14-8.46-4.17a6.93,6.93,0,0,1-.49-5.32c.5-2.1,1.62-4.35,1.77-6,.39-4.59-.15-9.13,2.21-13.43,2.51-4.55,6.74-5.95,11.34-8.49a15.71,15.71,0,0,0,2.92-2.29,16.67,16.67,0,0,1,4-2.87c4.53-2.19,9.47-1,14.12.09l.15,0,.15,0c5.3,1.78,10.12,5.69,9.89,11.06a15.14,15.14,0,0,1-1.37,4.74,17.82,17.82,0,0,1-1.2,3.14A17.76,17.76,0,0,1,101,37.36a4.73,4.73,0,0,0-1.85,3c0,.44.38.64.73.88.62.42,1.33.78,1.94,1.18,2.07,1.34,4.33,4.19,4.7,6.47a3.54,3.54,0,0,1-.77,2.74,11.8,11.8,0,0,1-2.11,1.93,10,10,0,0,0-1.34,1.24h15.75c11.27,0,20.42,8,20.42,17.89v7.39h0v0h0v0h0v0h0v0h0v0h0v0h0v0h0v0h0v0h0v0h0v0h0v0h0v0h0v0h0v0h0v0h0a2.38,2.38,0,0,1-2.07,1.18h-4V88.6h8.88a15.91,15.91,0,0,1,3.57-7.78c1.42-1.73,3.32-2.95,4.46-4.89a26,26,0,0,0,2.08-5.25,21.38,21.38,0,0,1,2.84-6.11,41.36,41.36,0,0,1,3.66-4.08A9.65,9.65,0,0,0,160.08,57c1-3,.1-6.9-1-9.8s-2.39-5.65-2.72-8.45A9.85,9.85,0,0,1,160,29.48,29.18,29.18,0,0,1,164.86,26.4Zm3.45,3a27.89,27.89,0,0,0-5,3c-2.6,2.23-2.71,4.75-2.1,7.3a49.2,49.2,0,0,0,2.24,6.17c1.42,3.61,2.33,8.47,1.12,12.23a13.51,13.51,0,0,1-3.23,5A39.54,39.54,0,0,0,158,66.74a17.78,17.78,0,0,0-2.3,5.06,29,29,0,0,1-2.42,6c-1.24,2.12-3.26,3.5-4.8,5.39a12,12,0,0,0-2.71,5.41h32.06c7.32,0,13.26,5.2,13.26,11.61v12.05a73.81,73.81,0,0,0,4.24-24.68C195.34,64.94,185,44.4,168.31,29.35Zm-47,50.73h0V77.33c0-4.58-4.25-8.31-9.49-8.31H88.18c-5.24,0-9.49,3.73-9.49,8.31v2.75h0v0h0v0h0v0h0v0h0v0h0v0h0v0h0v0h0v0h0v0h0v0h0v0h0v0h0a2.31,2.31,0,0,1-2.2,1.42h-4V88.6h55.16V82.12h-4.52A2.12,2.12,0,0,1,121.31,80.08ZM99.37,58.88H81.91c-8.7,0-15.76,6.19-15.76,13.81V78H74v-.71c0-6.84,6.34-12.39,14.15-12.39h23.64c7.81,0,14.15,5.55,14.15,12.39V78h7.88V72.69c0-7.62-7.06-13.81-15.76-13.81H99.37ZM42,21.3C24.82,32.87,12.24,49.45,7.15,68.55c1.85,3.34,6.83,5,10,1.93,1.2-1.16,1.66-2.76,2.37-4.19a8.58,8.58,0,0,1,5.5-4.87A23.05,23.05,0,0,1,33.24,61c2.92.2,5.82.54,8.35-1.82,2.29-2.15,1-4.8-.51-7.49-2.1-3.74-5-7.57-5.37-10.74-.51-4.31,2.11-7.2,4.95-9.84a33.32,33.32,0,0,0,2.54-2.48,4.11,4.11,0,0,0,1.29-3.16C44.31,23.91,43.14,22.55,42,21.3Zm52.64-1.91a44.07,44.07,0,0,0-5.78-1.14,8.89,8.89,0,0,0-4.81.69,12.78,12.78,0,0,0-2.87,2.14A19.83,19.83,0,0,1,77.43,24c-1.68.93-3.33,1.68-4.86,2.51a10.9,10.9,0,0,0-4.76,4.31c-2.1,3.81-1.42,7.87-1.77,12a32.57,32.57,0,0,1-1.57,5.52A9.82,9.82,0,0,0,64,50.55a2,2,0,0,0,.22,1.24,4.39,4.39,0,0,0,3.1,1.8c1.15.24,2.34.34,3.43.49a9,9,0,0,1,4.6,1.67,22.78,22.78,0,0,1,6.57-1H97.19a5.23,5.23,0,0,1,.46-1.07,11.41,11.41,0,0,1,2.93-3.21c.3-.24.69-.52,1-.83.1-.1.24-.28.31-.36a6.91,6.91,0,0,0-2.84-3.63c-.83-.54-1.83-1.05-2.61-1.67a4.43,4.43,0,0,1-1.93-3.91,7.56,7.56,0,0,1,2.37-4.82,19.64,19.64,0,0,0,2.58-2.81,13.41,13.41,0,0,0,.87-2.47,11.32,11.32,0,0,0,1.12-3.57C101.64,22.91,98.15,20.58,94.67,19.39Z"/></g></g></svg>