<svg xmlns="http://www.w3.org/2000/svg" viewBox="0 0 43.96 40.64"><defs><style>.cls-1{fill:#0099d6;}</style></defs><g id="Layer_2" data-name="Layer 2"><g id="Layer_1-2" data-name="Layer 1"><path class="cls-1" d="M41.05,34.87H39.8V15.64A3.41,3.41,0,0,0,37,12.26V4.83A4.86,4.86,0,0,0,32.11,0H11.85A4.82,4.82,0,0,0,7,4.83v7.38a3.45,3.45,0,0,0-2.86,3.38V34.82H2.91A2.91,2.91,0,0,0,0,37.73v2.91H44V37.73A2.86,2.86,0,0,0,41.05,34.87ZM8.37,4.83A3.54,3.54,0,0,1,11.9,1.3H32.22a3.54,3.54,0,0,1,3.53,3.53v7.33h-1.3v-.57a2,2,0,0,0-1.92-2V7.64a1.37,1.37,0,0,0-1.35-1.35H28.32A1.37,1.37,0,0,0,27,7.64V9.56a2,2,0,0,0-1.92,2v.57H19v-.57a2,2,0,0,0-1.92-2V7.64a1.38,1.38,0,0,0-1.35-1.35H12.89a1.37,1.37,0,0,0-1.35,1.35V9.56a2.05,2.05,0,0,0-1.93,2v.57H8.31V4.83Zm21,4.68H28.22V8.78h1.19a.24.24,0,0,0,.26-.26.25.25,0,0,0-.26-.26H28.22V7.64a0,0,0,0,1,.05,0h2.86a0,0,0,0,1,.05,0v2.55a.63.63,0,0,0,.62.62h.52a.71.71,0,0,1,.73.73v.57H26.29v-.57a.72.72,0,0,1,.73-.73h2.39a.63.63,0,0,0,.63-.62A.68.68,0,0,0,29.41,9.51Zm-15.33,0H12.89V8.78h1.19a.24.24,0,0,0,.26-.26.25.25,0,0,0-.26-.26H12.89V7.64s0,0,0,0H15.8s0,0,0,0v2.55a.63.63,0,0,0,.62.62H17a.71.71,0,0,1,.73.73v.57H11v-.57a.72.72,0,0,1,.73-.73h2.39a.63.63,0,0,0,.63-.62A.68.68,0,0,0,14.08,9.51ZM5.51,15.59a2.14,2.14,0,0,1,2.13-2.13H36.38a2.14,2.14,0,0,1,2.13,2.13V20H21.2a.64.64,0,0,0-.62.63.67.67,0,0,0,.62.62H38.51v6h-24a.63.63,0,0,0-.63.62.69.69,0,0,0,.63.63h24v6.23H35.86v-.47a2.78,2.78,0,0,0-2.76-2.75H10.91a2.77,2.77,0,0,0-2.75,2.75v.47H5.51ZM34.56,34.35v.47H9.46v-.47a1.49,1.49,0,0,1,1.45-1.46H33.1A1.5,1.5,0,0,1,34.56,34.35Zm8.1,5H1.4V37.73A1.62,1.62,0,0,1,3,36.12H41.1a1.62,1.62,0,0,1,1.62,1.61v1.61Z"/><path class="cls-1" d="M9.61,27.65a.63.63,0,0,0,.21.77.87.87,0,0,0,.37.11.61.61,0,0,0,.46-.21L18.08,21a.63.63,0,0,0,.16-.72.62.62,0,0,0-.62-.42H13.87L15.38,16a.64.64,0,0,0-.26-.78.65.65,0,0,0-.83.11l-6.6,6.65a.65.65,0,0,0-.16.73.64.64,0,0,0,.63.41h3.48Zm.11-5.93,3.38-3.38-.78,2a.79.79,0,0,0,0,.62.52.52,0,0,0,.52.26H16l-3.9,3.85,1.09-2.39a.7.7,0,0,0,0-.63.59.59,0,0,0-.52-.31Z"/></g></g></svg>