<svg xmlns="http://www.w3.org/2000/svg" viewBox="0 0 35.59 48.52"><defs><style>.cls-1{fill:none;}.cls-2{fill:#0099d6;}</style></defs><g id="Layer_2" data-name="Layer 2"><g id="Layer_1-2" data-name="Layer 1"><path class="cls-1" d="M17.79,33.88l3.46-2v-4l-3.46-2-3.45,2v4Zm-2.54-3.72a.83.83,0,0,1,1.13-.31l1.41.82,1.42-.82a.83.83,0,0,1,1.13.31A.83.83,0,0,1,20,31.29l-1.82,1.05a.78.78,0,0,1-.42.11.77.77,0,0,1-.41-.11l-1.83-1.05A.83.83,0,0,1,15.25,30.16Z"/><polygon class="cls-1" points="16.97 35.32 13.51 33.32 10.05 35.31 10.05 39.3 13.51 41.3 16.97 39.3 16.97 35.32"/><path class="cls-1" d="M12,3.41H23.6a.88.88,0,0,0,0-1.76H12a.88.88,0,1,0,0,1.76Z"/><path class="cls-1" d="M33.27,37.39c-.74-2.08-1.49-4.15-2.27-6.2Q29.64,27.61,28.26,24l-3.05-8c-.46-1.23-.89-2.48-1.32-3.72l-.28-.84a2.89,2.89,0,0,1-.15-1V8c0-1,0-1.94,0-2.91H12.14c0,1.66,0,3.31,0,5a5.52,5.52,0,0,1-.32,2L11,14.38c-.51,1.4-1,2.81-1.55,4.2Q7.81,22.8,6.19,27l-2.7,7.05C2.94,35.51,2.42,36.89,2,38.27a8.84,8.84,0,0,0-.37,3A2.15,2.15,0,0,0,2,42.4a5.3,5.3,0,0,0,.9,1,8.82,8.82,0,0,0,2.25,1.39A20.75,20.75,0,0,0,10,46.2a42.48,42.48,0,0,0,6.79.66,46.38,46.38,0,0,0,6.08-.28,32.26,32.26,0,0,0,5-.92,14.14,14.14,0,0,0,3.79-1.55,6.34,6.34,0,0,0,1.83-1.62,1.91,1.91,0,0,0,.28-.55,4.77,4.77,0,0,0,.12-1.55A11.67,11.67,0,0,0,33.27,37.39Zm-3,4.78a.84.84,0,0,1-.71.39.88.88,0,0,1-.43-.12l-2.77-1.7L22.49,43a.84.84,0,0,1-.83,0l-3.87-2.23L13.92,43a.82.82,0,0,1-.82,0L9.24,40.74l-2.76,1.7a.88.88,0,0,1-.44.12A.83.83,0,0,1,5.61,41L8.4,39.32V34.84a.84.84,0,0,1,.41-.72l3.87-2.23v-4L9.89,26.17A.82.82,0,0,1,9.62,25a.84.84,0,0,1,1.14-.28l2.76,1.7,3.86-2.23a.85.85,0,0,1,.82,0l3.69,2.13,2.94-1.8a.81.81,0,0,1,1.13.27A.83.83,0,0,1,25.69,26L22.9,27.68v4.21l3.87,2.23a.84.84,0,0,1,.41.72v4.48L30,41A.83.83,0,0,1,30.25,42.17Z"/><polygon class="cls-1" points="18.62 35.31 18.62 39.3 22.07 41.3 25.53 39.3 25.53 35.31 22.08 33.32 18.62 35.31"/><path class="cls-2" d="M15.55,31.29l1.83,1.05a.77.77,0,0,0,.41.11.78.78,0,0,0,.42-.11L20,31.29a.83.83,0,0,0-.83-1.44l-1.42.82-1.41-.82a.83.83,0,0,0-.83,1.44Z"/><path class="cls-2" d="M30,41l-2.8-1.71V34.84a.82.82,0,0,0-.41-.72L22.9,31.89V27.68L25.69,26A.83.83,0,0,0,26,24.83a.81.81,0,0,0-1.13-.27l-2.94,1.8-3.68-2.13a.87.87,0,0,0-.83,0l-3.86,2.23-2.76-1.7a.83.83,0,0,0-.87,1.41l2.8,1.71v4L8.82,34.12a.83.83,0,0,0-.42.72v4.48L5.61,41a.83.83,0,0,0-.27,1.14.84.84,0,0,0,.71.39.88.88,0,0,0,.43-.12l2.76-1.7L13.1,43a.87.87,0,0,0,.41.11.91.91,0,0,0,.42-.11l3.86-2.23L21.66,43a.84.84,0,0,0,.83,0l3.85-2.23,2.77,1.7a.88.88,0,0,0,.43.12A.83.83,0,0,0,30,41ZM17.79,25.9l3.46,2v4l-3.46,2-3.45-2v-4ZM13.51,41.3l-3.46-2v-4l3.46-2,3.46,2v4Zm12-2-3.45,2-3.46-2v-4l3.46-2,3.45,2v4Z"/><path class="cls-2" d="M34.83,36.83q-1.11-3.12-2.29-6.23Q31.17,27,29.8,23.43c-1-2.65-2-5.31-3-8-.46-1.21-.88-2.44-1.3-3.67L25.17,11a1.29,1.29,0,0,1-.06-.42v-6A2.53,2.53,0,0,0,23.6,0H12a2.53,2.53,0,0,0-1.49,4.57c0,1.82,0,3.65,0,5.47a3.92,3.92,0,0,1-.22,1.4L9.4,13.82c-.5,1.39-1,2.79-1.53,4.17-1.07,2.82-2.15,5.63-3.22,8.43-.9,2.35-1.81,4.7-2.75,7.18A43.83,43.83,0,0,0,.45,37.83,10.6,10.6,0,0,0,0,41.37a3.9,3.9,0,0,0,.63,2,7.48,7.48,0,0,0,1.17,1.28,10.87,10.87,0,0,0,2.66,1.65,22.64,22.64,0,0,0,5.23,1.54,44.63,44.63,0,0,0,7.06.68h1a47.93,47.93,0,0,0,5.31-.3,33.52,33.52,0,0,0,5.28-1,16,16,0,0,0,4.21-1.74,8.07,8.07,0,0,0,2.3-2.05,3.47,3.47,0,0,0,.54-1.09,6.27,6.27,0,0,0,.18-2.12A13.32,13.32,0,0,0,34.83,36.83ZM12,1.65H23.6a.88.88,0,0,1,0,1.76H12a.88.88,0,1,1,0-1.76ZM33.8,41.94a1.91,1.91,0,0,1-.28.55,6.34,6.34,0,0,1-1.83,1.62,14.48,14.48,0,0,1-3.79,1.55,32.26,32.26,0,0,1-5,.92,46.38,46.38,0,0,1-6.08.28A42.48,42.48,0,0,1,10,46.2a20.75,20.75,0,0,1-4.86-1.42A8.82,8.82,0,0,1,2.9,43.39a5.27,5.27,0,0,1-.9-1,2.07,2.07,0,0,1-.33-1.15,8.84,8.84,0,0,1,.37-3c.38-1.38.9-2.76,1.45-4.21l2.7-7,3.22-8.43c.53-1.39,1-2.8,1.54-4.2L11.82,12a5.58,5.58,0,0,0,.32-2c0-1.65,0-3.3,0-5h11.3c0,1,0,1.94,0,2.91v2.56a2.93,2.93,0,0,0,.15,1l.28.84c.43,1.24.86,2.49,1.32,3.71,1,2.67,2,5.32,3.05,8,.92,2.39,1.83,4.77,2.74,7.16.78,2.06,1.53,4.13,2.27,6.21a11.67,11.67,0,0,1,.65,3A4.77,4.77,0,0,1,33.8,41.94Z"/></g></g></svg>