<svg xmlns="http://www.w3.org/2000/svg" viewBox="0 0 44 44.43"><defs><style>.cls-1{fill:#0099d6;}</style></defs><g id="Layer_2" data-name="Layer 2"><g id="Layer_1-2" data-name="Layer 1"><path class="cls-1" d="M35.05,44.18,23.79,32.93h0a.85.85,0,0,1,0-1.2l7.51-7.5a.85.85,0,0,1,1.2,0L43.75,35.46a.85.85,0,0,1,0,1.2l-7.53,7.52a.81.81,0,0,1-1.17,0ZM31.9,26l-6.31,6.3,10,10.06L42,36.08Z"/><path class="cls-1" d="M22.3,34.42l-2.25-2.25a.85.85,0,0,1,0-1.2L30.54,20.46h0a.85.85,0,0,1,1.2,0L34,22.71h0a.85.85,0,0,1,0,1.21L23.48,34.42a.87.87,0,0,1-.61.26A.84.84,0,0,1,22.3,34.42Zm8.85-12.2-9.3,9.34,1,1.1,9.35-9.34Z"/><path class="cls-1" d="M21.54,30.71,3.37,12.54c-3-3-4.64-9-2.15-12.21A.27.27,0,0,1,1.29.25a.85.85,0,0,1,1.2,0L3.24,1A8.93,8.93,0,0,0,4.45,2c2,1.4,4.4,2.22,5.58,1.91a.86.86,0,0,1,.85.21L21.75,15a.86.86,0,0,1,.25.6v.63l2-.07a.83.83,0,0,1,.63.25.87.87,0,0,1,.24.63l-.06,2,2-.07a.85.85,0,0,1,.64.25.83.83,0,0,1,.25.63l-.08,2,2-.07a.85.85,0,0,1,.81.51.88.88,0,0,1-.18.94l-7.5,7.51a.85.85,0,0,1-.61.24A.84.84,0,0,1,21.54,30.71Zm5.23-7.14a.81.81,0,0,1-.62-.25.9.9,0,0,1-.26-.64l.08-2-2,.06a.77.77,0,0,1-.63-.24.87.87,0,0,1-.24-.63l.06-2-2,.07a.81.81,0,0,1-.59-.24.83.83,0,0,1-.26-.61V15.93L10,5.62C8,5.85,5.37,4.69,3.47,3.37A13.68,13.68,0,0,1,2.06,2.24c-1,2.58.4,6.94,2.55,9.1L22.14,28.87l5.38-5.37Z"/><path class="cls-1" d="M24.57,27.67,6.38,9.57A12.66,12.66,0,0,1,3.13,2.83a.83.83,0,0,1,.14-.65A.85.85,0,0,1,4.45,2c2,1.4,4.4,2.22,5.58,1.91a.86.86,0,0,1,.85.21L21.75,15a.86.86,0,0,1,.25.6v.63l2-.07a.83.83,0,0,1,.63.25.87.87,0,0,1,.24.63l-.06,2,2-.07a.85.85,0,0,1,.64.25.83.83,0,0,1,.25.63l-.08,2,2-.07a.85.85,0,0,1,.81.51.88.88,0,0,1-.18.94l-4.5,4.5a.86.86,0,0,1-.61.25A.83.83,0,0,1,24.57,27.67Zm2.2-4.1a.81.81,0,0,1-.62-.25.9.9,0,0,1-.26-.64l.08-2-2,.06a.77.77,0,0,1-.63-.24.87.87,0,0,1-.24-.63l.06-2-2,.07a.81.81,0,0,1-.59-.24.83.83,0,0,1-.26-.61V15.93L10,5.62A8.82,8.82,0,0,1,5.28,4.44,10.35,10.35,0,0,0,7.59,8.35L25.14,25.87l2.38-2.37Z"/></g></g></svg>