<svg xmlns="http://www.w3.org/2000/svg" viewBox="0 0 40.95 39.7"><defs><style>.cls-1{fill:#0099d6;}</style></defs><g id="Layer_2" data-name="Layer 2"><g id="Layer_1-2" data-name="Layer 1"><path class="cls-1" d="M7.24,39.7a6.63,6.63,0,0,1-2-.31.67.67,0,0,1-.47-.48.71.71,0,0,1,.18-.65L8.28,34.9a.67.67,0,0,0,0-.94L6.36,32a.69.69,0,0,0-1,0L2.06,35.39a.66.66,0,0,1-.65.17.69.69,0,0,1-.49-.46A7.19,7.19,0,0,1,2.78,28a7.25,7.25,0,0,1,5.56-2.13,3,3,0,0,0,1.91-.56l5.13-5.13,1,1-5.13,5.13a4.12,4.12,0,0,1-3,1A6,6,0,0,0,2,33.5l2.44-2.43a2.08,2.08,0,0,1,2.88,0L9.24,33a2,2,0,0,1,0,2.87L6.82,38.31a5.81,5.81,0,0,0,4.57-1.75,5.9,5.9,0,0,0,1.71-4.72,3.39,3.39,0,0,1,.81-2.58l5.19-5.19,1,1-5.19,5.19a2,2,0,0,0-.41,1.47,7.36,7.36,0,0,1-7.23,8ZM25.51,19.6l-1-1,5.19-5.2a4.22,4.22,0,0,1,3-.95,6.06,6.06,0,0,0,4.51-1.73,6,6,0,0,0,1.74-4.59L36.51,8.61a2.08,2.08,0,0,1-2.89,0L31.71,6.69a2,2,0,0,1-.6-1.44,2.06,2.06,0,0,1,.6-1.44l2.43-2.43a5.93,5.93,0,0,0-6.29,6.45,3.46,3.46,0,0,1-.8,2.59l-5.44,5.43-1-1,5.44-5.43A2,2,0,0,0,26.49,8a7.34,7.34,0,0,1,2.1-5.84A7.25,7.25,0,0,1,35.74.29a.69.69,0,0,1,.46.49.7.7,0,0,1-.17.65L32.68,4.78a.65.65,0,0,0-.2.47.63.63,0,0,0,.2.47l1.91,1.92a.68.68,0,0,0,.95,0l3.35-3.35a.71.71,0,0,1,.65-.18.69.69,0,0,1,.49.46,7.27,7.27,0,0,1-1.86,7.16,7.18,7.18,0,0,1-5.57,2.12,2.76,2.76,0,0,0-1.9.56Z"/><rect class="cls-1" x="10.65" y="25.83" width="6.29" height="1.37" transform="translate(-14.71 17.52) rotate(-45)"/><rect class="cls-1" x="24" y="12.48" width="6.29" height="1.37" transform="translate(-1.36 23.05) rotate(-45)"/><path class="cls-1" d="M2.39,23a.64.64,0,0,1-.2,0,.67.67,0,0,1-.47-.54L0,12.76a.68.68,0,0,1,.19-.6l12-12a.72.72,0,0,1,1,0l5.7,5.7a.68.68,0,0,1,0,1l-15.95,16A.7.7,0,0,1,2.39,23Zm-1-10.14,1.42,8L17.38,6.38,12.65,1.65Z"/><path class="cls-1" d="M3.62,7.43l-.57-.57a1.5,1.5,0,0,1,0-2.11L5.33,2.47a1.51,1.51,0,0,1,2.11,0L8,3.05,7,4l-.57-.57a.12.12,0,0,0-.17,0L4,5.72a.11.11,0,0,0,0,.17l.57.57Z"/><path class="cls-1" d="M35.42,39.67a2.53,2.53,0,0,1-1-.16c-1.68-.62-2.33-2.12-3-3.57A8,8,0,0,0,30,33.44L10.67,14.05l1-1L31,32.47a9.12,9.12,0,0,1,1.75,2.92c.57,1.3,1.06,2.42,2.19,2.84,1,.37,2.91-.57,4.26-1.44L13.59,11.14l1-1L40.75,36.4a.68.68,0,0,1-.08,1C40.33,37.69,37.59,39.67,35.42,39.67Z"/><rect class="cls-1" x="23.74" y="24.49" width="4.05" height="1.37" transform="translate(-10.26 25.59) rotate(-45)"/><path class="cls-1" d="M36.36,36.76a.69.69,0,1,1,0-1A.68.68,0,0,1,36.36,36.76Z"/></g></g></svg>