<svg xmlns="http://www.w3.org/2000/svg" viewBox="0 0 31.93 54"><defs><style>.cls-1{fill:#0099d6;}</style></defs><g id="Layer_2" data-name="Layer 2"><g id="Layer_1-2" data-name="Layer 1"><path class="cls-1" d="M19.65,50.74H3.26V30.81H19.65ZM4.89,49.11H18V32.44H4.89Z"/><path class="cls-1" d="M22.91,54H0V19.92H22.91ZM1.63,52.37H21.29V21.55H1.63Z"/><path class="cls-1" d="M20.17,21.55H2.75l5.41-7.31h6.59ZM6,19.92h11l-3-4.05H9Z"/><path class="cls-1" d="M14.75,12.67H8.17V4.92h6.58Zm-5-1.62h3.33V6.54H9.79Z"/><rect class="cls-1" x="10.64" y="11.86" width="1.63" height="3.19"/><path class="cls-1" d="M25.32,17.59V16a1.8,1.8,0,0,0,1.58-2.65l-.55-1,1.13-.19a3.38,3.38,0,0,0,0-6.67l-1.13-.19.55-1a1.8,1.8,0,0,0-1.58-2.64V0a3.42,3.42,0,0,1,3.42,3.42,3.82,3.82,0,0,1-.07.68,5,5,0,0,1,0,9.39,3.11,3.11,0,0,1,.07.69A3.42,3.42,0,0,1,25.32,17.59Z"/><rect class="cls-1" x="18.06" y="7.98" width="4.87" height="1.63"/><rect class="cls-1" x="19.03" y="9.71" width="1.63" height="4.87" transform="translate(1.16 25.99) rotate(-68)"/><rect class="cls-1" x="17.41" y="4.64" width="4.87" height="1.63" transform="translate(-0.6 7.83) rotate(-21.99)"/></g></g></svg>