<svg xmlns="http://www.w3.org/2000/svg" viewBox="0 0 38.62 44.58"><defs><style>.cls-1{fill:#0099d6;}</style></defs><g id="Layer_2" data-name="Layer 2"><g id="Layer_1-2" data-name="Layer 1"><path class="cls-1" d="M37.88,33.54c-1.81-4.13-6.34-6.13-10.09-4.48a4.58,4.58,0,0,0-.66.34l-.92-2.08a.73.73,0,0,0-1-.37l-1.5-3.42L28.18,7.66A7.68,7.68,0,0,0,26.28.24.7.7,0,0,0,25.62,0a.74.74,0,0,0-.55.43L19.32,13.51,13.57.45A.75.75,0,0,0,13,0a.73.73,0,0,0-.66.21,7.65,7.65,0,0,0-1.91,7.42L14.9,23.53l-1.5,3.41a.74.74,0,0,0-1,.38l-.92,2.07a5.13,5.13,0,0,0-.66-.34C7.09,27.4,2.57,29.41.75,33.53S.51,42.35,4.25,44A6.83,6.83,0,0,0,7,44.58a8.2,8.2,0,0,0,7.33-5.06L18.53,30a.74.74,0,0,0-.38-1l1.16-2.65L20.47,29a.75.75,0,0,0-.38,1l4.19,9.51a8.22,8.22,0,0,0,7.34,5.06A6.78,6.78,0,0,0,34.36,44c3.75-1.65,5.32-6.35,3.5-10.47Zm-26-26.3a6.15,6.15,0,0,1,.82-5.09l5.81,13.19-2.67,6.05-4-14.14ZM13,38.92c-1.48,3.37-5.13,5-8.12,3.72s-4.23-5.13-2.75-8.5a6.72,6.72,0,0,1,6-4.18,5.36,5.36,0,0,1,3.28,1.13.77.77,0,0,0,.64.14.74.74,0,0,0,.5-.43l1-2.21,1.7.75,1.7.75L13,38.91Zm3.81-10.49-1-.44-1-.45L25.94,2.15a6.23,6.23,0,0,1,.82,5.1L22.29,23.19l-3.19.75h0L19,24a.72.72,0,0,0-.36.35Zm3.61-3.27,2.21-.52,1.27,2.89-2,.9ZM33.78,42.64c-3,1.31-6.64-.35-8.13-3.73l-3.89-8.82,2.82-1.24.57-.25,1,2.21a.72.72,0,0,0,.49.42.76.76,0,0,0,.64-.13,5.5,5.5,0,0,1,1.12-.68c3-1.32,6.65.35,8.13,3.72s.25,7.19-2.74,8.51Z"/></g></g></svg>