<svg xmlns="http://www.w3.org/2000/svg" viewBox="0 0 31.91 42"><defs><style>.cls-1{fill:none;}.cls-2{fill:#0099d6;}</style></defs><g id="Layer_2" data-name="Layer 2"><g id="Layer_1-2" data-name="Layer 1"><path class="cls-1" d="M6.93,26.6a1,1,0,0,1-.47.87,1,1,0,0,1-1.26-.16,23.42,23.42,0,0,1-3-3.86A13.21,13.21,0,0,0,1.93,26a14.84,14.84,0,0,0,.2,2.33A13.89,13.89,0,0,0,7.32,37,10.22,10.22,0,0,1,6,30.27a3.73,3.73,0,0,1,.28-.95,1.08,1.08,0,0,1,.91-.67,1,1,0,0,1,.94.59,4.36,4.36,0,0,0,.24.44v-.16A9.06,9.06,0,0,1,10,24.44,11.78,11.78,0,0,1,11.26,23a3.49,3.49,0,0,0,.43-.43,7.38,7.38,0,0,0,1.23-1.7,6.71,6.71,0,0,0,.7-3,4.53,4.53,0,0,0,0-.75,1.07,1.07,0,0,1,.48-1,1,1,0,0,1,1.1,0,16.81,16.81,0,0,1,4.72,5.28,14.9,14.9,0,0,1,1,2.12,15.8,15.8,0,0,1,1,4.1,5.09,5.09,0,0,0,.59-1.07,1,1,0,0,1,.83-.59,1,1,0,0,1,.91.4,8.82,8.82,0,0,1,1.61,4.33A12.52,12.52,0,0,1,26,32a10.53,10.53,0,0,1-.55,3.27,9,9,0,0,1-.75,1.61,14.28,14.28,0,0,0,4.49-6.3A13.77,13.77,0,0,0,29.89,26a12.15,12.15,0,0,0-.12-1.73,13.46,13.46,0,0,0-1.54-4.8,24.62,24.62,0,0,1-3.15,4.45,1,1,0,0,1-1.14.23,1,1,0,0,1-.63-1h0c0-.36,0-.71,0-1.06A24.58,24.58,0,0,0,21.62,13a27.53,27.53,0,0,0-1.5-3.19,25.47,25.47,0,0,0-5.47-6.65,6.88,6.88,0,0,1-.08.86c0,.16,0,.36,0,.51-.08.44-.16.83-.24,1.22a.15.15,0,0,1,0,.12,14.5,14.5,0,0,1-1,2.88,13.79,13.79,0,0,1-2.48,3.5l-.79.79a13.9,13.9,0,0,0-1.81,2,11.86,11.86,0,0,0-2.05,5c0,.08,0,.15,0,.23A3.91,3.91,0,0,0,6,21a6.33,6.33,0,0,0,0,.87V22a11.85,11.85,0,0,0,.82,4.37A.26.26,0,0,1,6.93,26.6Z"/><path class="cls-1" d="M23.55,34.6A8.58,8.58,0,0,0,24,32a8.26,8.26,0,0,0-.08-1,7.13,7.13,0,0,0-.47-2c-.51.7-1.06,1.29-1.62,1.92a1.07,1.07,0,0,1-1.14.24,1,1,0,0,1-.63-.94v-.63a15.16,15.16,0,0,0-1-5.32,19.84,19.84,0,0,0-.87-1.85,15.29,15.29,0,0,0-2.6-3.35,8,8,0,0,1-.82,2.68A8.16,8.16,0,0,1,13.19,24l-.47.47a6.81,6.81,0,0,0-1,1.14,7,7,0,0,0-1.26,3.94A6.56,6.56,0,0,0,10.91,32a1,1,0,0,1-.28,1.14,1,1,0,0,1-1.18.08A12.6,12.6,0,0,1,8,32.16a8.54,8.54,0,0,0,2.17,5.31A7.87,7.87,0,0,0,15,40c.32,0,.59,0,.91,0h.23a1.36,1.36,0,0,0,.4,0A8.17,8.17,0,0,0,23.55,34.6Z"/><path class="cls-2" d="M31.82,24A15.94,15.94,0,0,0,29,16.76a1,1,0,0,0-.91-.39,1.07,1.07,0,0,0-.82.59,20.51,20.51,0,0,1-1.89,3.42,26.79,26.79,0,0,0-1.81-8.19,23.55,23.55,0,0,0-1.66-3.42A27.25,27.25,0,0,0,14.25.18a1,1,0,0,0-1.1,0,.93.93,0,0,0-.47,1h0c0,.43.08.86.08,1.34V2.7a9.63,9.63,0,0,1-.08,1.07c0,.23-.08.43-.12.67L12.44,5a7.38,7.38,0,0,1-.19.78c0,.16-.08.28-.12.44a6.94,6.94,0,0,1-.32.82c0,.12-.12.24-.15.36a12.14,12.14,0,0,1-1.89,3l0,0c-.28.32-.56.59-.83.87a2.26,2.26,0,0,0-.32.27,6.24,6.24,0,0,0-.63.63,13.94,13.94,0,0,0-3.74,7.52c0,.08,0,.2,0,.28a4.65,4.65,0,0,0-.07.75,9.39,9.39,0,0,0,0,1.06v.12h0a4.78,4.78,0,0,0,0,.75,17.12,17.12,0,0,1-1.26-2.29,1.07,1.07,0,0,0-.95-.59,1,1,0,0,0-.91.67A15.75,15.75,0,0,0,0,26H0a14.84,14.84,0,0,0,.24,2.68A15.83,15.83,0,0,0,8.27,40H4a1,1,0,1,0,0,2H28a1,1,0,0,0,0-2H23.63A16,16,0,0,0,31,31.25,15.73,15.73,0,0,0,31.89,26h0A12.22,12.22,0,0,0,31.82,24ZM6,21.76a6.33,6.33,0,0,1,0-.87c0-.23,0-.47.08-.67s0-.15,0-.23a11.86,11.86,0,0,1,2.05-5A13.9,13.9,0,0,1,10,13c.28-.28.55-.51.79-.79a12.87,12.87,0,0,0,2.48-3.5,13.65,13.65,0,0,0,1-2.88.12.12,0,0,1,0-.11c.08-.4.2-.83.24-1.23a2.15,2.15,0,0,0,0-.51,5.71,5.71,0,0,0,.08-.86A25.62,25.62,0,0,1,20.2,9.75a20.79,20.79,0,0,1,1.5,3.19A24.62,24.62,0,0,1,23.43,22a9.39,9.39,0,0,1,0,1.06h0a1,1,0,0,0,.63,1,1,1,0,0,0,1.14-.23,20.57,20.57,0,0,0,3.15-4.45,14.59,14.59,0,0,1,1.54,4.8A12.15,12.15,0,0,1,30,25.93a15.24,15.24,0,0,1-.75,4.57,13.68,13.68,0,0,1-4.49,6.3,13.1,13.1,0,0,0,.75-1.61A10.53,10.53,0,0,0,26,31.92c0-.43,0-.83-.08-1.26a8.88,8.88,0,0,0-1.62-4.33,1,1,0,0,0-.9-.4,1.08,1.08,0,0,0-.83.6A5.82,5.82,0,0,1,22,27.59a16.21,16.21,0,0,0-1-4.1,13.39,13.39,0,0,0-1-2.12,16.81,16.81,0,0,0-4.72-5.28,1,1,0,0,0-1.1,0,.93.93,0,0,0-.48,1,4.59,4.59,0,0,1,0,.74,6.66,6.66,0,0,1-.71,3,5.54,5.54,0,0,1-1.22,1.69l-.43.43a11.69,11.69,0,0,0-1.26,1.42,9.08,9.08,0,0,0-1.61,5.08v.16a2.39,2.39,0,0,1-.24-.44,1,1,0,0,0-1.85.08,4.27,4.27,0,0,0-.28,1,10.47,10.47,0,0,0,1.3,6.73,13.89,13.89,0,0,1-5.19-8.7A14.82,14.82,0,0,1,2,25.9a14.23,14.23,0,0,1,.23-2.52,22.28,22.28,0,0,0,3,3.85,1,1,0,0,0,1.26.16A1,1,0,0,0,7,26.53a1.17,1.17,0,0,0-.08-.36A11.83,11.83,0,0,1,6.1,21.8C6,21.84,6,21.8,6,21.76ZM16.18,40H16c-.32,0-.63,0-.91,0a8.18,8.18,0,0,1-4.92-2.48A8.54,8.54,0,0,1,8,32.12a12.6,12.6,0,0,0,1.5,1.1,1,1,0,0,0,1.18-.08A1,1,0,0,0,10.91,32a6.56,6.56,0,0,1-.48-2.48,6.84,6.84,0,0,1,1.26-3.94,8.84,8.84,0,0,1,1-1.14l.47-.47a10,10,0,0,0,1.58-2.21,8,8,0,0,0,.82-2.68,15.29,15.29,0,0,1,2.6,3.35,9.79,9.79,0,0,1,.87,1.85,14.31,14.31,0,0,1,1,5.32v.63a.94.94,0,0,0,.63.94,1,1,0,0,0,1.14-.27A14.51,14.51,0,0,0,23.43,29a7.12,7.12,0,0,1,.47,2,7.93,7.93,0,0,1,.08,1,8.34,8.34,0,0,1-.43,2.6,8,8,0,0,1-7,5.31A.89.89,0,0,1,16.18,40Z"/></g></g></svg>