<svg xmlns="http://www.w3.org/2000/svg" viewBox="0 0 44 44"><defs><style>.cls-1{fill:#0099d6;}</style></defs><g id="Layer_2" data-name="Layer 2"><g id="Layer_1-2" data-name="Layer 1"><path class="cls-1" d="M10.72,44h-.18A10.71,10.71,0,0,1,2.88,26a.85.85,0,0,1,1.24,1.15h0A9,9,0,0,0,16.87,39.88a.85.85,0,1,1,1.18,1.22l0,0A10.69,10.69,0,0,1,10.72,44Z"/><path class="cls-1" d="M40.59,18.2a.85.85,0,0,1-.85-.85.87.87,0,0,1,.22-.57A9,9,0,0,0,27.22,4a.85.85,0,1,1-1.14-1.26A10.72,10.72,0,0,1,41.22,17.92.84.84,0,0,1,40.59,18.2Z"/><path class="cls-1" d="M23.4,35.4a.84.84,0,0,1-.84-.85A.82.82,0,0,1,22.8,34L34.05,22.71a.85.85,0,0,1,1.2,1.2L24,35.15A.84.84,0,0,1,23.4,35.4Z"/><path class="cls-1" d="M9.44,21.44A.84.84,0,0,1,8.85,20L20.09,8.75a.85.85,0,0,1,1.2,1.2L10,21.2A.83.83,0,0,1,9.44,21.44Z"/><path class="cls-1" d="M5.34,28.64A2.36,2.36,0,0,1,3.7,28L2.09,26.34a2.31,2.31,0,0,1,0-3.28L6,19.19a2.34,2.34,0,0,1,3.29,0l1.61,1.62a2.31,2.31,0,0,1,0,3.28h0L7,28A2.32,2.32,0,0,1,5.34,28.64Zm2.25-8.43a.62.62,0,0,0-.44.18L3.28,24.26a.63.63,0,0,0,0,.88L4.9,26.76a.64.64,0,0,0,.89,0l3.86-3.87a.62.62,0,0,0,0-.89L8,20.39a.63.63,0,0,0-.45-.18Z"/><path class="cls-1" d="M19.3,42.59a2.28,2.28,0,0,1-1.64-.68L16,40.3A2.33,2.33,0,0,1,16,37h0l3.87-3.86a2.31,2.31,0,0,1,3.28,0l1.62,1.61a2.33,2.33,0,0,1,0,3.28h0l-3.87,3.86A2.28,2.28,0,0,1,19.3,42.59Zm2.25-8.43a.6.6,0,0,0-.44.19l-3.87,3.86a.64.64,0,0,0,0,.89l1.62,1.62a.63.63,0,0,0,.88,0l3.87-3.87h0a.62.62,0,0,0,0-.89L22,34.35A.64.64,0,0,0,21.55,34.16Z"/><path class="cls-1" d="M22.54,11.44a2.36,2.36,0,0,1-1.64-.68L19.29,9.14a2.32,2.32,0,0,1,0-3.28h0L23.15,2a2.31,2.31,0,0,1,3.28,0l1.62,1.61a2.33,2.33,0,0,1,0,3.28h0l-3.87,3.87A2.28,2.28,0,0,1,22.54,11.44ZM24.79,3a.62.62,0,0,0-.44.18L20.48,7.06a.64.64,0,0,0,0,.89L22.1,9.56a.62.62,0,0,0,.89,0L26.85,5.7h0a.62.62,0,0,0,0-.89L25.24,3.19A.63.63,0,0,0,24.79,3Z"/><path class="cls-1" d="M36.5,25.39a2.24,2.24,0,0,1-1.64-.68L33.24,23.1a2.33,2.33,0,0,1,0-3.28L37.11,16a2.33,2.33,0,0,1,3.28,0L42,17.57a2.33,2.33,0,0,1,0,3.28h0l-3.87,3.86A2.26,2.26,0,0,1,36.5,25.39ZM38.75,17a.64.64,0,0,0-.45.19L34.44,21a.62.62,0,0,0,0,.89l1.61,1.62a.64.64,0,0,0,.89,0l3.87-3.87a.64.64,0,0,0,0-.89l-1.62-1.61A.6.6,0,0,0,38.75,17Z"/><path class="cls-1" d="M17.36,37.74a.82.82,0,0,1-.59-.25L6.51,27.23a.84.84,0,0,1,0-1.19.85.85,0,0,1,1.2,0L18,36.29a.85.85,0,0,1,0,1.2A.84.84,0,0,1,17.36,37.74Z"/><path class="cls-1" d="M19.79,35.32a.84.84,0,0,1-.6-.25L8.93,24.81a.85.85,0,0,1,1.2-1.19L20.38,33.87a.84.84,0,0,1,0,1.2.82.82,0,0,1-.59.25Z"/><path class="cls-1" d="M34.56,20.54a.86.86,0,0,1-.6-.25L23.7,10a.85.85,0,0,1,1.2-1.19L35.16,19.1a.85.85,0,0,1-.6,1.44Z"/><path class="cls-1" d="M37,18.12a.86.86,0,0,1-.6-.25L26.13,7.62a.85.85,0,1,1,1.2-1.2L37.58,16.68a.85.85,0,0,1-.6,1.44Z"/><path class="cls-1" d="M24.18,20.66a.85.85,0,0,1-.84-.84.86.86,0,0,1,.07-.36l3.31-7.19a.86.86,0,0,1,1.13-.42,1,1,0,0,1,.24.17L32,15.91a.84.84,0,0,1,0,1.19,1.14,1.14,0,0,1-.25.18l-7.19,3.31A.86.86,0,0,1,24.18,20.66Zm3.57-6.58-1.84,4,4-1.84Z"/><path class="cls-1" d="M16.6,32.13a.84.84,0,0,1-.6-.25L12.12,28a.84.84,0,0,1-.25-.6.77.77,0,0,1,0-.15.83.83,0,0,1,.47-.62l7.2-3.31a.85.85,0,0,1,1.12,1.12l-3.31,7.2a.87.87,0,0,1-.62.48Zm-2.43-4.47,2.17,2.16,1.84-4Z"/><path class="cls-1" d="M19.91,24.94a.85.85,0,0,1-.6-1.45l4.28-4.27a.84.84,0,0,1,1.19.07.83.83,0,0,1,0,1.12l-4.27,4.28A.86.86,0,0,1,19.91,24.94Z"/></g></g></svg>