<svg xmlns="http://www.w3.org/2000/svg" viewBox="0 0 40.78 40.78"><defs><style>.cls-1{fill:#0099d6;}</style></defs><g id="Layer_2" data-name="Layer 2"><g id="Layer_1-2" data-name="Layer 1"><path class="cls-1" d="M10.19,36.7h-2a.68.68,0,0,0,0,1.36h2A.68.68,0,0,0,10.19,36.7Z"/><path class="cls-1" d="M12.23,32.62H9.52a.68.68,0,0,0,0,1.36h2.71A.68.68,0,0,0,12.23,32.62Z"/><path class="cls-1" d="M17.67,36.7H15a.68.68,0,0,0,0,1.36h2.72A.68.68,0,0,0,17.67,36.7Z"/><path class="cls-1" d="M40.1,6.12H24.89a4.71,4.71,0,1,0-9,0h-5.7a.67.67,0,0,0-.67.68v7.47H6.8a.68.68,0,0,0-.68.68V19a.67.67,0,0,0,.68.68H7.93v8.5a1.54,1.54,0,0,1-.54,1.17L1.22,34.67A3.43,3.43,0,0,0,0,37.31a3.48,3.48,0,0,0,3.47,3.47H19.63a3.48,3.48,0,0,0,3.47-3.4h17a.67.67,0,0,0,.68-.68V6.8A.67.67,0,0,0,40.1,6.12ZM36,7.48v8.15H28.55V7.48ZM20.39,1.36a3.4,3.4,0,0,1,3.4,3.4c-.15,1.91-2.51,5.53-3.4,6.93C19.28,9.9,17.2,6.77,17,4.76A3.4,3.4,0,0,1,20.39,1.36ZM7.48,15.63h8.15v2.72H7.48Zm6.34,4.08v4.08H9.29V19.71Zm5.81,19.71H3.47A2.12,2.12,0,0,1,2.1,35.7l6.18-5.29a2.93,2.93,0,0,0,1-2.2V25.15h4.53v3.06a2.93,2.93,0,0,0,1,2.2L21,35.71A2.12,2.12,0,0,1,19.63,39.42ZM39.42,36H22.86a3.51,3.51,0,0,0-1-1.35l-6.18-5.29a1.57,1.57,0,0,1-.53-1.17c0-2.08,0-6.41,0-8.5h1.13A.67.67,0,0,0,17,19V15a.68.68,0,0,0-.68-.68H10.87V7.48h5.56a43.26,43.26,0,0,0,3.4,5.82.69.69,0,0,0,1.12,0,43.26,43.26,0,0,0,3.4-5.82h2.84v8.83a.67.67,0,0,0,.68.68H36.7a.67.67,0,0,0,.68-.68V7.48h2Z"/><path class="cls-1" d="M20.39,7.48a.68.68,0,0,0,.68-.68v-2a.68.68,0,1,0-1.36,0v2A.68.68,0,0,0,20.39,7.48Z"/><path class="cls-1" d="M36.7,26.92H27.19a.68.68,0,0,0,0,1.36H36.7A.68.68,0,0,0,36.7,26.92Z"/><path class="cls-1" d="M36.7,30.58H31.58a.68.68,0,0,0,0,1.36H36.7A.68.68,0,0,0,36.7,30.58Z"/></g></g></svg>