<svg xmlns="http://www.w3.org/2000/svg" viewBox="0 0 46.45 32"><defs><style>.cls-1{fill:#0099d6;}</style></defs><g id="Layer_2" data-name="Layer 2"><g id="Layer_1-2" data-name="Layer 1"><path class="cls-1" d="M46.45,2.28a.79.79,0,0,0-.78-.79H44.41v-1a.47.47,0,0,0-.93,0v1H9.22L8.69.31A.46.46,0,0,0,8.27,0H6.41A.45.45,0,0,0,6,.28L5.37,1.5a1,1,0,0,0-.87,1V7.73l-.65,1a1.31,1.31,0,0,0-.11,1.2,1.28,1.28,0,0,0,.91.75,4.58,4.58,0,0,1,.47.12,2.68,2.68,0,0,1,1.89,3,16.18,16.18,0,0,1-1.09,3.46,23.75,23.75,0,0,1-2.58,4.65A18.87,18.87,0,0,0,.05,29.12a2.35,2.35,0,0,0,.47,2,2.38,2.38,0,0,0,1.9.9h11.2a2,2,0,0,0,1.54-.67A2,2,0,0,0,15,28.8a1.22,1.22,0,0,1,.31-1.54,1.91,1.91,0,0,0,1.18-1.11,2.06,2.06,0,0,0-.09-1.58,1.47,1.47,0,0,1,.65-1.39,1.81,1.81,0,0,0,1.17-2.27.14.14,0,0,0,0-.06,1.55,1.55,0,0,1,0-1.23l0-.08a3.78,3.78,0,0,1,.61-1.26.66.66,0,0,1,.81-.15,7.36,7.36,0,0,0,3,.88h5.87a2.78,2.78,0,0,0,2.79-2.78V12.88a.67.67,0,0,1,.2-.48.63.63,0,0,1,.46-.2H44.77a1.69,1.69,0,0,0,1.68-1.69h0Zm-.93,5.11H15.1V4.91a.47.47,0,1,0-.93,0V7.4h-.79V4.91a.47.47,0,1,0-.93,0V7.4h-.79V4.91a.47.47,0,1,0-.93,0V7.4H9.94V4.91a.47.47,0,1,0-.93,0V7.4h-.8V4.91a.46.46,0,0,0-.46-.47.47.47,0,0,0-.47.47V7.4H5.43V2.48a.06.06,0,0,1,.06-.06h11.7v.51a.93.93,0,0,0,.93.93h4.51A1.24,1.24,0,0,0,23.87,5h7.54a1.23,1.23,0,0,0,1.24-1.24V2.42H45.52ZM22.83,2.94H18.12V2.42h13.6V3.73a.31.31,0,0,1-.31.32H23.88a.31.31,0,0,1-.31-.32V3.67a.74.74,0,0,0-.74-.73ZM8,1l.23.53H6.44L6.71,1ZM30.89,11.74a1.56,1.56,0,0,0-.46,1.14v3.34a1.86,1.86,0,0,1-1.86,1.86H22.7a6.58,6.58,0,0,1-2.55-.78,1.58,1.58,0,0,0-1.95.38,4.62,4.62,0,0,0-.78,1.57,2.46,2.46,0,0,0-.05,2,.91.91,0,0,1-.64,1.09l-.08,0a2.38,2.38,0,0,0-1.14,2.44.88.88,0,0,0,.05.15,1.3,1.3,0,0,1,.08.93,1.13,1.13,0,0,1-.69.59l-.09,0a2.14,2.14,0,0,0-.67,2.78.41.41,0,0,0,.07.11s.67.82.18,1.4a1.06,1.06,0,0,1-.82.34H2.42a1.51,1.51,0,0,1-1.16-.56A1.42,1.42,0,0,1,1,29.35a18.34,18.34,0,0,1,3.16-6.84,24,24,0,0,0,2.69-4.82A17.86,17.86,0,0,0,8,14,3.61,3.61,0,0,0,5.39,10a4.56,4.56,0,0,0-.53-.13.34.34,0,0,1-.24-.21.33.33,0,0,1,0-.33l.58-.9h29v2.88H32.05A1.64,1.64,0,0,0,30.89,11.74Zm14.63-1.23a.75.75,0,0,1-.75.75H35.2V8.33H45.52Z"/><path class="cls-1" d="M16.32,13.87a5.11,5.11,0,0,0-2.81-1A3.87,3.87,0,0,0,9,15.92a15.93,15.93,0,0,1-.63,1.67A16.56,16.56,0,0,1,6,21.44a18.2,18.2,0,0,0-3.07,5.18A1.74,1.74,0,0,0,4,28.84a1.65,1.65,0,0,0,.58.1h6.55a1.93,1.93,0,0,0,1.82-1.28l4-11.39A2.16,2.16,0,0,0,16.32,13.87ZM16.11,16h0l-4,11.39a1,1,0,0,1-.93.66H4.57a.84.84,0,0,1-.67-.34.78.78,0,0,1-.09-.74A17.31,17.31,0,0,1,6.72,22,17.65,17.65,0,0,0,9.21,18a12.2,12.2,0,0,0,.69-1.86A2.88,2.88,0,0,1,13,13.76h.42a4.21,4.21,0,0,1,2.32.8A1.23,1.23,0,0,1,16.11,16Z"/><path class="cls-1" d="M28,11.26H22.16A2.19,2.19,0,0,0,20,13.45v.23a3.55,3.55,0,0,0,3.55,3.55H28a1.47,1.47,0,0,0,1.46-1.46v-3A1.47,1.47,0,0,0,28,11.26Zm-4.6.93a5.28,5.28,0,0,0,.49,2.21,3.57,3.57,0,0,1-2-2.16,1.13,1.13,0,0,1,.32-.05Zm5.11,3.58a.53.53,0,0,1-.53.53H23.51a2.62,2.62,0,0,1-2.6-2.62v-.23a1.33,1.33,0,0,1,.16-.62,4.21,4.21,0,0,0,3.64,2.68h0a.46.46,0,0,0,.46-.47.43.43,0,0,0-.06-.22,5.22,5.22,0,0,1-.79-2.63H28a.53.53,0,0,1,.53.53Z"/></g></g></svg>