<svg xmlns="http://www.w3.org/2000/svg" viewBox="0 0 47.18 38.97"><defs><style>.cls-1{fill:#0099d6;}</style></defs><g id="Layer_2" data-name="Layer 2"><g id="Layer_1-2" data-name="Layer 1"><path class="cls-1" d="M22.84,23.33a.77.77,0,0,0-1.06-.22,4.28,4.28,0,0,1-4.64,0,.76.76,0,0,0-.57-.11.74.74,0,0,0-.48.33l-4.83,7.35a.76.76,0,0,0,.22,1.05,14.52,14.52,0,0,0,16,0,.75.75,0,0,0,.22-1.05ZM19.46,32.6A13,13,0,0,1,13,30.86l4-6.1a5.81,5.81,0,0,0,5,0l4,6.1A12.94,12.94,0,0,1,19.46,32.6Zm1.9-16.8a4.2,4.2,0,0,1,2.33,3.78,1.93,1.93,0,0,1,0,.24.76.76,0,0,0,.72.8l8.78.51h0a.75.75,0,0,0,.76-.72c0-.27,0-.55,0-.83a14.45,14.45,0,0,0-8-13,.73.73,0,0,0-.58,0,.79.79,0,0,0-.44.38l-4,7.86A.77.77,0,0,0,21.36,15.8ZM26,8.31a12.92,12.92,0,0,1,6.5,11.25l-7.28-.42a5.7,5.7,0,0,0-2.5-4.31ZM15.24,19.82c0-.08,0-.16,0-.24a4.22,4.22,0,0,1,2.33-3.78.76.76,0,0,0,.34-1L14,6.92a.75.75,0,0,0-.44-.38.8.8,0,0,0-.59,0,14.5,14.5,0,0,0-8,13c0,.28,0,.55,0,.83a.84.84,0,0,0,.26.53.78.78,0,0,0,.5.19h0l8.77-.51A.76.76,0,0,0,15.24,19.82Zm-8.8-.26a13,13,0,0,1,6.5-11.25l3.28,6.52a5.69,5.69,0,0,0-2.49,4.31Zm10,0a3,3,0,1,0,3-3A3,3,0,0,0,16.47,19.58Zm3-1.48A1.48,1.48,0,1,1,18,19.58,1.48,1.48,0,0,1,19.46,18.1Zm19.33,4A19.26,19.26,0,0,0,39,19.48,19.49,19.49,0,1,0,31.5,34.82a8.43,8.43,0,1,0,7.29-12.71Zm-8,11.31a18,18,0,1,1,6.63-13.94,18.35,18.35,0,0,1-.21,2.77l-.11,0-.27.06-.53.14-.21.07a5.71,5.71,0,0,0-.58.21l-.14.06c-.21.09-.43.19-.63.3l-.05,0a8.36,8.36,0,0,0-3.36,3.36.56.56,0,0,0-.05.08c-.1.2-.2.4-.29.6s-.05.12-.07.17-.14.37-.2.55-.05.16-.07.23a5.18,5.18,0,0,0-.14.53l-.06.26c0,.18-.06.36-.08.54s0,.18,0,.27,0,.49,0,.74v.12c0,.25,0,.5,0,.76l0,.24c0,.19.05.37.09.55l.06.27c0,.17.08.34.13.51a2.58,2.58,0,0,0,.08.26A2.17,2.17,0,0,1,30.82,33.42Zm7.93,4a6.92,6.92,0,0,1-6.34-4.18c0-.1-.08-.21-.12-.31s-.09-.23-.13-.34,0-.21-.08-.31-.07-.24-.09-.37,0-.25-.06-.37,0-.21-.05-.32,0-.47,0-.71c0,0,0-.07,0-.1a5.49,5.49,0,0,1,0-.58,2.08,2.08,0,0,1,0-.23c0-.14,0-.29.07-.44A1.6,1.6,0,0,1,32,29c0-.15.07-.3.11-.44l.06-.18a4.28,4.28,0,0,1,.17-.46l.06-.13a3.54,3.54,0,0,1,.23-.48.41.41,0,0,1,.05-.09,5.09,5.09,0,0,1,.3-.5l0,0a4.82,4.82,0,0,1,.38-.51h0a6.93,6.93,0,0,1,3.93-2.38l.16,0,.53-.08h0a5.37,5.37,0,0,1,.7,0,6.91,6.91,0,0,1,0,13.82Zm2.37-7.35a.74.74,0,0,1,0,.76l-2.23,4a.75.75,0,0,1-.66.39.71.71,0,0,1-.37-.1.76.76,0,0,1-.3-1l1.58-2.83-2.1.06a.79.79,0,0,1-.67-.36.76.76,0,0,1,0-.76l2.14-4a.76.76,0,1,1,1.34.72l-1.52,2.84,2.13-.06A.75.75,0,0,1,41.12,30.1Z"/></g></g></svg>