<svg xmlns="http://www.w3.org/2000/svg" viewBox="0 0 93.56 65.31"><defs><style>.cls-1{fill:#005d9f;}</style></defs><g id="Layer_2" data-name="Layer 2"><g id="Layer_1-2" data-name="Layer 1"><path class="cls-1" d="M21.92,54.31H6.49a1,1,0,0,1,0-2H21.92a1,1,0,0,1,0,2Z"/><path class="cls-1" d="M87.07,54.31H71.62a1,1,0,0,1,0-2H87.07a1,1,0,0,1,0,2Z"/><path class="cls-1" d="M84.64,23.77H8.9a1,1,0,0,1,0-2H84.64a1,1,0,0,1,0,2Z"/><path class="cls-1" d="M88.78,23.77H84.66a1,1,0,0,1-.89-.54l-3.9-7.56a1,1,0,0,1,.43-1.35,1,1,0,0,1,.48-.11h8a4.78,4.78,0,1,1,0,9.56Zm-3.48-2h3.48a2.78,2.78,0,1,0,0-5.56H82.4Z"/><path class="cls-1" d="M8.9,23.77H4.78a4.78,4.78,0,1,1,0-9.56h8a1,1,0,0,1,1,1,1,1,0,0,1-.11.46L9.78,23.23A1,1,0,0,1,8.9,23.77ZM4.78,16.21a2.78,2.78,0,1,0,0,5.56H8.26l2.87-5.56Z"/><path class="cls-1" d="M83.83,65.31h-9a4.26,4.26,0,0,1-4.24-4.24V54.31H22.92V61.1a4.24,4.24,0,0,1-4.24,4.21H9.78a4.26,4.26,0,0,1-4.24-4.24V32.24a20.83,20.83,0,0,1,2.24-9.55L8,22.32,17.4,4A7.41,7.41,0,0,1,24,0H69.52a7.41,7.41,0,0,1,6.6,4l9.66,18.7a20.83,20.83,0,0,1,2.32,9.54V61.07a4.25,4.25,0,0,1-4.26,4.24Zm-61.91-13h49.7a1,1,0,0,1,1,1v7.78a2.24,2.24,0,0,0,2.24,2.22h9a2.24,2.24,0,0,0,2.24-2.24V32.24A18.81,18.81,0,0,0,84,23.61l-.21-.4L74.34,4.91A5.4,5.4,0,0,0,69.52,2H24a5.41,5.41,0,0,0-4.82,2.94L9.6,23.6a18.82,18.82,0,0,0-2.11,8.64V61.07a2.24,2.24,0,0,0,2.24,2.24h9.05A2.24,2.24,0,0,0,21,61.07V53.31a1,1,0,0,1,.29-.71A1,1,0,0,1,21.92,52.31Z"/><path class="cls-1" d="M61.2,34.72H32.34a1,1,0,0,1,0-2H61.2a1,1,0,0,1,0,2Z"/><path class="cls-1" d="M61.2,42.86H32.34a1,1,0,0,1,0-2H61.2a1,1,0,0,1,0,2Z"/><path class="cls-1" d="M72.9,44a6.17,6.17,0,1,1,6.16-6.18A6.17,6.17,0,0,1,72.9,44Zm0-10.34a4.17,4.17,0,1,0,4.16,4.18v0A4.17,4.17,0,0,0,72.9,33.62Z"/><path class="cls-1" d="M20.65,44a6.17,6.17,0,1,1,6.13-6.21v0A6.19,6.19,0,0,1,20.65,44Zm0-10.34a4.17,4.17,0,1,0,4.13,4.21v0A4.18,4.18,0,0,0,20.65,33.62Z"/><path class="cls-1" d="M21.35,10.8a1,1,0,0,1-.45-1.9l7-3.51a1,1,0,0,1,.88,1.79l-7,3.51A1.05,1.05,0,0,1,21.35,10.8Z"/><path class="cls-1" d="M20.91,16.1a1,1,0,0,1-.89-.55,1,1,0,0,1,.43-1.35h0l12.11-6A1,1,0,0,1,33.46,10l-12.1,6A1,1,0,0,1,20.91,16.1Z"/></g></g></svg>