<svg xmlns="http://www.w3.org/2000/svg" viewBox="0 0 262.75 262.78"><defs><style>.cls-1{fill:#009ddc;fill-rule:evenodd;}</style></defs><g id="Layer_2" data-name="Layer 2"><g id="Layer_1-2" data-name="Layer 1"><path class="cls-1" d="M77.21,125a60.61,60.61,0,1,0,60.63,60.59A60.67,60.67,0,0,0,77.21,125Zm53,56.87H92.68a15.93,15.93,0,0,0-4.52-7.8l18.78-32.52A53.06,53.06,0,0,1,130.17,181.82Zm-61.44,3.72A8.49,8.49,0,1,1,77.21,194,8.48,8.48,0,0,1,68.73,185.54Zm31.75-47.73L81.73,170.27a15.4,15.4,0,0,0-4.52-.66,16.34,16.34,0,0,0-4.51.66L54,137.81a52.64,52.64,0,0,1,46.53,0Zm-53,3.69L66.24,174a16.06,16.06,0,0,0-4.52,7.8H24.22A53.22,53.22,0,0,1,47.46,141.5ZM24.22,189.27h37.5a16,16,0,0,0,4.52,7.8L47.46,229.58A53.15,53.15,0,0,1,24.22,189.27Zm29.73,44L72.7,200.82a15.61,15.61,0,0,0,4.51.65,16.46,16.46,0,0,0,4.52-.65l18.75,32.46a52.64,52.64,0,0,1-46.53,0Zm53-3.67L88.16,197.09a16.06,16.06,0,0,0,4.52-7.8h37.49A53.1,53.1,0,0,1,106.94,229.61Zm155.79,4.52a3.72,3.72,0,0,0-4.14-3.26l-21.23,2.54V151.17a19.7,19.7,0,0,0-19.14-19.66V89A30.32,30.32,0,0,0,191.62,59v-.63a13.14,13.14,0,0,0-13.14-13.13H106.11A13.13,13.13,0,0,0,93,58.35v.39H80.91V38a30.33,30.33,0,0,0-29-30.24V3.72A3.7,3.7,0,0,0,48.17,0H11.47a11.47,11.47,0,0,0,0,22.94h36.7a3.73,3.73,0,0,0,3.72-3.73v-4A22.88,22.88,0,0,1,73.49,38v70.4a77.2,77.2,0,1,0,80.93,77.1,76.4,76.4,0,0,0-4.87-26.93h61.23v58.74a22.87,22.87,0,1,0,26.55,23.59l22.14-2.65A3.78,3.78,0,0,0,262.73,234.13ZM44.45,15.49h-33a4,4,0,1,1,0-8h33ZM229.91,151.17H218.22V139A12.22,12.22,0,0,1,229.91,151.17ZM100.42,58.35a5.69,5.69,0,0,1,5.69-5.69h72.37a5.69,5.69,0,0,1,5.69,5.69v.39H100.42Zm87.5,7.83a22.92,22.92,0,0,1,22.89,22.88v42.45H132.25a77,77,0,0,0-51.32-23V66.18ZM77.21,255.31A69.77,69.77,0,1,1,147,185.54,69.85,69.85,0,0,1,77.21,255.31Zm69.08-104.14a77.7,77.7,0,0,0-7.6-12.24h72.09v12.24Zm83.62,7.44V223a22.82,22.82,0,0,0-11.69-5.69V158.61Zm-15.41,96.7a15.44,15.44,0,1,1,15.44-15.44A15.46,15.46,0,0,1,214.5,255.31Zm5.34-15.44a5.31,5.31,0,1,1-5.31-5.31A5.31,5.31,0,0,1,219.84,239.87Z"/></g></g></svg>