<svg xmlns="http://www.w3.org/2000/svg" viewBox="0 0 214.07 45.94"><defs><style>.cls-1{fill:#025397;}.cls-2{fill:#f9dc11;}.cls-3{fill:#fff;}.cls-4{fill:#229dd8;}.cls-5{fill:#90be47;}.cls-6{fill:#005d9f;}</style></defs><g id="Layer_2" data-name="Layer 2"><g id="Layer_1-2" data-name="Layer 1"><path class="cls-1" d="M54.41,22.15c-4.27,11.76-18.91,21.3-32.7,21.32S.2,34,4.46,22.2,23.37.9,37.16.89s21.51,9.5,17.25,21.26"/><polygon class="cls-2" points="33.98 2.53 33.16 11.9 39.15 2.53 35.7 12.25 43.66 3.86 37.8 13.27 47.2 6.44 39.34 14.9 49.53 10.1 40.2 17.03 50.49 14.57 40.32 19.51 50.02 19.57 39.71 22.17 48.14 24.74 38.39 24.83 44.98 29.74 36.47 27.31 40.77 34.23 34.06 29.44 35.79 37.89 31.34 31.07 30.37 40.48 28.49 32.1 24.89 41.82 25.71 32.45 19.72 41.83 23.18 32.11 15.21 40.49 21.07 31.08 11.67 37.91 19.31 28.79 9.34 34.26 18.68 27.33 8.38 29.78 18.55 24.85 8.86 24.78 19.16 22.19 10.73 19.61 20.48 19.53 13.88 14.61 22.41 17.05 18.1 10.13 24.81 14.92 23.08 6.47 27.53 13.28 28.5 3.88 30.38 12.25 33.98 2.53"/><path class="cls-3" d="M21.65,22.19c-1.56,4.29.67,7.78,5,7.77s9-3.5,10.61-7.79-.67-7.78-5-7.78-9,3.5-10.61,7.8m.7,0c1.42-3.9,5.75-7.08,9.66-7.09s5.93,3.17,4.51,7.08-5.75,7.09-9.66,7.09-5.92-3.17-4.51-7.08"/><path class="cls-4" d="M8.22,22.17h0C12.4,10.66,25,1.25,36.56.94h.57a27.88,27.88,0,0,1,4.58.36c.55.09,1.09.2,1.63.33a21.47,21.47,0,0,1,2.39.72C41.43-.07,33.57-.56,27.69.6,14.92,3.13,3.86,12.49,0,22.18Z"/><path class="cls-5" d="M50.65,22.19h0C46.47,33.7,33.85,43.11,22.3,43.42h-.57a29,29,0,0,1-4.57-.36c-.55-.09-1.09-.21-1.63-.34A23.06,23.06,0,0,1,13.14,42c4.3,2.41,12.15,2.9,18,1.73C43.94,41.23,55,31.87,58.86,22.18H50.65Z"/><path class="cls-6" d="M86.78,16.26a2.18,2.18,0,0,0-1.28-2,6.24,6.24,0,0,0-3-.62,5.66,5.66,0,0,0-1.4.13l-1.55,6.55a7.54,7.54,0,0,0,1,.08,8.17,8.17,0,0,0,4.47-1.11,3.43,3.43,0,0,0,1.72-3M92.7,30.5a20.61,20.61,0,0,1-3.4.28A3.26,3.26,0,0,1,87,30.05a17.51,17.51,0,0,1-2.41-3.76,13.59,13.59,0,0,0-2.48-3.65,4.4,4.4,0,0,0-2.86-.79l-1.58,6.81a2.85,2.85,0,0,0-.1.74,1.75,1.75,0,0,0,.51,1.27h-6A2.46,2.46,0,0,0,73.35,29l3.51-15.19a3.13,3.13,0,0,0,.06-.65,1.09,1.09,0,0,0-.57-1h7.12a12.92,12.92,0,0,1,5.94,1.11A3,3,0,0,1,91.32,16c0,1.48-.82,2.71-2.47,3.71a12.93,12.93,0,0,1-5.12,1.64,4.47,4.47,0,0,1,2.77,1.46,12,12,0,0,1,1.72,2.61A22.74,22.74,0,0,0,90.6,29.3a3.81,3.81,0,0,0,2.1,1.2"/><path class="cls-6" d="M116.08,17.77a9.37,9.37,0,0,0-2.31,2.91l-5.94,10h-2.19L104.1,22.1l-5.49,8.55H96.49L95.36,20.52a15.55,15.55,0,0,0-.3-1.89,1.69,1.69,0,0,0-.56-.84h4.7a1.12,1.12,0,0,0-.6,1.09,8.12,8.12,0,0,0,.07,1l.7,6.53,5.56-8.62h1.74l1.57,8.56L112,20.08a4.9,4.9,0,0,0,.83-2,.37.37,0,0,0-.19-.35Z"/><path class="cls-6" d="M127,19.89a2.88,2.88,0,0,0-2.34-1c-1.64,0-3,.9-4,2.71a9.19,9.19,0,0,0-1.23,4.59c0,1.81.85,2.71,2.54,2.71a3.83,3.83,0,0,0,1.84-.58,6,6,0,0,0,1.56-1.22Zm4.17-2.14-2.5,10.88a4.8,4.8,0,0,0-.16,1c0,.5.43.83,1.27,1a17.3,17.3,0,0,1-2.76.23,6.63,6.63,0,0,1-1.46-.1c-.51-.11-.77-.38-.77-.79V29.4a7,7,0,0,1-4.64,1.65,4.82,4.82,0,0,1-3.72-1.42,4.93,4.93,0,0,1-1.21-3.49,8.31,8.31,0,0,1,2.51-5.72,9.23,9.23,0,0,1,7.05-3.08,5.45,5.45,0,0,1,3.27,1l1.28-.55Z"/><path class="cls-6" d="M148.82,20.07a10.09,10.09,0,0,1-.31,2L147,28.66a4,4,0,0,0-.13.95c0,.49.43.82,1.3,1a23.63,23.63,0,0,1-3.43.22c-1,0-1.56-.3-1.56-.91a8.27,8.27,0,0,1,.26-1.37l1.45-6.38a7.73,7.73,0,0,0,.22-1.49c0-.8-.52-1.19-1.55-1.19a6.59,6.59,0,0,0-3.91,1.76L138,28.45a7.06,7.06,0,0,0-.19,1.16,1.22,1.22,0,0,0,.55,1H133a3.18,3.18,0,0,0,1.36-2.11l2-8.79a3.3,3.3,0,0,0,.1-.8c0-.64-.2-1-.61-1.16h4.58l-.32,1.34a10.75,10.75,0,0,1,2.32-1.21,7.76,7.76,0,0,1,2.67-.55q3.69,0,3.69,2.75"/><path class="cls-6" d="M162.93,19.85a2.74,2.74,0,0,0-2.32-1,4.57,4.57,0,0,0-4,2.61,9.1,9.1,0,0,0-1.3,4.69c0,1.81.85,2.71,2.55,2.71a4.68,4.68,0,0,0,3.36-1.72Zm5.49-8.29-3.83,16.78a5.37,5.37,0,0,0-.15,1.22c0,.48.41.82,1.23,1a18.11,18.11,0,0,1-2.7.22,6.26,6.26,0,0,1-1.71-.14.74.74,0,0,1-.57-.75,2,2,0,0,1,.09-.54A7.33,7.33,0,0,1,156.17,31a4.57,4.57,0,0,1-5-4.91,8.21,8.21,0,0,1,2.6-5.81,9.19,9.19,0,0,1,6.89-3,4.91,4.91,0,0,1,2.7.67l1-4.37a5.19,5.19,0,0,0,.15-.95,1.21,1.21,0,0,0-.6-1.09Z"/><path class="cls-6" d="M183.59,22.77l-1.91-7.55-5.53,7.58c.68.06,2,.1,3.82.12.8,0,2-.07,3.62-.15m6.4,7.78h-5.37a.77.77,0,0,0,.57-.74,3.39,3.39,0,0,0-.13-.8l-1.15-4.47c-1.14-.1-2.55-.14-4.23-.14-1.93,0-3.53.05-4.83.15l-3.2,4.38a2.92,2.92,0,0,0-.67,1.24q0,.22.39.39h-4a6.93,6.93,0,0,0,1.84-1.92L180.4,13.41a1.73,1.73,0,0,0,.42-.9q0-.3-.45-.42h4.42L189,28.94a2.28,2.28,0,0,0,1,1.61"/><path class="cls-6" d="M201.19,13.16a1.39,1.39,0,0,1-.62,1.17,2.37,2.37,0,0,1-1.47.47,2.32,2.32,0,0,1-1.48-.47,1.39,1.39,0,0,1-.62-1.16,1.41,1.41,0,0,1,.62-1.16,2.32,2.32,0,0,1,1.47-.49,2.35,2.35,0,0,1,1.48.49,1.44,1.44,0,0,1,.62,1.15m-1.33,4.52-2.4,10.63a6.43,6.43,0,0,0-.22,1.24c0,.47.41.8,1.23,1a17.21,17.21,0,0,1-3.24.22q-1.68,0-1.68-1a6.39,6.39,0,0,1,.19-1.1l2.06-9a4.46,4.46,0,0,0,.12-.92,1.07,1.07,0,0,0-.6-1.09Z"/><path class="cls-6" d="M214.07,17.59l-.22,3.33a3.43,3.43,0,0,0-2.58-1.09,4.87,4.87,0,0,0-3.46,1.67l-1.68,7.1a4.74,4.74,0,0,0-.16.89,1.19,1.19,0,0,0,.55,1.05h-5.31a2.76,2.76,0,0,0,1.36-2l2.06-8.94a4.65,4.65,0,0,0,.12-1,1,1,0,0,0-.57-1h4.45l-.38,1.72a5.72,5.72,0,0,1,4.13-2.14,4.05,4.05,0,0,1,1.69.34"/><path class="cls-6" d="M120.48,39.1l-.06.65a5,5,0,0,0-1.67-.17h-1l-.41,1.82q1.45,0,2.19-.06l-.05.62a2.55,2.55,0,0,0-.94-.12h-1.29l-.46,2a1.46,1.46,0,0,0,0,.29.44.44,0,0,0,.13.33h-1.65a.78.78,0,0,0,.35-.54l1-4.46a.77.77,0,0,0,0-.15.25.25,0,0,0-.18-.25Z"/><path class="cls-6" d="M122.55,38.94l-1.08,4.85a2.3,2.3,0,0,0-.07.4c0,.14.12.24.35.31a5.5,5.5,0,0,1-.91.06,1,1,0,0,1-.37-.05.25.25,0,0,1-.12-.25,1.35,1.35,0,0,1,.05-.29l1-4.48a.84.84,0,0,0,0-.23.32.32,0,0,0-.17-.32Z"/><path class="cls-6" d="M127.5,40.74a3.57,3.57,0,0,0-.6.72l-2.37,3.31a4.68,4.68,0,0,1-1.1,1.15l-.52,0a3.55,3.55,0,0,1-1-.19,3.3,3.3,0,0,0,1.28-.37,4.53,4.53,0,0,0,1.1-1.15l-.61-2.53a3.81,3.81,0,0,0-.22-.68.59.59,0,0,0-.42-.28,4.72,4.72,0,0,1,.72-.07,2.42,2.42,0,0,1,.48,0,.41.41,0,0,1,.26.28l.54,2.2,1.32-1.84a1.06,1.06,0,0,0,.25-.52s0-.07-.08-.09Z"/><path class="cls-6" d="M132.47,40.74l-.06.67a1.7,1.7,0,0,0-.85-.18h-.49l-.47,2.1c0,.24-.08.39-.08.43,0,.24.16.35.48.35a1.51,1.51,0,0,0,.85-.25,1.92,1.92,0,0,1-.32.58,2.25,2.25,0,0,1-1,.18c-.68,0-1-.23-1-.7a2.51,2.51,0,0,1,.07-.56l.47-2.13h-.62a7.15,7.15,0,0,0,2-1.38l-.2.89Z"/><path class="cls-6" d="M137,41.43a2.86,2.86,0,0,1-.09.57l-.43,1.93a1,1,0,0,0,0,.28c0,.14.12.24.37.29a7.59,7.59,0,0,1-1,.06c-.29,0-.44-.09-.44-.27s0-.18.07-.39l.42-1.87a2.34,2.34,0,0,0,.06-.44c0-.23-.14-.34-.44-.34a2,2,0,0,0-1.11.51l-.46,2.11a1.61,1.61,0,0,0-.06.34.38.38,0,0,0,.16.29H132.5a1,1,0,0,0,.39-.62l1-4.37a.81.81,0,0,0,0-.2.39.39,0,0,0-.17-.37H135l-.52,2.19a3,3,0,0,1,.69-.36,1.79,1.79,0,0,1,.69-.16,1.39,1.39,0,0,1,.83.2.74.74,0,0,1,.26.62"/><path class="cls-6" d="M141.73,41.84a3.72,3.72,0,0,1-.12.9l-2.75,0a2.88,2.88,0,0,0,0,.35.92.92,0,0,0,.27.71,1,1,0,0,0,.71.26,3,3,0,0,0,1.47-.44l-.21.41a1.12,1.12,0,0,1-.29.35,2.82,2.82,0,0,1-1.33.22,2,2,0,0,1-1.35-.43,1.35,1.35,0,0,1-.46-1,2.39,2.39,0,0,1,.7-1.69,2.56,2.56,0,0,1,2-.85,1.5,1.5,0,0,1,1.08.36,1.12,1.12,0,0,1,.34.87m-1.08-.07c0-.46-.18-.69-.55-.69-.54,0-.92.42-1.17,1.28.61,0,1.15,0,1.65,0a2.35,2.35,0,0,0,.07-.54"/><path class="cls-6" d="M149,38.94l-1.09,4.9a1.81,1.81,0,0,0,0,.36q0,.21.36.3a5.63,5.63,0,0,1-.77.06,1.83,1.83,0,0,1-.49,0,.21.21,0,0,1-.16-.22.55.55,0,0,1,0-.16,2.07,2.07,0,0,1-1.32.48,1.37,1.37,0,0,1-1.08-.42,1.45,1.45,0,0,1-.34-1,2.4,2.4,0,0,1,.74-1.69,2.55,2.55,0,0,1,2-.88,1.4,1.4,0,0,1,.77.2l.29-1.28a1,1,0,0,0,0-.27.36.36,0,0,0-.17-.32Zm-1.56,2.42a.77.77,0,0,0-.66-.3,1.31,1.31,0,0,0-1.13.77,2.66,2.66,0,0,0-.37,1.37c0,.53.24.79.72.79a1.34,1.34,0,0,0,1-.5Z"/><path class="cls-6" d="M152.68,40.72l-.07,1a1,1,0,0,0-.73-.32,1.37,1.37,0,0,0-1,.48l-.48,2.08a1.35,1.35,0,0,0,0,.26.35.35,0,0,0,.15.31H149a.81.81,0,0,0,.39-.58l.59-2.61a1.58,1.58,0,0,0,0-.28.29.29,0,0,0-.16-.29h1.26l-.11.5a1.63,1.63,0,0,1,1.18-.63,1.13,1.13,0,0,1,.48.11"/><path class="cls-6" d="M156.78,41.84a3.32,3.32,0,0,1-.13.9l-2.74,0a1.7,1.7,0,0,0,0,.35.92.92,0,0,0,.27.71,1,1,0,0,0,.71.26,3,3,0,0,0,1.46-.44,3,3,0,0,1-.21.41,1,1,0,0,1-.28.35,2.84,2.84,0,0,1-1.33.22,2,2,0,0,1-1.35-.43,1.32,1.32,0,0,1-.46-1,2.43,2.43,0,0,1,.69-1.69,2.57,2.57,0,0,1,2-.85,1.5,1.5,0,0,1,1.08.36,1.12,1.12,0,0,1,.34.87m-1.08-.07c0-.46-.19-.69-.55-.69-.54,0-.93.42-1.17,1.28.6,0,1.15,0,1.64,0a2.43,2.43,0,0,0,.08-.54"/><path class="cls-6" d="M161.73,40.74,161,43.92a1.37,1.37,0,0,0,0,.29c0,.14.11.24.36.29a5.79,5.79,0,0,1-.79.06,1.82,1.82,0,0,1-.41,0c-.15,0-.22-.11-.22-.23v-.16a2,2,0,0,1-1.32.48,1.37,1.37,0,0,1-1.06-.41,1.49,1.49,0,0,1-.34-1,2.51,2.51,0,0,1,.71-1.67,2.6,2.6,0,0,1,2-.9,1.52,1.52,0,0,1,.93.29l.36-.16Zm-1.18.62a.82.82,0,0,0-.67-.3,1.32,1.32,0,0,0-1.14.8,2.79,2.79,0,0,0-.35,1.34c0,.53.24.79.72.79a1.12,1.12,0,0,0,.53-.17,1.94,1.94,0,0,0,.44-.35Z"/><path class="cls-6" d="M169.09,41.42A3.3,3.3,0,0,1,169,42l-.4,1.8a2.21,2.21,0,0,0-.07.43c0,.16.12.26.35.31a6.84,6.84,0,0,1-.91.06c-.33,0-.49-.09-.49-.27a3.73,3.73,0,0,1,.07-.4L168,42a2.3,2.3,0,0,0,.05-.39c0-.23-.13-.34-.38-.34a1.72,1.72,0,0,0-1.06.51l-.48,2.18a1,1,0,0,0,0,.25.37.37,0,0,0,.15.31h-1.51a.8.8,0,0,0,.37-.53l.45-2a2.1,2.1,0,0,0,.06-.41c0-.22-.13-.32-.39-.32a1.78,1.78,0,0,0-1.06.5l-.49,2.17a1.6,1.6,0,0,0,0,.27.4.4,0,0,0,.14.31h-1.5a.83.83,0,0,0,.38-.53l.6-2.7a.88.88,0,0,0,0-.21.35.35,0,0,0-.18-.32h1.29l-.09.39a2.36,2.36,0,0,1,1.38-.52c.58,0,.9.2,1,.58a2.58,2.58,0,0,1,1.5-.58c.64,0,1,.27,1,.81"/><path class="cls-6" d="M175.92,42.14a2.38,2.38,0,0,1-.68,1.68,2.46,2.46,0,0,1-1.89.8,1.7,1.7,0,0,1-1.26-.46,1.37,1.37,0,0,1-.44-1.06,2.36,2.36,0,0,1,.69-1.69,2.47,2.47,0,0,1,1.88-.8,1.74,1.74,0,0,1,1.26.46,1.4,1.4,0,0,1,.44,1.07m-1.19.21c0-.84-.23-1.26-.71-1.26a1,1,0,0,0-.93.69,2.44,2.44,0,0,0-.25,1.11c0,.83.24,1.25.7,1.25a1,1,0,0,0,1-.68,2.72,2.72,0,0,0,.23-1.11"/><path class="cls-6" d="M180.32,39l0,.83a.84.84,0,0,0-.77-.51.76.76,0,0,0-.62.26,3.13,3.13,0,0,0-.41,1.12h1.19l-.05.61a1.87,1.87,0,0,0-.89-.17h-.35l-.59,2.64a2.93,2.93,0,0,1-.79,1.47,2.34,2.34,0,0,1-1.16.65,1.14,1.14,0,0,1-.38-.23.94.94,0,0,0,.63-.33,1.69,1.69,0,0,0,.51-.85l.75-3.35h-.56a2.09,2.09,0,0,0,.67-.44,1.94,1.94,0,0,1,2-1.8,3.69,3.69,0,0,1,.87.1"/><path class="cls-6" d="M187.5,44.5H186a.23.23,0,0,0,.16-.22,1.31,1.31,0,0,0,0-.23l-.33-1.31c-.32,0-.72,0-1.2,0s-1,0-1.37,0L182.28,44a1,1,0,0,0-.19.36s0,.08.11.12h-1.12a2.06,2.06,0,0,0,.53-.56l3.17-4.46a.52.52,0,0,0,.12-.26c0-.06-.05-.1-.13-.12H186L187.21,44a.68.68,0,0,0,.29.47m-1.82-2.28L185.14,40l-1.57,2.22q.28,0,1.08,0l1,0"/><path class="cls-6" d="M192.26,39l0,.83a.85.85,0,0,0-.77-.51.76.76,0,0,0-.62.26,3,3,0,0,0-.41,1.12h1.19l-.05.61a1.87,1.87,0,0,0-.89-.17h-.35l-.59,2.64a2.87,2.87,0,0,1-.8,1.47,2.27,2.27,0,0,1-1.15.65,1.14,1.14,0,0,1-.38-.23,1,1,0,0,0,.63-.33,1.69,1.69,0,0,0,.51-.85l.75-3.35h-.56a2.21,2.21,0,0,0,.67-.44,1.92,1.92,0,0,1,2-1.8,3.69,3.69,0,0,1,.87.1"/><path class="cls-6" d="M195.11,40.72l-.07,1a1,1,0,0,0-.73-.32,1.37,1.37,0,0,0-1,.48l-.48,2.08a1.74,1.74,0,0,0,0,.26.34.34,0,0,0,.16.31h-1.51a.81.81,0,0,0,.39-.58l.58-2.61a1,1,0,0,0,0-.28.29.29,0,0,0-.16-.29h1.26l-.11.5a1.63,1.63,0,0,1,1.18-.63,1.13,1.13,0,0,1,.48.11"/><path class="cls-6" d="M197.17,40.74l-.69,3.1a2.33,2.33,0,0,0-.06.37c0,.13.11.23.35.29a5.15,5.15,0,0,1-.92.06c-.32,0-.48-.09-.48-.28a2.89,2.89,0,0,1,0-.32l.59-2.63a1.76,1.76,0,0,0,0-.27.31.31,0,0,0-.18-.32Zm.38-1.32a.43.43,0,0,1-.18.34.7.7,0,0,1-.84,0,.43.43,0,0,1-.18-.34.42.42,0,0,1,.18-.34.7.7,0,0,1,.84,0,.42.42,0,0,1,.18.34"/><path class="cls-6" d="M201.66,40.74l-.16.8a1.3,1.3,0,0,0-1.05-.46,1.41,1.41,0,0,0-1.13.59,2,2,0,0,0-.45,1.27q0,1.17,1,1.17a2.14,2.14,0,0,0,1.34-.51c-.08.2-.14.35-.18.43a1,1,0,0,1-.27.39,3.47,3.47,0,0,1-1.28.2,1.88,1.88,0,0,1-1.31-.43,1.26,1.26,0,0,1-.46-1,2.3,2.3,0,0,1,.84-1.74,3.06,3.06,0,0,1,2.17-.83,4.19,4.19,0,0,1,1,.13"/><path class="cls-6" d="M206.51,40.74l-.71,3.18a1.58,1.58,0,0,0-.05.29c0,.14.12.24.37.29a5.79,5.79,0,0,1-.79.06,1.92,1.92,0,0,1-.42,0,.23.23,0,0,1-.21-.23v-.16a2,2,0,0,1-1.32.48,1.37,1.37,0,0,1-1.06-.41,1.49,1.49,0,0,1-.34-1,2.46,2.46,0,0,1,.71-1.67,2.6,2.6,0,0,1,2-.9,1.54,1.54,0,0,1,.93.29l.36-.16Zm-1.18.62a.82.82,0,0,0-.67-.3,1.32,1.32,0,0,0-1.14.8,2.79,2.79,0,0,0-.35,1.34c0,.53.24.79.72.79a1.12,1.12,0,0,0,.53-.17,1.94,1.94,0,0,0,.44-.35Z"/></g></g></svg>