<svg xmlns="http://www.w3.org/2000/svg" viewBox="0 0 30.45 41.05"><defs><style>.cls-1{fill:#005da3;}</style></defs><g id="Layer_2" data-name="Layer 2"><g id="Layer_1-2" data-name="Layer 1"><path class="cls-1" d="M27.14,0H3.31A3.32,3.32,0,0,0,0,3.31V37.74a3.32,3.32,0,0,0,3.31,3.31H27.14a3.31,3.31,0,0,0,3.31-3.31V3.31A3.31,3.31,0,0,0,27.14,0Zm2,3.31V37.74a2,2,0,0,1-2,2H3.31a2,2,0,0,1-2-2V3.31a2,2,0,0,1,2-2H27.14A2,2,0,0,1,29.13,3.31Z"/><path class="cls-1" d="M25.56,21.19H4.89a.64.64,0,0,0-.46.21.66.66,0,0,0,.47,1.11H25.56A.66.66,0,0,0,26,22.3a.67.67,0,0,0,.18-.47A.66.66,0,0,0,25.56,21.19Z"/><path class="cls-1" d="M25.56,25.43H4.89a.63.63,0,0,0-.46.2.69.69,0,0,0-.18.47.67.67,0,0,0,.65.65H25.56a.67.67,0,0,0,.64-.68A.66.66,0,0,0,25.56,25.43Z"/><path class="cls-1" d="M25.56,29.66H4.89A.66.66,0,0,0,4.9,31H25.56a.65.65,0,0,0,.46-.2.7.7,0,0,0,.18-.48A.67.67,0,0,0,25.56,29.66Z"/><path class="cls-1" d="M25.56,33.9H4.89a.67.67,0,0,0-.64.68.66.66,0,0,0,.65.64H25.56A.62.62,0,0,0,26,35a.66.66,0,0,0-.46-1.11Z"/><path class="cls-1" d="M15.23,18.27h0a7,7,0,1,0-7-7A7,7,0,0,0,15.23,18.27Zm-5.7-7a5.7,5.7,0,1,1,5.7,5.7h0a5.7,5.7,0,0,1-5.69-5.7Z"/><path class="cls-1" d="M14.57,14.93v.46a.65.65,0,0,0,.66.64h0a.66.66,0,0,0,.64-.65v-.45A2.24,2.24,0,0,0,18,12.74c0-1.53-1.5-2-2.12-2.22V8.69a2.46,2.46,0,0,1,1,.53.65.65,0,0,0,.93,0A.69.69,0,0,0,18,8.71a.67.67,0,0,0-.22-.46,3.69,3.69,0,0,0-1.9-.9V6.9a.67.67,0,0,0-.66-.64h0a.66.66,0,0,0-.64.65v.48a2.05,2.05,0,0,0-1.8,2.06c0,.94.62,1.66,1.8,2.07v2.06a2,2,0,0,1-1-.59.64.64,0,0,0-.45-.23.63.63,0,0,0-.48.14.67.67,0,0,0-.24.45.68.68,0,0,0,.15.49A3.43,3.43,0,0,0,14.57,14.93Zm0-6.18v1.33c-.48-.27-.48-.52-.48-.63h0A.72.72,0,0,1,14.57,8.75Zm1.32,4.83V11.92c.73.29.8.57.8.82C16.69,13.16,16.42,13.45,15.89,13.58Z"/></g></g></svg>