<svg xmlns="http://www.w3.org/2000/svg" viewBox="0 0 45.69 42.82"><defs><style>.cls-1{fill:#005da3;}</style></defs><g id="Layer_2" data-name="Layer 2"><g id="Layer_1-2" data-name="Layer 1"><path class="cls-1" d="M2.62,42.82h35.3a2.58,2.58,0,0,0,2.63-2.62V37.66a4.16,4.16,0,0,0,4.54-2A4.26,4.26,0,0,0,43.6,29.8l-8.73-5.16A4.23,4.23,0,0,0,32.59,24H18.7L17,21.5H24.2a2.36,2.36,0,1,0,0-4.72H13.72L11.8,13.72a4.26,4.26,0,0,0-5.68-1.31H2.62A2.57,2.57,0,0,0,0,15V40.11A2.6,2.6,0,0,0,2.62,42.82Zm21.15-1.75V36.79H33.9v4.28Zm.52-22.63a.61.61,0,0,1,0,1.22H15.9L15,18.35h9.26Zm-14-3.67,7.17,10.57a.79.79,0,0,0,.7.35H32.51A2.76,2.76,0,0,1,33.9,26l8.74,5.16a2.53,2.53,0,0,1,.88,3.49,2.48,2.48,0,0,1-3.5.87l-8-4.71a.78.78,0,0,0-.44-.09H16.52a2.74,2.74,0,0,1-2.19-1.14l-8.21-12a2.55,2.55,0,0,1,.7-3.58A2.45,2.45,0,0,1,10.31,14.77Zm-8.56.35a.83.83,0,0,1,.87-.88H4.46a4.15,4.15,0,0,0,.26,4.37l8.21,12a4.33,4.33,0,0,0,3.67,1.93h15l7.34,4.37V40.2a.83.83,0,0,1-.88.87H35.74V35.91a.82.82,0,0,0-.87-.87h-12a.82.82,0,0,0-.87.87v5.16H2.62a.82.82,0,0,1-.87-.87Z"/><path class="cls-1" d="M2.8,5.16A5.16,5.16,0,1,0,8,0,5.11,5.11,0,0,0,2.8,5.16Zm8.47,0A3.41,3.41,0,1,1,7.86,1.75,3.35,3.35,0,0,1,11.27,5.16Z"/></g></g></svg>