<svg xmlns="http://www.w3.org/2000/svg" viewBox="0 0 39.25 39.25"><defs><style>.cls-1{fill:#005da3;}</style></defs><g id="Layer_2" data-name="Layer 2"><g id="Layer_1-2" data-name="Layer 1"><path class="cls-1" d="M19.64,28.85a5.13,5.13,0,0,1-5.12-5.12,1,1,0,1,1,2,0,3.09,3.09,0,0,0,3.92,3,3,3,0,0,0,2.14-2.16,3.11,3.11,0,0,0-.48-2.62,3.06,3.06,0,0,0-2.27-1.26,5.46,5.46,0,0,1-5.3-4.42,5.12,5.12,0,1,1,10.19-.71,1,1,0,0,1-2,0,3.08,3.08,0,0,0-3.08-3.08,3.12,3.12,0,0,0-2.33,1.05A3,3,0,0,0,16.59,16c.23,1.67,1.93,2.55,3.43,2.66a5.06,5.06,0,0,1,3.77,2.1A5.16,5.16,0,0,1,24.6,25,5.07,5.07,0,0,1,21,28.67,5.2,5.2,0,0,1,19.64,28.85Z"/><path class="cls-1" d="M19.63,30.77a1,1,0,0,1-1-1V27.82a1,1,0,0,1,2,0v1.93A1,1,0,0,1,19.63,30.77Z"/><path class="cls-1" d="M19.63,12.45a1,1,0,0,1-1-1V9.49a1,1,0,0,1,2,0v1.94A1,1,0,0,1,19.63,12.45Z"/><path class="cls-1" d="M19.63,39.25A19.63,19.63,0,1,1,39.25,19.63,19.65,19.65,0,0,1,19.63,39.25ZM19.63,2A17.59,17.59,0,1,0,37.21,19.63,17.6,17.6,0,0,0,19.63,2Z"/></g></g></svg>