<svg xmlns="http://www.w3.org/2000/svg" viewBox="0 0 37.63 37.71"><defs><style>.cls-1{fill:#005da3;}</style></defs><g id="Layer_2" data-name="Layer 2"><g id="Layer_1-2" data-name="Layer 1"><path class="cls-1" d="M17.85,37.71H15.66a1.2,1.2,0,0,1-.89-.4,1.21,1.21,0,0,1-.28-1L16.8,23.19c-3.4-.16-6.81-.46-9.74-.87L3.79,27.26a2,2,0,0,1-1.63.89h-1a1.17,1.17,0,0,1-.91-.43,1.18,1.18,0,0,1-.2-1l2.43-7.82L.07,11.06a1.1,1.1,0,0,1,.12-1,1.17,1.17,0,0,1,1-.52h1a2,2,0,0,1,1.63.89l3.27,4.94c2.93-.41,6.34-.71,9.74-.87L14.5,1.37a1.2,1.2,0,0,1,.28-1A1.17,1.17,0,0,1,15.66,0h2.1a2.7,2.7,0,0,1,2.46,1.62l1.83,4.23H23.5a2.48,2.48,0,0,1,.66,4.86l1.61,3.76c8,.29,11.86,1.73,11.86,4.4S33.75,23,25.77,23.25L24.16,27a2.48,2.48,0,0,1-.66,4.86H22.06l-1.84,4.27A2.59,2.59,0,0,1,17.85,37.71ZM16,36.28h1.8a1.16,1.16,0,0,0,1.14-.71h0l2.22-5.14H23.5a1,1,0,0,0,0-2.09H22l2.79-6.5h.45c10.14-.27,10.93-2.33,10.93-3s-.79-2.68-10.93-3h-.45L22,9.37H23.5a1,1,0,0,0,0-2.09H21.12L18.9,2.18a1.25,1.25,0,0,0-1.14-.75H16l2.53,14.46-.81,0a106.92,106.92,0,0,0-10.86,1l-.45.06L2.6,11.24A.52.52,0,0,0,2.16,11H1.54L4,18.87,1.54,26.72h.62a.52.52,0,0,0,.44-.25l3.77-5.69.45.06a106.66,106.66,0,0,0,10.86.95l.81,0ZM1.41,10.57l0,.06S1.42,10.59,1.41,10.57Z"/></g></g></svg>