<svg xmlns="http://www.w3.org/2000/svg" viewBox="0 0 39.65 30.38"><defs><style>.cls-1{fill:#005da3;}</style></defs><g id="Layer_2" data-name="Layer 2"><g id="Layer_1-2" data-name="Layer 1"><path class="cls-1" d="M18.1,19.54a1.12,1.12,0,0,0-1.72.15,15.63,15.63,0,0,0-1.53,2.66,11.92,11.92,0,0,1-4.12-2.69A11.77,11.77,0,0,1,8,15.53,15.63,15.63,0,0,0,10.69,14a1.1,1.1,0,0,0,.48-.82,1.09,1.09,0,0,0-.33-.89l-6-6a1.16,1.16,0,0,0-1.58,0,15.33,15.33,0,0,0-3,4.36c-1.84,4.21,5.08,11.49,6.49,12.9l0,0c1.2,1.19,7.08,6.78,11.29,6.78a4,4,0,0,0,1.6-.31,15.59,15.59,0,0,0,4.35-3,1.13,1.13,0,0,0,0-1.58Zm1.11,9.38a2.73,2.73,0,0,1-1.1.21c-3.83,0-9.76-5.78-10.43-6.44h0C4.77,19.75.2,14.05,1.46,11.17A14.25,14.25,0,0,1,4.09,7.3l5.76,5.76A13.17,13.17,0,0,1,7,14.58a.62.62,0,0,0-.39.76,12.56,12.56,0,0,0,3.2,5.2A12.48,12.48,0,0,0,15,23.73a.63.63,0,0,0,.76-.39,12.71,12.71,0,0,1,1.52-2.81l5.76,5.76A14,14,0,0,1,19.21,28.92Z"/><path class="cls-1" d="M36.66,0H10.87a3,3,0,0,0-3,3V7.55L9.12,8.8v-3l14.34,7.88a.6.6,0,0,0,.6,0L38.4,5.85V21.67a1.75,1.75,0,0,1-1.75,1.75H23.74l1.2,1.2s0,0,0,.05H36.66a3,3,0,0,0,3-3V3A3,3,0,0,0,36.66,0ZM38.4,4.43l-14.64,8-14.64-8V3a1.75,1.75,0,0,1,1.75-1.75H36.66A1.74,1.74,0,0,1,38.4,3V4.43Z"/></g></g></svg>