<svg xmlns="http://www.w3.org/2000/svg" viewBox="0 0 53.09 43.59"><defs><style>.cls-1{fill:#005da3;}</style></defs><g id="Layer_2" data-name="Layer 2"><g id="Layer_1-2" data-name="Layer 1"><path class="cls-1" d="M47.68,12.46H39.3v1.85h8.37a3.75,3.75,0,1,1,0,7.49H37.78A13.76,13.76,0,0,0,26.59,16a15.93,15.93,0,0,0-1.83.14L21.62,1.85h1.9a3.9,3.9,0,0,1,3.14,1.62L37.45,18.32l.07.11L39,17.33,28.18,2.39A5.77,5.77,0,0,0,23.54,0H19.33l3.6,16.55a13.82,13.82,0,0,0-7.42,5.09A20.34,20.34,0,0,1,9.25,19.9L1.86,16.54V2.66l3.53.75A2.47,2.47,0,0,1,7,4.55l4.21,7.71-5.9-.61-.13,0L5,13.48l8.08.82H20V12.45H13.44L8.6,3.64a4.32,4.32,0,0,0-2.84-2L.15.45,0,.41V17.73l8.48,3.88a22.44,22.44,0,0,0,5.93,1.79A13.76,13.76,0,0,0,20,41.91a13.55,13.55,0,0,0,6.57,1.68A13.78,13.78,0,0,0,38.9,23.66h8.78a5.6,5.6,0,0,0,0-11.2ZM38.5,29.8A11.91,11.91,0,1,1,26.59,17.89,11.93,11.93,0,0,1,38.5,29.8Z"/><polygon class="cls-1" points="27.52 20.69 25.66 20.69 25.66 30.73 33.77 30.73 33.77 28.87 27.52 28.87 27.52 20.69"/></g></g></svg>