<svg xmlns="http://www.w3.org/2000/svg" viewBox="0 0 36.99 28.49"><defs><style>.cls-1{fill:#005da3;fill-rule:evenodd;}</style></defs><g id="Layer_2" data-name="Layer 2"><g id="Layer_1-2" data-name="Layer 1"><path class="cls-1" d="M3.29,26.76a1.78,1.78,0,0,1-.52-.1L15.31,15.41l2.6,2.34a.88.88,0,0,0,1.16,0l2.61-2.34L34.22,26.66a1.84,1.84,0,0,1-.52.1Zm-1.55-1.5L14,14.24,1.74,3.23v22Zm32-23.53H3.29a1.5,1.5,0,0,0-.52.1L18.49,15.94,34.22,1.83a1.55,1.55,0,0,0-.52-.1Zm1.55,1.56V3.23L23,14.24l12.28,11v-22ZM33.7,0H3.29A3.29,3.29,0,0,0,0,3.29V25.2a3.29,3.29,0,0,0,3.29,3.29H33.7A3.3,3.3,0,0,0,37,25.2V3.29A3.3,3.3,0,0,0,33.7,0Z"/></g></g></svg>