<svg xmlns="http://www.w3.org/2000/svg" viewBox="0 0 123.63 133.49"><defs><style>.cls-1{fill:#009ddc;}</style></defs><g id="Layer_2" data-name="Layer 2"><g id="Layer_1-2" data-name="Layer 1"><path class="cls-1" d="M96.54,45.15h0C93.76,34.45,86.68,27.5,76.82,27.5c-4.87,0-10,1.81-15,5.14-5-3.33-10.28-5.14-15.14-5.14-10,0-17.78,7-19.72,17.78C24,60.42,33.2,80.43,60,91.26a4.38,4.38,0,0,0,1.94.42,3.83,3.83,0,0,0,1.81-.42C90.43,80.15,99.32,60.15,96.54,45.15ZM61.81,85.85C38.06,76.26,29.87,59,32.37,46.26c1.52-8.2,7.08-13.34,14.3-13.34,4.17,0,8.89,1.81,13.48,5.28l1.66,1.25,1.67-1.25c4.58-3.33,9.17-5.14,13.34-5.14,7.22,0,12.78,5,14.3,13.2C93.76,58.9,85.57,76.12,61.81,85.85Z"/><path class="cls-1" d="M51.4,104.88,36.53,85.15a8,8,0,0,0-10.69-1.94A7.94,7.94,0,0,0,23.2,93.76l5.28,9.45-2.78.42L16.53,91.68,16.11,70c0-4.45-3.75-7.64-8.19-7.64h0A7.77,7.77,0,0,0,0,70V99a9.3,9.3,0,0,0,2.5,6.25l24.59,28.2,27.08-.28L53.48,110A8.47,8.47,0,0,0,51.4,104.88ZM29.59,127.93,6.67,101.68l-.14-.14a3.54,3.54,0,0,1-1-2.5V70.15a2.25,2.25,0,0,1,2.5-2.09h0a2.27,2.27,0,0,1,2.5,2.23L11,94l12.37,15.84,13.89-2.23L28.06,91.26a2.43,2.43,0,0,1,.83-3.19,2.37,2.37,0,0,1,3.2.55l15,19.73a3,3,0,0,1,.83,2.08l.56,17.37Z"/><path class="cls-1" d="M123.63,70.15a7.68,7.68,0,0,0-7.92-7.64h-.14c-4.44,0-8.06,3.19-8.06,7.64-.13,6.94-.27,18.47-.41,21.81l-9.17,11.8-2.78-.41,5.28-9.45A8,8,0,0,0,87.1,85.29L72.23,104.74A9.24,9.24,0,0,0,70.15,110l-.84,23.06,27.23.42,24.59-28.06a8.74,8.74,0,0,0,2.5-6.25ZM117,101.54,93.9,127.93l-18.75-.13.55-17.37a3.38,3.38,0,0,1,.84-2.22L91.4,88.48a2.39,2.39,0,0,1,3.2-.55,2.43,2.43,0,0,1,.83,3.19l-9.17,16.39,13.89,2.23,12.37-16v-1s.27-14.45.41-22.64a2.27,2.27,0,0,1,2.5-2.22h.14A2.12,2.12,0,0,1,117.93,70V99A2.76,2.76,0,0,1,117,101.54Z"/><rect class="cls-1" x="59.04" width="5.56" height="16.67"/><rect class="cls-1" x="86.01" y="10.87" width="16.95" height="5.56" transform="translate(37.45 90.2) rotate(-61.53)"/><rect class="cls-1" x="26.47" y="5.13" width="5.56" height="16.95" transform="translate(-2.95 15.59) rotate(-28.48)"/></g></g></svg>