<svg xmlns="http://www.w3.org/2000/svg" viewBox="0 0 328 235.85"><defs><style>.cls-1{fill:none;stroke:#006698;stroke-miterlimit:10;stroke-width:3px;}.cls-2{fill:#005d9f;}</style></defs><g id="Layer_2" data-name="Layer 2"><g id="Layer_1-2" data-name="Layer 1"><line class="cls-1" x1="36" y1="76.35" x2="36" y2="235.35"/><line class="cls-1" y1="234.35" x2="328" y2="234.35"/><path class="cls-2" d="M17.45,33.16a5.65,5.65,0,0,1,.6-1.86A4.24,4.24,0,0,1,19.15,30a4.47,4.47,0,0,1,1.51-.8,6,6,0,0,1,1.83-.27,5.42,5.42,0,0,1,1.86.3,4.26,4.26,0,0,1,1.4.81,3.45,3.45,0,0,1,1.18,2.65,4.93,4.93,0,0,1-.14,1.22,2.84,2.84,0,0,1-.43.91,2.64,2.64,0,0,1-.71.66,4,4,0,0,1-.95.45,3.26,3.26,0,0,1,2.5,3.34,4.38,4.38,0,0,1-.41,2,4.14,4.14,0,0,1-1.1,1.41,4.54,4.54,0,0,1-1.61.86,6.4,6.4,0,0,1-1.91.29,6.65,6.65,0,0,1-1.88-.24,4.25,4.25,0,0,1-1.42-.73,4.4,4.4,0,0,1-1.06-1.2,9,9,0,0,1-.77-1.7l1.22-.5a1.52,1.52,0,0,1,.9-.11.84.84,0,0,1,.59.44,7.64,7.64,0,0,0,.43.7,3,3,0,0,0,.5.56,2.12,2.12,0,0,0,.64.36,2.3,2.3,0,0,0,.81.13,2.48,2.48,0,0,0,1-.19,2.29,2.29,0,0,0,.72-.49,2.1,2.1,0,0,0,.43-.69,2.15,2.15,0,0,0,.15-.77,4.25,4.25,0,0,0-.09-.91,1.25,1.25,0,0,0-.42-.69,2.26,2.26,0,0,0-1-.44,7.84,7.84,0,0,0-1.73-.15v-2a6.2,6.2,0,0,0,1.5-.15,2.41,2.41,0,0,0,.91-.42,1.33,1.33,0,0,0,.45-.65,2.45,2.45,0,0,0,.13-.83,2,2,0,0,0-.5-1.45,1.9,1.9,0,0,0-1.4-.5,2.45,2.45,0,0,0-.74.11,2.16,2.16,0,0,0-.6.32,2.05,2.05,0,0,0-.46.47,2.13,2.13,0,0,0-.28.59,1.2,1.2,0,0,1-.49.67,1.39,1.39,0,0,1-.87.07Z"/><path class="cls-2" d="M37.88,41.06a1,1,0,0,1,.7.25.9.9,0,0,1,.26.66V43.6H28.76v-.91a1.73,1.73,0,0,1,.11-.56,1.55,1.55,0,0,1,.38-.56l4.3-4.31c.37-.37.69-.72,1-1.06a7,7,0,0,0,.7-1,3.88,3.88,0,0,0,.42-1,3.6,3.6,0,0,0,.14-1,2,2,0,0,0-.5-1.48,1.91,1.91,0,0,0-1.41-.5,2.38,2.38,0,0,0-.73.11,2.08,2.08,0,0,0-.61.32,2.24,2.24,0,0,0-.45.47,1.88,1.88,0,0,0-.28.59,1.16,1.16,0,0,1-.49.67,1.37,1.37,0,0,1-.86.07L29,33.16a5.43,5.43,0,0,1,.61-1.86A4.24,4.24,0,0,1,30.69,30a4.47,4.47,0,0,1,1.51-.8A6,6,0,0,1,34,28.9a5.57,5.57,0,0,1,1.88.31,4.34,4.34,0,0,1,1.45.85,3.76,3.76,0,0,1,.93,1.32,4.26,4.26,0,0,1,.33,1.7,4.69,4.69,0,0,1-.23,1.48,5.78,5.78,0,0,1-.63,1.3,10,10,0,0,1-.91,1.2q-.52.57-1.11,1.17l-3.08,3.15a7.69,7.69,0,0,1,1-.23,5.41,5.41,0,0,1,.94-.09Z"/><path class="cls-2" d="M43.6,28.66v8.48h.46a.93.93,0,0,0,.41-.08.92.92,0,0,0,.3-.27l2.28-3a1.25,1.25,0,0,1,.38-.35,1.15,1.15,0,0,1,.55-.12H50.5l-3,3.77a2.7,2.7,0,0,1-.81.74,1.76,1.76,0,0,1,.4.37c.11.14.22.3.33.47l3.19,5H48.17a1.31,1.31,0,0,1-.55-.11.82.82,0,0,1-.38-.38l-2.32-3.79a.8.8,0,0,0-.29-.31,1.06,1.06,0,0,0-.45-.07H43.6V43.6H40.83V28.66Z"/><path class="cls-2" d="M61,33.61v1a.52.52,0,0,1-.14.38.76.76,0,0,1-.44.21l-.84.17a3.32,3.32,0,0,1,.17,1.06,3,3,0,0,1-.32,1.38,3.23,3.23,0,0,1-.86,1,4,4,0,0,1-1.31.67,5.29,5.29,0,0,1-1.62.24,5.56,5.56,0,0,1-1-.09q-.42.26-.42.57a.45.45,0,0,0,.29.42,2.55,2.55,0,0,0,.75.19c.31,0,.66.06,1.06.07l1.21.06a9.8,9.8,0,0,1,1.21.18,3.21,3.21,0,0,1,1.06.41,2.24,2.24,0,0,1,.75.75,2.34,2.34,0,0,1,.29,1.22,2.84,2.84,0,0,1-.34,1.34,3.72,3.72,0,0,1-1,1.16,5.23,5.23,0,0,1-1.58.82,6.8,6.8,0,0,1-2.15.31A8.48,8.48,0,0,1,53.64,47a4.73,4.73,0,0,1-1.45-.61,2.49,2.49,0,0,1-.85-.86,2,2,0,0,1-.28-1,1.71,1.71,0,0,1,.42-1.17,2.86,2.86,0,0,1,1.16-.78A1.73,1.73,0,0,1,52,42a1.65,1.65,0,0,1-.23-.93,1.82,1.82,0,0,1,.33-1,2.57,2.57,0,0,1,1-.85,3.26,3.26,0,0,1-1.25-1.13,2.91,2.91,0,0,1-.46-1.64A3,3,0,0,1,52.63,34,3.91,3.91,0,0,1,54,33.32a5.82,5.82,0,0,1,1.65-.23,5,5,0,0,1,2.33.52ZM58.22,44a.6.6,0,0,0-.17-.44,1.1,1.1,0,0,0-.46-.27,3,3,0,0,0-.68-.15l-.83-.07-.91,0c-.31,0-.62,0-.92-.08a2.18,2.18,0,0,0-.58.5,1,1,0,0,0-.22.65,1,1,0,0,0,.11.46,1,1,0,0,0,.39.36,2.28,2.28,0,0,0,.71.23,5.6,5.6,0,0,0,1.1.09,6.16,6.16,0,0,0,1.15-.09,2.4,2.4,0,0,0,.76-.26,1,1,0,0,0,.42-.39A1.09,1.09,0,0,0,58.22,44Zm-2.62-6a1.68,1.68,0,0,0,1.26-.43,1.56,1.56,0,0,0,.4-1.11,1.51,1.51,0,0,0-.4-1.12A1.72,1.72,0,0,0,55.6,35a1.69,1.69,0,0,0-1.25.41,1.51,1.51,0,0,0-.4,1.12,1.55,1.55,0,0,0,.4,1.1A1.65,1.65,0,0,0,55.6,38.05Z"/><path class="cls-2" d="M39,75.85A37.93,37.93,0,1,1,76.93,37.93,38,38,0,0,1,39,75.85ZM39,3A34.94,34.94,0,1,0,73.93,37.93,35,35,0,0,0,39,3Z"/><path class="cls-2" d="M262,124.77a41.22,41.22,0,0,0-18.28,4.29L227,100.38l6-19.22,12.55.77c.22,0,.45,0,.67,0a11,11,0,0,0,11-11V67.13a11,11,0,0,0-11.71-11l-31,1.9a11,11,0,0,0,0,22l12.77.78-5.21,16.64H155.3L161.71,71A2.77,2.77,0,0,0,159,67.63H129a2.78,2.78,0,0,0-.91.18,17.6,17.6,0,0,0,.81,35.18,2.77,2.77,0,0,0,0-5.53,12.09,12.09,0,0,1,0-24.17,2.79,2.79,0,0,0,.71-.14h25.86L142,128.9a41.31,41.31,0,1,0,5,2.82l3.89-16L191,167.2a12.7,12.7,0,0,0,4.64,20l-2,8.4h-4.77a2.76,2.76,0,1,0,0,5.52h14.56a2.76,2.76,0,1,0,0-5.52h-4.11l1.78-7.38a12.76,12.76,0,0,0,12.36-12.05l7.89-1.14A41.54,41.54,0,1,0,262,124.77ZM209.73,69a5.52,5.52,0,0,1,5.17-5.5l31-1.89h.35a5.49,5.49,0,0,1,5.49,5.51v3.79a5.45,5.45,0,0,1-1.73,4,5.53,5.53,0,0,1-4.11,1.49l-31-1.9A5.52,5.52,0,0,1,209.73,69Zm-49.67,97.29a36.11,36.11,0,1,1-19.4-31.92l-1.69,7L129,154.88a12.79,12.79,0,1,0,4.42,3.32l10.29-14a2.59,2.59,0,0,0,.46-1l1.39-5.72A35.91,35.91,0,0,1,160.06,166.31Zm-29.06,0a7,7,0,1,1-7-7A7,7,0,0,1,131,166.31ZM154,103H220.4l-18.68,59.75c-.33,0-.65-.1-1-.1a12.66,12.66,0,0,0-5.33,1.2l-42.85-55Zm46.77,79.7a7.27,7.27,0,1,1,7.26-7.26A7.27,7.27,0,0,1,200.73,182.69Zm11.85-12a12.84,12.84,0,0,0-5.57-6.33l17.76-56.82,14.11,24.26a41.52,41.52,0,0,0-18.47,34.52c0,1.08.08,2.15.17,3.21ZM262,159.35a7,7,0,1,1-7,7A7,7,0,0,1,262,159.35Zm-12.39,6-23.51,3.39c-.05-.8-.12-1.6-.12-2.42a36,36,0,0,1,15.72-29.73l11.94,20.53A12.37,12.37,0,0,0,249.57,165.34Zm12.39,37a36.06,36.06,0,0,1-35.12-28.13l23.5-3.39a12.47,12.47,0,1,0,11.62-17,12.62,12.62,0,0,0-3.55.57l-12-20.55a35.64,35.64,0,0,1,15.5-3.56,36,36,0,0,1,0,72Z"/></g></g></svg>