<svg xmlns="http://www.w3.org/2000/svg" viewBox="0 0 89.24 50.05"><defs><style>.cls-1{fill:#fff;}</style></defs><g id="Layer_2" data-name="Layer 2"><g id="Layer_1-2" data-name="Layer 1"><path class="cls-1" d="M23.38,40.28H7A7,7,0,0,1,3.24,27.34a4.46,4.46,0,0,1,2.41-6.43,5.38,5.38,0,0,1-.22-1.55,5.56,5.56,0,0,1,3.44-5.15,5.72,5.72,0,0,1-.28-1.75,5.61,5.61,0,0,1,2.09-4.34v-.2a4.8,4.8,0,1,1,9.59,0,4.87,4.87,0,0,1,0,.66,5.49,5.49,0,0,1,1.59,3.88,5.72,5.72,0,0,1-.28,1.75A5.56,5.56,0,0,1,25,19.36a5.38,5.38,0,0,1-.22,1.55,4.47,4.47,0,0,1,3,4.22,4.42,4.42,0,0,1-.58,2.21,7,7,0,0,1-3.79,12.94ZM7.12,23a2.16,2.16,0,0,0-1.34,3.85,1.15,1.15,0,0,1-.33,2A4.72,4.72,0,0,0,7,38H23.38A4.71,4.71,0,0,0,25,28.81a1.15,1.15,0,0,1-.33-2A2.16,2.16,0,0,0,23.29,23h-.14a1.16,1.16,0,0,1-1-1.8,3.2,3.2,0,0,0,.56-1.82,3.25,3.25,0,0,0-2.91-3.24,1.15,1.15,0,0,1-.84-1.8,3.26,3.26,0,0,0-.67-4.42,1.16,1.16,0,0,1-.4-1.25A2.27,2.27,0,0,0,18,7.92a2.49,2.49,0,1,0-5,0,2.94,2.94,0,0,0,0,.51,1.14,1.14,0,0,1-.54,1.23,3.3,3.3,0,0,0-1.6,2.8,3.25,3.25,0,0,0,.58,1.86,1.15,1.15,0,0,1-.83,1.8,3.27,3.27,0,0,0-2.36,5.06,1.14,1.14,0,0,1,.05,1.22A1.18,1.18,0,0,1,7.26,23Z"/><path class="cls-1" d="M15.14,50.05a1.43,1.43,0,0,1-.29,0A1.16,1.16,0,0,1,14,48.73c.07-1,0-14.31,0-23a1.15,1.15,0,0,1,1.15-1.16h0a1.15,1.15,0,0,1,1.15,1.15c.12,22.91,0,23.33,0,23.51A1.17,1.17,0,0,1,15.14,50.05ZM14,48.62Zm0,0Z"/><path class="cls-1" d="M15.59,29.26a1.17,1.17,0,0,1-.94-.48,1.15,1.15,0,0,1,.27-1.61l4.78-3.42A1.15,1.15,0,1,1,21,25.63l-4.78,3.42A1.18,1.18,0,0,1,15.59,29.26Z"/><path class="cls-1" d="M15,33.16a1.14,1.14,0,0,1-.61-.18L8.1,29.05a1.15,1.15,0,0,1,1.22-2L15.63,31A1.15,1.15,0,0,1,16,32.61,1.13,1.13,0,0,1,15,33.16Z"/><path class="cls-1" d="M15.59,36.74a1.16,1.16,0,0,1-.67-2.1l4.78-3.41a1.14,1.14,0,0,1,1.61.26A1.17,1.17,0,0,1,21,33.11l-4.78,3.41A1.12,1.12,0,0,1,15.59,36.74Z"/><path class="cls-1" d="M61.65,20.63a1.15,1.15,0,0,1-.44-2.22c.14-.06,9.37-4,14.29-12.38a1.15,1.15,0,0,1,1-.57,1.17,1.17,0,0,1,1,.49,43.44,43.44,0,0,0,9,9.09c.73.54,1.47,1,2.21,1.5a1.15,1.15,0,1,1-1.22,2c-.79-.49-1.58-1-2.36-1.59a46.46,46.46,0,0,1-8.54-8.26,35.61,35.61,0,0,1-14.49,11.9A1.17,1.17,0,0,1,61.65,20.63Z"/><path class="cls-1" d="M68.82,24.84a1.15,1.15,0,0,1-.32-2.26c.2-.07,4.54-1.5,5.87-9a1.15,1.15,0,1,1,2.27.4c-1.59,9-7.26,10.74-7.5,10.81A1.12,1.12,0,0,1,68.82,24.84Z"/><path class="cls-1" d="M66.51,18a1.13,1.13,0,0,1-.36-.06C56.21,14.74,49,6.51,46.39,3.2c-6.15,9.29-16,13.44-16.49,13.62A1.16,1.16,0,0,1,29,14.68h0c.11,0,10.66-4.48,16.28-14.11a1.16,1.16,0,0,1,2-.07C47.33.61,55.32,12,66.86,15.77A1.16,1.16,0,0,1,66.51,18Z"/><path class="cls-1" d="M37.6,21.68a1.16,1.16,0,0,1-.33-2.27c.23-.07,5.25-1.7,6.77-10.32a1.15,1.15,0,1,1,2.27.41c-1.79,10.13-8.13,12.05-8.39,12.13A1.25,1.25,0,0,1,37.6,21.68Z"/></g></g></svg>