<svg xmlns="http://www.w3.org/2000/svg" viewBox="0 0 71.89 43.61"><defs><style>.cls-1{fill:#fff;}</style></defs><g id="Layer_2" data-name="Layer 2"><g id="Layer_1-2" data-name="Layer 1"><path class="cls-1" d="M21.58,43.61H14.35a1,1,0,0,1-1-1V36a2.26,2.26,0,0,0-.41-.74,2.29,2.29,0,0,0-1.86-.75c-1.76,0-2,1.18-2,1.41v6.66a1,1,0,0,1-1,1H1a1,1,0,0,1-1-1V28.84a1,1,0,0,1,.34-.75l10-8.77a1,1,0,0,1,1.29,0l10.58,8.78a1,1,0,0,1,.36.76V39.65a1,1,0,0,1-2,0V29.31L11,21.37,2,29.29V41.62H7.12V35.84a3.65,3.65,0,0,1,4-3.28,4.11,4.11,0,0,1,4.24,3.16,1.28,1.28,0,0,1,0,.19v5.71h6.24a1,1,0,0,1,0,2Z"/><path class="cls-1" d="M48.67,43.31H27a1,1,0,0,1-1-1V1a1,1,0,0,1,1-1H48.67a1,1,0,0,1,1,1V42.31A1,1,0,0,1,48.67,43.31ZM28,41.32H47.67V2H28Z"/><path class="cls-1" d="M36,11.27H30.58a1,1,0,0,1-1-1V4.83a1,1,0,0,1,1-1H36a1,1,0,0,1,1,1V7a1,1,0,0,1-2,0V5.82H31.57V9.29H36a1,1,0,1,1,0,2Z"/><path class="cls-1" d="M44.72,11.27H39.26a1,1,0,0,1-1-1V4.83a1,1,0,0,1,1-1h5.46a1,1,0,0,1,1,1V7a1,1,0,0,1-2,0V5.82H40.26V9.29h4.46a1,1,0,1,1,0,2Z"/><path class="cls-1" d="M44.72,20.58H39.26a1,1,0,0,1-1-1V14.13a1,1,0,0,1,1-1h5.46a1,1,0,0,1,1,1v2.19a1,1,0,0,1-2,0V15.13H40.26v3.46h4.46a1,1,0,0,1,0,2Z"/><path class="cls-1" d="M36,20.73H30.58a1,1,0,0,1-1-1V14.28a1,1,0,0,1,1-1H36a1,1,0,0,1,1,1v2.18a1,1,0,1,1-2,0V15.28H31.57v3.46H36a1,1,0,0,1,0,2Z"/><path class="cls-1" d="M36,30.19H30.58a1,1,0,0,1-1-1V23.74a1,1,0,0,1,1-1H36a1,1,0,0,1,1,1v2.18a1,1,0,0,1-2,0V24.73H31.57V28.2H36a1,1,0,0,1,0,2Z"/><path class="cls-1" d="M70.89,43.31H54.3a1,1,0,0,1-1-1V1a1,1,0,0,1,.42-.8,1,1,0,0,1,.9-.14L71.21,5.74a1,1,0,0,1,.68.94V42.31A1,1,0,0,1,70.89,43.31Zm-15.6-2H69.9V7.39l-14.61-5Z"/><path class="cls-1" d="M66.62,11.85H58.47a1,1,0,0,1,0-2h8.15a1,1,0,0,1,0,2Z"/><path class="cls-1" d="M66.62,16.26H58.47a1,1,0,0,1,0-2h8.15a1,1,0,0,1,0,2Z"/><path class="cls-1" d="M66.62,20.66H58.47a1,1,0,0,1,0-2h8.15a1,1,0,0,1,0,2Z"/><path class="cls-1" d="M66.62,25.06H58.47a1,1,0,0,1,0-2h8.15a1,1,0,0,1,0,2Z"/><path class="cls-1" d="M66.62,29.46H58.47a1,1,0,0,1,0-2h8.15a1,1,0,0,1,0,2Z"/></g></g></svg>