<svg xmlns="http://www.w3.org/2000/svg" viewBox="0 0 50.44 52.25"><defs><style>.cls-1{fill:#fff;}</style></defs><g id="Layer_2" data-name="Layer 2"><g id="Layer_1-2" data-name="Layer 1"><path class="cls-1" d="M18.89,52.25a1.09,1.09,0,0,1-.06-2.18c10.55-.6,18.46-3.92,23.52-9.89a26.49,26.49,0,0,0,5.9-17A19.86,19.86,0,0,0,41.61,7.83,24.09,24.09,0,0,0,25.55,2.19C12.89,2.19,2.19,11.72,2.19,23c0,11.48,10.08,20.82,22.47,20.82a1.1,1.1,0,1,1,0,2.19C11.06,46,0,35.7,0,23A21.72,21.72,0,0,1,7.72,6.69,27.25,27.25,0,0,1,25.55,0a26.28,26.28,0,0,1,17.5,6.19,22,22,0,0,1,7.39,17A28.67,28.67,0,0,1,44,41.59C38.55,48,30.12,51.62,19,52.25Z"/><rect class="cls-1" x="12.48" y="16.29" width="26.06" height="5.5"/><rect class="cls-1" x="12.48" y="25.85" width="26.06" height="5.5"/></g></g></svg>