<svg xmlns="http://www.w3.org/2000/svg" viewBox="0 0 60.82 55.09"><defs><style>.cls-1{fill:#fff;}</style></defs><g id="Layer_2" data-name="Layer 2"><g id="Layer_1-2" data-name="Layer 1"><path class="cls-1" d="M59.55,52.76h-5V13a1.18,1.18,0,0,0-1-1.13,1.32,1.32,0,0,0-1.42.59,53.29,53.29,0,0,1-7.42,9.9,1.09,1.09,0,0,0-.3.76V52.76h-2V26.59a1.17,1.17,0,0,0-.79-1.08,1.37,1.37,0,0,0-1.36.24,81.51,81.51,0,0,1-7.47,5.88,1.16,1.16,0,0,0-.5.93v20.2H30.48V35.46a1.17,1.17,0,0,0-.69-1,1.37,1.37,0,0,0-1.29.08C26.13,36,23.6,37.42,21,38.78a1.16,1.16,0,0,0-.64,1v13H18.21V42.12a1.16,1.16,0,0,0-.62-1,1.37,1.37,0,0,0-1.23,0c-2.46,1.16-5,2.26-7.5,3.25a1.15,1.15,0,0,0-.77,1.07v7.36H2.53V5A1.22,1.22,0,0,0,1.27,3.81,1.23,1.23,0,0,0,0,5v49a1.22,1.22,0,0,0,1.27,1.16H59.55a1.17,1.17,0,1,0,0-2.33Zm-48.92,0v-6.6c1.68-.67,3.37-1.4,5-2.15v8.75Zm12.27,0V40.47c1.72-.91,3.41-1.87,5-2.84V52.76Zm12,0V33.13c1.76-1.25,3.45-2.54,5-3.86V52.76Zm12.11,0V23.58A59.21,59.21,0,0,0,52,17.34V52.76Z"/><path class="cls-1" d="M5.85,43a1.25,1.25,0,0,0,.51-.1,124.68,124.68,0,0,0,24-12.72c10.84-7.49,18.58-15.89,23-25L54,9.39a1.25,1.25,0,0,0,1.25,1h.18a1.32,1.32,0,0,0,.87-.49,1.08,1.08,0,0,0,.21-.83L55.26,1a1.17,1.17,0,0,0-.71-.89,1.41,1.41,0,0,0-1.19.05L45.5,4.46a1.17,1.17,0,0,0-.59.74,1.08,1.08,0,0,0,.16.87,1.33,1.33,0,0,0,1.72.39l4.3-2.34C46.81,12.88,39.32,21,28.79,28.28A122.08,122.08,0,0,1,5.35,40.73a1.25,1.25,0,0,0-.69.68,1.06,1.06,0,0,0,0,.87A1.27,1.27,0,0,0,5.85,43Z"/></g></g></svg>