<svg xmlns="http://www.w3.org/2000/svg" viewBox="0 0 60.13 52"><defs><style>.cls-1{fill:#fff;}</style></defs><g id="Layer_2" data-name="Layer 2"><g id="Layer_1-2" data-name="Layer 1"><path class="cls-1" d="M31.94,52a6.76,6.76,0,0,1-3.75-1.48,1.26,1.26,0,0,1,1.56-2c.55.43,2,1.22,2.63.82A1.17,1.17,0,0,0,33,48.05a1.23,1.23,0,0,1,.26-1.19,1.26,1.26,0,0,1,1.19-.39,3.92,3.92,0,0,0,2.79-.56,2.67,2.67,0,0,0,.85-2.14,1.3,1.3,0,0,1,.47-.93,1.27,1.27,0,0,1,1-.27,4,4,0,0,0,2.73-.6,3.44,3.44,0,0,0,1.19-2.44,1.26,1.26,0,0,1,1.25-1.12h0c1.12,0,2.88-.34,3.29-1,.83-1.31,1.17-3.73-.37-6.6a1.26,1.26,0,1,1,2.22-1.2,11.63,11.63,0,0,1,1.34,4.29,7.66,7.66,0,0,1-1,4.86c-1,1.52-3.07,2-4.4,2.11a5.42,5.42,0,0,1-2,3.11,6,6,0,0,1-3.33,1.12,4.74,4.74,0,0,1-1.65,2.77A5.69,5.69,0,0,1,35.45,49a3.66,3.66,0,0,1-1.77,2.49A3.33,3.33,0,0,1,31.94,52Z"/><path class="cls-1" d="M24.07,51.63a3.85,3.85,0,0,1-2.66-.92,4.34,4.34,0,0,1-1.32-2.48,4.88,4.88,0,0,1-2.84-1.42,4.72,4.72,0,0,1-1.2-2.37,5.84,5.84,0,0,1-4.25-5.36,3.8,3.8,0,0,1-.75-.63C8.41,35.52,9.54,30,9.59,29.8a1.26,1.26,0,1,1,2.47.53c-.06.3-.13.75-.18,1.27a1.38,1.38,0,0,1,.33-.48c.92-.84,3.6-1.45,5.8-1A3.44,3.44,0,0,1,20.68,32a4,4,0,0,1,.09,2.85A3.81,3.81,0,0,1,24,36.51a3.61,3.61,0,0,1,.6,2.15,5.8,5.8,0,0,1,1,.12,3.44,3.44,0,0,1,2.44,2,2.94,2.94,0,0,1,.16,1.87,3.62,3.62,0,0,1,1.34.37A2.66,2.66,0,0,1,31,44.9a5,5,0,0,1-.65,3.88c-.92,1.36-2.63,2.28-5.07,2.74A6.2,6.2,0,0,1,24.07,51.63Zm-5.6-8.17a2.47,2.47,0,0,0,.62,1.62,3,3,0,0,0,2.18.71,1.29,1.29,0,0,1,.92.39,1.33,1.33,0,0,1,.34,1,2.4,2.4,0,0,0,.55,1.69,2,2,0,0,0,1.68.22c1.74-.33,2.93-.91,3.45-1.68a2.53,2.53,0,0,0,.27-2c0-.13-.06-.14-.1-.16-.56-.3-2.22.1-3.14.5a1.26,1.26,0,0,1-1-2.31c.47-.23,1.78-1.09,1.53-1.67a.89.89,0,0,0-.7-.51,3.16,3.16,0,0,0-2.1.35l-.33.23a1.26,1.26,0,0,1-1.49-2l.28-.22a2.35,2.35,0,0,0,.49-.56.93.93,0,0,0,0-1.14c-.71-1.11-3-.19-3-.18a1.26,1.26,0,0,1-1.45-2c.47-.53,1.32-1.9,1-2.7a1.25,1.25,0,0,0-.73-.36,6.26,6.26,0,0,0-3.74.36,1.25,1.25,0,0,1-1.78-.08,1.19,1.19,0,0,1-.29-.54c-.05,1.51.14,3.34,1.09,4.39a1.14,1.14,0,0,0,.53.32,1.26,1.26,0,0,1,.85,1.29,3.5,3.5,0,0,0,3.08,3.78,1.25,1.25,0,0,1,1.08,1.31Z"/><path class="cls-1" d="M39.94,14.23a24.51,24.51,0,0,1-5.32-.72A27.94,27.94,0,0,0,28,12.73h0a1.27,1.27,0,0,1,0-2.53,30.93,30.93,0,0,1,7.24.85c4.07,1,6.5.66,6.9.26a1.27,1.27,0,1,1,1.79,1.79A5.69,5.69,0,0,1,39.94,14.23Z"/><path class="cls-1" d="M19.48,26.08a3.55,3.55,0,0,1-2.52-1,4.51,4.51,0,0,1-1.44-3.32A5.43,5.43,0,0,1,17.19,18c.36-.34.9-.93,1.51-1.61a43.8,43.8,0,0,1,4.19-4.23,7.08,7.08,0,0,1,5.31-1.92l-.37,2.5h0a4.74,4.74,0,0,0-3.34,1.34,43.3,43.3,0,0,0-3.93,4c-.66.73-1.22,1.35-1.66,1.77a2.9,2.9,0,0,0-.87,2,1.94,1.94,0,0,0,.66,1.47c.15.15.56.54,1.72.09a5.73,5.73,0,0,0,1.39-.79l6.31-6.3A1.27,1.27,0,0,1,29.92,18l-6.37,6.35a.3.3,0,0,1-.08.08,8.49,8.49,0,0,1-2.06,1.2A5.19,5.19,0,0,1,19.48,26.08Z"/><path class="cls-1" d="M46,33.65l-.24,0c-10.58-2.09-18.3-13.9-18.62-14.4a1.26,1.26,0,1,1,2.12-1.37c.1.14,7.14,10.9,16.33,13.14,1.62-1.67,6.85-7.06,8.91-9.39s6-9.72-.27-15.49C48.55.89,42.12,1.39,35.13,7.6l-4.68,4.28a1.26,1.26,0,0,1-1.72,0c-.36-.34-.84-.82-1.34-1.33-.78-.78-1.66-1.66-2.29-2.22C17.72,1.74,11.24,1.1,5.85,6.41a10.73,10.73,0,0,0-.29,15.2c2.44,2.76,8.51,9,8.57,9.07a1.26,1.26,0,0,1-1.81,1.76c-.25-.26-6.18-6.35-8.65-9.16A15.44,15.44,0,0,1,.12,15.53a12.53,12.53,0,0,1,4-10.93c4-4,8.88-5.19,14-3.53a25.94,25.94,0,0,1,8.69,5.35c.68.61,1.59,1.52,2.4,2.33.15.16.31.31.45.45l3.8-3.47h0A23,23,0,0,1,41.93.63C47-.88,51.68.34,56,4.25a12.17,12.17,0,0,1,4,11,16.15,16.15,0,0,1-3.6,8c-2.48,2.81-9.2,9.7-9.48,10A1.25,1.25,0,0,1,46,33.65Z"/></g></g></svg>