<svg xmlns="http://www.w3.org/2000/svg" viewBox="0 0 41.82 57.37"><defs><style>.cls-1{fill:#fff;}</style></defs><g id="Layer_2" data-name="Layer 2"><g id="Layer_1-2" data-name="Layer 1"><path class="cls-1" d="M12.77,42A12.77,12.77,0,1,1,25.53,29.25,12.78,12.78,0,0,1,12.77,42Zm0-23.77a11,11,0,1,0,11,11A11,11,0,0,0,12.77,18.24Z"/><path class="cls-1" d="M20.08,49.33H5.91a.88.88,0,1,1,0-1.76H20.08a.88.88,0,1,1,0,1.76Z"/><path class="cls-1" d="M12.77,57.37a.87.87,0,0,1-.88-.88V41.13a.88.88,0,1,1,1.76,0V56.49A.88.88,0,0,1,12.77,57.37Z"/><path class="cls-1" d="M20.14,34.09a12.77,12.77,0,1,1,9-3.74A12.74,12.74,0,0,1,20.14,34.09Zm0-23.77a11,11,0,1,0,7.78,3.22A11,11,0,0,0,20.14,10.32Z"/><path class="cls-1" d="M28.54,13.8a.86.86,0,0,1-.63-.27.88.88,0,0,1,0-1.25L38.07,2.61a.88.88,0,0,1,1.25,0,.89.89,0,0,1,0,1.25L29.15,13.56A.89.89,0,0,1,28.54,13.8Z"/><path class="cls-1" d="M39.78,12.68h-.09a.89.89,0,0,1-.79-1L40,1.87l-9.84,1a.88.88,0,1,1-.19-1.75L40.84,0a.91.91,0,0,1,.72.26.86.86,0,0,1,.25.71L40.65,11.89A.88.88,0,0,1,39.78,12.68Z"/></g></g></svg>