<svg xmlns="http://www.w3.org/2000/svg" viewBox="0 0 79.94 79.94"><defs><style>.cls-1{fill:#005da3;}</style></defs><g id="Layer_2" data-name="Layer 2"><g id="Layer_1-2" data-name="Layer 1"><path class="cls-1" d="M72.21,47.1V2.58A2.59,2.59,0,0,0,69.63,0H10.32A2.58,2.58,0,0,0,7.74,2.58V29.23L2,36.9a9.93,9.93,0,0,0-2,5.94,10.27,10.27,0,0,0,.26,2.27l4.9,20.8v14H23.49L20.68,65.88l.57-1.41h22.8A18,18,0,1,0,72.21,47.1Zm3.06,7.06H70.89a19.68,19.68,0,0,0-4.37-7A15.51,15.51,0,0,1,75.27,54.16Zm-5.64,7.73A20.69,20.69,0,0,1,69,67.05H54.81a20.27,20.27,0,0,1-.65-5.16,20.77,20.77,0,0,1,.63-5.16H69A20.27,20.27,0,0,1,69.63,61.89ZM61.9,77.16a17.11,17.11,0,0,1-6.22-7.53H68.12A16.86,16.86,0,0,1,61.9,77.16Zm-4.64-30a19.68,19.68,0,0,0-4.37,7H48.51A15.54,15.54,0,0,1,57.26,47.13Zm-8.45,2.36A18,18,0,0,0,45.2,55,8.92,8.92,0,0,1,40,56.73a9,9,0,1,1,9-9A8.9,8.9,0,0,1,48.81,49.49Zm-2.39,12.4a15.5,15.5,0,0,1,.9-5.16h4.83a23.64,23.64,0,0,0,0,10.32H47.32A15.5,15.5,0,0,1,46.42,61.89Zm9.25-7.73a16.67,16.67,0,0,1,6.22-7.53,17.05,17.05,0,0,1,6.21,7.53Zm14-51.58V31h-58a3.87,3.87,0,0,0-1.28.23V2.58Zm-67,40.26A7.39,7.39,0,0,1,4,38.45l3.7-4.93V49h2.58V34.81a1.28,1.28,0,0,1,1.28-1.29,3.87,3.87,0,0,1,3.87,3.87v8.72A5.13,5.13,0,0,0,17,49.75l.92.92a9.26,9.26,0,0,1,2.73,6.6A9.11,9.11,0,0,1,20,60.73l-1.49,3.74h-11L2.77,44.52A7.34,7.34,0,0,1,2.58,42.84ZM7.74,77.36V67.05H18.28l2.07,10.31ZM22.28,61.89l.08-.2a11.92,11.92,0,0,0-2.64-12.85l-.91-.91a2.55,2.55,0,0,1-.76-1.82V37.39a6.41,6.41,0,0,0-1.32-3.87h52.9V45.61a17.88,17.88,0,0,0-18.08,1.51A11.6,11.6,0,1,0,40,59.31a11.48,11.48,0,0,0,4.2-.79,17.91,17.91,0,0,0-.33,3.37Zm26.23,7.74h4.38a19.68,19.68,0,0,0,4.37,7A15.58,15.58,0,0,1,48.51,69.63Zm18,7a19.68,19.68,0,0,0,4.37-7h4.38A15.55,15.55,0,0,1,66.52,76.66Zm9.94-9.61H71.64a23.64,23.64,0,0,0,0-10.32h4.82a15.24,15.24,0,0,1,0,10.32Z"/><rect class="cls-1" x="36.1" y="67.05" width="2.58" height="2.58"/><rect class="cls-1" x="30.95" y="67.05" width="2.58" height="2.58"/><rect class="cls-1" x="25.79" y="67.05" width="2.58" height="2.58"/><path class="cls-1" d="M36.1,5.16H12.89V28.37H36.1ZM24.5,20.63a3.87,3.87,0,1,1,3.87-3.87A3.87,3.87,0,0,1,24.5,20.63Zm-2.58,2.58h5.16a3.86,3.86,0,0,1,3.63,2.58H18.29A3.85,3.85,0,0,1,21.92,23.21Zm11.6,2.58h-.13A6.45,6.45,0,0,0,29.28,21a6.45,6.45,0,1,0-9.56,0,6.47,6.47,0,0,0-4.12,4.75h-.13v-18H33.52Z"/><path class="cls-1" d="M67.05,5.16H38.68v7.73H67.05ZM51.58,7.74h2.58v2.58H51.58ZM49,10.32H46.42V7.74H49Zm7.73-2.58h2.58v2.58H56.73Zm-15.47,0h2.58v2.58H41.26Zm23.21,2.58H61.89V7.74h2.58Z"/><rect class="cls-1" x="38.68" y="15.47" width="7.74" height="2.58"/><rect class="cls-1" x="49" y="15.47" width="18.05" height="2.58"/><rect class="cls-1" x="38.68" y="20.63" width="7.74" height="2.58"/><rect class="cls-1" x="49" y="20.63" width="18.05" height="2.58"/><rect class="cls-1" x="38.68" y="25.79" width="7.74" height="2.58"/><rect class="cls-1" x="49" y="25.79" width="18.05" height="2.58"/><polygon class="cls-1" points="38.6 49.67 35.73 46.8 33.9 48.62 38.77 53.49 46.12 44.66 44.14 43.02 38.6 49.67"/></g></g></svg>